<?xml version="1.0" encoding="UTF-8" standalone="no"?>
<!-- Created with Inkscape (http://www.inkscape.org/) -->

<svg
   version="1.1"
   id="svg2"
   width="371.06668"
   height="339.57333"
   viewBox="0 0 371.06668 339.57333"
   sodipodi:docname="Crown Commercial Service(stacked_white).eps"
   xmlns:inkscape="http://www.inkscape.org/namespaces/inkscape"
   xmlns:sodipodi="http://sodipodi.sourceforge.net/DTD/sodipodi-0.dtd"
   xmlns="http://www.w3.org/2000/svg"
   xmlns:svg="http://www.w3.org/2000/svg">
  <defs
     id="defs6" />
  <sodipodi:namedview
     id="namedview4"
     pagecolor="#ffffff"
     bordercolor="#000000"
     borderopacity="0.25"
     inkscape:showpageshadow="2"
     inkscape:pageopacity="0.0"
     inkscape:pagecheckerboard="0"
     inkscape:deskcolor="#d1d1d1" />
  <g
     id="g8"
     inkscape:groupmode="layer"
     inkscape:label="ink_ext_XXXXXX"
     transform="matrix(1.3333333,0,0,-1.3333333,0,339.57333)">
    <g
       id="g10"
       transform="scale(0.1)">
      <path
         d="M 0,233.789 H 42.5195 V 2546.8 H 0 V 233.789"
         style="fill:#ffffff;fill-opacity:1;fill-rule:nonzero;stroke:none"
         id="path12" />
      <path
         d="m 924.047,2175.87 c -2.754,0.26 -5.035,-2.16 -4.117,-5.12 -0.274,0.04 -0.539,0.12 -0.785,0.29 l -12.821,8.75 c -0.832,0.57 -1.086,1.73 -0.633,2.65 2.414,0.1 5.028,1.35 4.696,4.26 0.988,-1.25 14.781,-8.6 13.66,-10.83 z m -47.129,44.51 c -0.754,-0.94 -2.332,-2.93 -2.332,-2.93 -14.203,16.21 -62.133,34.82 -82.844,31.78 0,0 0.254,2.4 0.387,3.7 l -0.149,-0.08 7.872,5.01 -6.731,5.57 c 0.067,0.78 -4.305,28.05 -4.305,28.05 l 11.872,0.36 c 0,0 -4.239,-4.98 -4.422,-8.91 0.672,-0.47 1.242,-1.14 1.64,-1.97 2.375,1.01 4.922,5.93 4.922,5.93 l 1.129,-16.12 c 0,0 -3.301,4.65 -5.699,5.48 -0.184,-0.59 -0.442,-1.14 -0.863,-1.59 3.429,-10.7 19.054,-11.33 19.074,-2.16 -0.535,4.76 -5.793,3.97 -5.504,-1.05 -8.559,6.8 3.012,17.64 7.769,6.72 -0.609,6.29 -0.074,9.85 4.809,12.95 3.223,-4.08 2.773,-7.91 -0.723,-14.01 10.508,9.75 14.52,-6.79 4.653,-9.23 4.816,8.7 -9.043,5.96 -3.953,-3.15 4.656,-7.1 15.945,-6.06 19.906,1.66 -0.281,0.47 -0.485,0.97 -0.59,1.49 -3.934,0.75 -9.809,-2.6 -9.809,-2.6 l 5.477,14.86 c 0,0 2.273,-6.36 5.57,-8.34 0.594,0.56 1.348,0.95 2.164,1.15 0.629,3.91 -3.32,10.05 -3.32,10.05 l 18.246,-7.04 c 0,0 -7.215,-1.83 -9.527,-5.1 0.453,-0.68 0.73,-1.47 0.761,-2.27 3.801,-0.76 9.957,2.35 9.957,2.35 l -6.539,-14.46 c 0,0 -1.898,6.36 -5.293,8.43 -0.445,-0.31 -0.941,-0.54 -1.476,-0.68 -2.598,-8.39 4.996,-16.53 13.301,-14.48 10.054,3.08 2.074,14.51 -0.653,4.92 -5.437,8.41 9.203,17.66 9.91,3.61 1.778,6.77 4.165,9.85 9.391,10.66 1.356,-5.5 -0.777,-8.45 -5.668,-12.61 11.285,4.76 11.805,-10.9 0.891,-10.07 3.793,3.51 0.449,7.53 -3.258,4.43 -6.52,-6.81 5.676,-16.54 15.219,-11.69 -0.024,0.61 0.148,1.2 0.418,1.73 -2.371,1.66 -7.989,1.83 -7.989,1.83 l 11.692,8.67 c 0,0 -1.391,-5.25 -0.278,-7.99 0.86,0.14 1.747,0.04 2.563,-0.29 2.508,2.53 2.656,9.32 2.656,9.32 l 8.723,-10.87 c 0,0 -21.902,-10.09 -25.774,-13.02 l -6.093,0.6 3.007,-8.57 z m -64.422,79.15 c 3.641,-1.3 7.094,-3.22 10.785,0.44 -3.543,0.01 -4.621,2.49 -5.64,4.86 -1.723,12.07 17.972,7.81 25.304,6.95 18.477,-11.24 49.907,-4.08 38.985,22.65 8.547,-5.28 5.609,-19.93 -0.879,-25.64 -17.078,-9.24 -33.258,-2.29 -50.309,-20.36 -2.597,8.26 -12.41,7.8 -15.929,-1.3 -3.25,-0.22 -4.094,-0.17 -7.192,-0.37 -0.566,4.8 3.32,8.25 4.875,12.77 z m 45.637,46.37 c -5.465,-3.74 -10.367,-9.26 -15.934,-1.78 -1.289,-0.26 -2.351,-0.47 -3.672,-0.73 8.25,12.78 7.571,10.58 19.606,2.51 z m 18.586,29.22 c 4.058,-4.51 5.832,-9.39 5.828,-14.93 -3.91,1.36 -5.613,5.63 -5.828,14.93 z m -170.11,-72.44 20.653,7.36 7.558,-15.25 -14.332,-9.12 z m -13.273,3.61 c -2.629,-15.77 -38.008,-8.96 -34.594,6.66 2.629,15.76 38.004,8.96 34.594,-6.66 z M 623,2299.43 600.918,2315 l 22.113,15.61 22.082,-15.57 z m -50.648,-1.93 c -22.414,-4.54 -27.164,20.13 -4.664,24.23 22.414,4.54 27.164,-20.13 4.664,-24.23 z m -46.782,-11.83 -14.332,9.12 7.563,15.25 20.648,-7.36 z m 272.219,49.56 c 1.774,0.19 3.238,0.35 5.223,0.56 -3.426,2.49 -0.074,5.91 2.761,3.48 6.793,-5.27 -6.82,-13.89 -7.984,-4.04 z m 136.891,-176.91 -1.907,0.23 -5.054,13.74 c 2.367,3.04 3.644,7.91 -0.09,10.38 -4.941,1.95 -18.871,17.88 -23,7.57 -1.777,-0.63 -12.809,-1.27 -13.668,-3.32 -5.297,8.38 -9.773,17.28 -13.07,27.18 2.144,11.5 32.578,25.83 32.578,25.83 0,0 -8.645,12.43 -12.094,19.43 -1.531,-3.42 -2.934,-1.96 -6.266,-3.48 16.907,30.03 20.496,69.55 -1.871,97.92 -2.293,4.92 -1.238,11.41 -3.488,16.24 -3.879,5.11 -6.559,15.19 -13.414,16.26 -0.031,-8.92 -0.949,-17.65 3.359,-25.92 4.59,-5.76 -6.257,-10.64 -9.636,-6.09 6.476,0.75 7.574,2.04 5.336,5.7 -27.922,6.26 -43.528,-13.35 -70.165,-16.43 -2.343,0.02 -4.437,-0.81 -5.757,-2.96 -16.41,-22.11 20.418,-7.01 23.625,-21.67 -6.149,-5.08 -7,-1.74 -12.762,-0.27 -8.297,-0.31 -16.336,-2.91 -5.988,-9.92 -6.317,-9.92 -6.008,-13.42 -18.856,-14.26 5.571,-7.87 4.371,-19.24 5.828,-28.16 -9.152,-1.72 -15.375,-6.13 -15.558,-15.91 -4.121,-0.92 -8.563,1.23 -11.492,-3.21 -5.762,4.77 -12.379,5.64 -19.286,5.75 -3.332,2.49 -11.504,8.37 -20.277,12.87 1.734,6.49 3.383,12.57 4.945,18.26 2.571,1.64 11.793,7.51 14.188,9.03 -1.235,2.49 -6.102,12.31 -7.422,14.98 16.449,56.61 21.793,59.77 30.117,61 l 0.449,1.57 -30.441,9.75 -0.531,-1.99 c 7.683,-5.58 10.183,-14.85 6.683,-25.7 -8.132,3.51 -12.765,11.21 -11.886,18.09 -0.157,0.05 -2.012,0.58 -2.012,0.58 l -10.188,-33.81 c 0,0 1.469,-0.44 1.625,-0.49 4.004,5.79 10.981,9.04 19.047,7.7 -9.406,-29.97 -51.785,-20.62 -44.199,4.82 5.398,10.49 15.652,3.76 10.715,-7.23 23.773,8.33 9.75,42.54 -10.586,22.14 6.723,13.77 10.543,24.58 2.102,37.9 -10.95,-7.04 -13.75,-19.77 -11.653,-36.74 -13.414,30.69 -36.824,-0.93 -17.793,-16.91 -3.465,22.77 24.645,7.72 5.625,-10.63 -18.133,-12.84 -40.429,1.91 -41.074,24.56 10.469,-0.93 18.469,-7.15 19.547,-14.91 0.183,-0.01 1.922,-0.07 1.922,-0.07 l 1.301,38.66 c 0,0 -2.188,0.1 -2.375,0.1 -1.629,-7.82 -10.129,-14.46 -20.891,-14.66 0.734,11.92 7.566,21.21 16.41,22.73 0,0.21 0,2.21 0,2.21 h -44.605 c 0,0 0,-2 0,-2.21 8.843,-1.52 15.675,-10.81 16.41,-22.73 -10.762,0.2 -19.262,6.84 -20.891,14.66 -0.187,0 -2.375,-0.1 -2.375,-0.1 l 1.301,-38.66 c 0,0 1.738,0.06 1.922,0.07 1.078,7.76 9.078,13.98 19.547,14.91 -0.629,-22.64 -22.953,-37.41 -41.078,-24.56 -19.012,18.36 9.093,33.39 5.628,10.63 19.043,16.03 -4.406,47.58 -17.793,16.91 2.098,16.97 -0.703,29.7 -11.652,36.74 -8.441,-13.32 -4.617,-24.13 2.102,-37.9 -20.368,20.41 -34.332,-13.85 -10.586,-22.14 -4.938,10.99 5.312,17.72 10.711,7.23 7.59,-25.46 -34.805,-34.77 -44.196,-4.82 8.071,1.34 15.043,-1.91 19.047,-7.7 0.156,0.05 1.625,0.49 1.625,0.49 l -10.187,33.81 c 0,0 -1.856,-0.53 -2.012,-0.58 0.879,-6.88 -3.754,-14.58 -11.887,-18.09 -3.5,10.85 -1,20.12 6.684,25.7 l -0.531,1.99 -30.442,-9.75 0.449,-1.57 c 8.325,-1.23 13.668,-4.39 30.118,-61 -1.348,-2.73 -6.164,-12.44 -7.422,-14.98 2.344,-1.49 11.672,-7.43 14.187,-9.03 1.426,-5.19 2.922,-10.71 4.492,-16.56 0.059,0.03 0.122,0.05 0.18,0.09 -0.07,-0.21 -0.133,-0.27 -0.18,-0.09 -40.96,-19.15 -31.675,-32.16 -63.187,-28.42 -2.824,-6.52 -5.461,-12.98 -11.871,-17.41 -1.188,9.99 -5.641,17.74 -11.512,24.81 -2.91,3.39 -6.894,-0.36 -11.242,-0.7 -8.547,-18.64 -14.457,-1.8 -29.523,-11.55 0.593,-8.69 1.91,-17.33 6.679,-25.35 -11.207,0.79 -20.457,3.82 -27.863,9.08 -33.496,-37.42 -68.469,-73.35 -97.117,-114.51 -15.293,-20.21 -56.203,-8.46 -45.41,19.39 4.949,20.33 34.316,16 32.457,-4.17 14.515,16.13 5.187,32.19 -16.993,28.6 20.36,8.8 32.575,-7.86 50.93,15.04 -14.016,-0.34 -25.91,4.11 -39.879,0.88 17.688,10.59 41.981,-5.13 57.082,24.1 -13.16,-1.41 -25.058,-6.91 -38.676,-8.93 81.727,77.91 3.094,81.76 13.09,115.44 -6.386,-5.42 -10.066,-10.85 -7.113,-18.12 -18.305,7.64 -45.445,5.39 -52.859,27.64 -1.793,-31.68 12.125,-29.41 36.039,-35.93 -11.039,1.32 -21.934,1.4 -32.27,5.22 2.133,-14.2 12.906,-17.22 25.582,-15.86 -12.406,-6.89 -9.586,-24.56 3.039,-30.63 -8.054,45.82 60.563,30.11 29.227,-11.98 -14.547,-21.68 -35.594,-37.8 -53.281,-56.74 -3.336,5.76 -6.817,11.55 -14.543,10.73 13.472,-15.55 -1.735,-32.46 -5.301,-48.51 -5.203,-19.83 12.312,-36.71 31.09,-39.03 -7.481,-8.86 -8.082,-16.75 -2.321,-24 5.657,29.13 47.899,22.56 51.883,54.08 0.719,3.71 2.492,6.61 6.637,8.31 -19.035,-21.52 26.738,-67.09 -16.266,-72.41 -6.136,-0.17 -7.664,-6.63 -4.25,-11.22 -17.773,0.89 -22.676,-5.87 -25.386,-22.61 7.839,2.03 15.121,3.91 22.484,5.81 -7.738,-20.27 -25.297,1.18 -22.406,-34.88 7.175,3.44 13.922,7.08 20.496,11.15 6.347,-20.24 -32.199,-11.49 -3.262,-43.8 1.844,6.03 9.57,18.39 13.512,21.14 -3.574,-10.17 -2.723,-21.94 8.687,-26.5 0.532,2.71 1.004,5.11 1.477,7.51 0.519,0.01 0.43,0.01 0.953,0.02 1.637,-6.71 1.875,-16.11 8.391,-19.98 2.156,-0.86 3.32,-2.05 4.035,-4.32 1.187,-3.75 4.672,-4.75 8.062,-5.2 4.262,-0.88 5.34,3.95 8.473,5.9 0.894,-5.33 7.195,-6.18 10.285,-10.72 2.375,26.28 -32.488,16.74 -24.496,34.11 3.086,-10.59 12.98,-8.28 19.891,-12.62 2.675,-4.4 9.211,-8.04 12.546,-1.93 3.25,-2.44 6.188,-4.64 9.051,-6.79 -6.804,31.22 -22.988,11.91 -33.179,28.3 7.097,-0.32 14.683,-10.85 22.343,-3.66 4.125,-4.24 7.309,-9.22 10.418,-14.23 1.254,9.98 -2.468,17.59 -10.324,23.14 -8.859,5.43 -20.887,-4.21 -28.461,6.62 -10.351,12.78 -10.055,30.71 -4.668,45.5 4.942,11.37 18.715,15.62 25.07,26.4 -1.769,-9.52 -0.878,-26.07 9.899,-29.15 -2.617,17.67 9.945,33.59 12.488,50.67 3.278,4.31 3.438,7.68 0.469,12.34 -5.348,8.77 -6.813,19.34 -12.731,27.98 -9.171,12.86 -20.472,13.22 -1.765,26.78 -11.36,-17.63 -2.086,-11.21 7.715,-27.82 1.812,5.6 10.168,12.9 -0.278,12.87 -16.488,8.09 21.461,29.13 30.032,29.67 8.453,0.66 20.316,-0.29 26.722,8.07 -4.008,7.61 -7.898,8.69 -1.074,16.6 -4.609,2.69 -8.676,5.9 -9.473,11.96 -4.39,-1.53 -8.261,-2.88 -12.816,-4.46 4.148,4.7 16.352,14.18 17.676,3.67 0.285,-5.9 6.144,-6.96 10.703,-8.43 -3.324,-4.84 -8.856,-9.71 -3.817,-15.37 3.524,-3.7 5.715,-10.67 11.133,-11.58 1.469,5.48 2.875,10.74 4.324,16.15 12.004,-12.59 -12.054,-19.61 20.922,-30.92 -1.203,6.81 -2.273,13.38 -1.39,20.42 15.894,-13.28 -6.836,-21.61 29.769,-25.95 -4.078,4.84 -5.019,10.2 -6.523,15.61 6.105,-1 11.043,-6.84 14.988,-11.23 3.77,-5.73 6.547,-8.87 15.16,-3.27 0.387,-1 0.481,-2.38 1.211,-2.94 3.867,-2.94 2.317,-6.51 2.235,-10.43 h 1.058 c 5.09,5.14 5.449,11.03 3.863,17.47 -3.535,12.12 -18.332,2.47 -23.515,14.85 6.984,-4.76 13.937,-7.54 21.625,-3.56 4.293,-4.04 6.09,-7 8.168,-12.73 3.512,13.06 -0.528,26.39 -14.321,22.47 -4.289,-1.53 -6.05,-1.18 -10.363,2.56 6.406,-2.22 10.637,1.06 14.723,3.99 0.887,-1.14 1.406,-2.44 2.004,-2.48 3.879,-0.22 6.398,-2.56 8.785,-5.42 1.293,11.17 -9.813,20.2 -20.992,17.36 -2.789,-13.69 -14.289,-5.94 -23.403,-4.12 -14.16,8.29 -21.597,24.16 -34.121,34.51 1.25,15.36 -11.535,27.59 -26.91,26.7 13.86,6.05 30.305,-5.86 31.383,-20.32 0.519,-5.91 4.129,-9.64 7.871,-14.06 46.824,94.17 197.973,118.79 284.758,59.02 h -0.008 c 7.391,-6.77 15.43,-12.3 23.094,-19.43 2.988,8.99 1.215,19.69 14.629,14.24 l 2.511,1.7 c -2.738,7.6 2.946,16.2 10.918,16.76 v -5.93 c -3.492,-0.57 -6.203,-3.96 -5.64,-7.59 2.672,0.57 5.109,-2.95 3.656,-5.26 2.504,-1.42 6.043,-0.84 7.98,1.2 2.231,-0.11 4.454,-0.33 6.676,-0.55 -3.054,-7.26 -13.648,-9.73 -19.605,-4.41 l -0.024,-0.02 c 1.149,-1.58 -3.992,-17.58 -4.211,-19.48 -0.605,-2.34 -2.781,-3.87 -5.105,-3.76 0.953,-1.57 1.742,-2.86 2.605,-4.28 3.797,2.12 9.106,1.99 8.614,7.37 0.718,3.05 -1.246,17.11 3.117,15.86 1.769,-5.33 -1.567,-11.51 2.391,-16.77 12.519,3.09 7.027,14.43 22.214,17.39 6.036,0.54 18.743,3.46 21.996,-2.56 -13.265,3.56 -30.406,-0.09 -33.312,-15.24 -13.809,-3.26 -25.398,-13.11 -40.094,-13.1 -11.676,-0.64 -14.812,-14.66 -15.308,-24.27 -1.942,-11.03 -2.539,-22.47 -7.454,-32.7 -2.41,-3.91 -0.386,-8.4 0.934,-12.03 4.477,-2.35 7.664,-17.87 8.305,-23.41 -0.028,-10.12 17.324,-13.5 24.386,-19.8 1.965,12.68 -22.05,9.08 -18.679,26.79 4.269,-11.72 13.594,-14.14 23.812,-19.91 -3.195,11.87 -4.16,31.61 -20.715,29.13 -6.39,8.88 2.954,9.38 -0.054,19.96 4.75,-1.48 7.004,-3.13 8.265,-6.09 -1.476,0.48 -2.765,0.89 -4.8,1.54 0.554,-7.51 7.054,-9.28 12.058,-14.44 -0.84,12.29 -1.937,20.06 -13.371,26.05 -6.484,5.94 0.992,19.59 0.559,27.79 -0.211,2.42 15.3,10.14 17.672,9.45 11.496,-1.5 23.543,0.34 34.668,-2.56 11.093,-3.5 1.57,20.6 19.5,7.92 -12.989,3.82 -5.079,-10.35 -14.457,-11.08 -6.551,-0.07 -12.118,0.56 -18.942,0.79 23.567,-52.45 75.84,-37.08 90.219,-83.89 12.027,10.62 3.844,10.44 0.48,21.55 27.16,-18.11 -25.285,-39.09 -5.59,-70.81 -1.246,3.56 11.083,18.43 12.485,21.46 2.246,3.33 6.058,3.55 8.523,1.12 l 3.922,8.16 c -7.305,4 5.914,21.15 6.883,26.03 1.371,2.94 4.477,4.33 6.93,3.11 l 3.652,10.17 c -6.906,1.86 -1.73,18.63 -2.277,23.3 -9.711,8.77 -17.672,19.78 -25.203,29.96 l 4.652,0.8 c -0.527,-2.3 0.301,-4.8 2.25,-6.14 3.34,-1.32 16.109,-13.64 20.121,-10.71 l 2.004,-5.45 c -3.227,-0.87 -3.793,-5.41 -3.824,-8.46 1.718,-1.45 3.57,-2.81 5.246,-4.32 0.242,1.09 0.058,6.08 1.047,6.82 1.511,-2 4.277,-2.01 5.949,-0.41 1.566,-0.82 -0.391,-11.65 -0.199,-13.02 1.875,-2.04 3.66,-4.15 5.343,-6.35 -0.703,4.98 5.411,23.99 -3.054,24.92"
         style="fill:#ffffff;fill-opacity:1;fill-rule:nonzero;stroke:none"
         id="path14" />
      <path
         d="m 769.324,2238.18 c -0.98,1.16 -1.219,2.84 -0.359,4.08 -1.551,0.32 -4.145,-14.12 -4.672,-14.94 1.043,-1.02 1.973,-1.99 2.836,-3 1.344,-0.39 3.648,-1.18 4.125,0.8 l 3.289,12.74 c -1.531,-1.39 -3.992,-1.52 -5.219,0.32"
         style="fill:#ffffff;fill-opacity:1;fill-rule:nonzero;stroke:none"
         id="path16" />
      <path
         d="m 576.449,1877.39 c -36.226,14.35 -62.578,-20.75 -32.992,-26.68 -32.461,-1.41 -26.195,44.28 -39.594,41.57 11.746,-12.65 11.739,-36.23 22.559,-42.75 21.82,-9.27 44.5,-10.79 67.871,-9.7 -11.77,10.44 -14.633,23.61 -17.844,37.56"
         style="fill:#ffffff;fill-opacity:1;fill-rule:nonzero;stroke:none"
         id="path18" />
      <path
         d="m 687.113,1851.21 c 29.524,5.86 3.367,41.02 -32.992,26.68 -3.211,-13.96 -6.074,-27.12 -17.84,-37.57 23.367,-1.09 46.051,0.43 67.867,9.7 10.825,6.52 10.813,30.1 22.559,42.75 -13.394,2.71 -7.133,-42.97 -39.594,-41.56"
         style="fill:#ffffff;fill-opacity:1;fill-rule:nonzero;stroke:none"
         id="path20" />
      <path
         d="m 924.656,2134.6 c -0.058,-0.71 0.215,-1.35 0.641,-1.8 1.652,1.4 4.238,0.82 5.433,-0.85 1.895,0.54 1.27,6.4 1.661,7.8 -2.145,2.32 -4.411,4.53 -6.797,6.61 l -0.938,-11.76"
         style="fill:#ffffff;fill-opacity:1;fill-rule:nonzero;stroke:none"
         id="path22" />
      <path
         d="m 915.551,2091.13 c 0.191,1.67 9.324,16.77 6.933,18.1 -1.64,-0.33 -3.558,0.57 -4.246,2.14 -2.226,0.92 -8.019,-15.53 -9.023,-16.56 2.914,1.79 6.594,-1.18 5.609,-4.54 0.289,0.22 0.555,0.49 0.727,0.86"
         style="fill:#ffffff;fill-opacity:1;fill-rule:nonzero;stroke:none"
         id="path24" />
      <path
         d="m 1019.16,2160.74 c -7.59,-2.31 -10.71,-8.62 -13.56,-15.78 -19.057,29.73 -55.287,50.24 -60.803,86.59 4.266,29.08 42.785,22.43 34.969,-7.87 19.976,10.75 10.316,30.73 -8.496,34.26 20.453,-1.64 31.63,-18.92 45.61,9.81 -12.1,-4.39 -30.528,-1.27 -36.872,-0.33 25.462,3.45 39.312,3.21 38.532,34.83 -8.67,-18.94 -32.685,-19.3 -50.142,-25.43 1.122,8.4 -1.507,13.56 -8.281,16.29 6.918,-46.21 -80.699,-31.15 15.582,-130.86 -11.812,6.51 -25.547,4.32 -36.992,11.58 8.91,-24.01 23.961,-19.87 43.66,-28.22 -21.14,0.11 -27.695,-20.51 -12.043,-30.41 -4.082,15.93 17.793,26.89 28.735,14.44 25.001,-32.1 -20.746,-76.7 -61.325,3.76 0.289,-4.45 -2.812,-8.44 -7.132,-7.09 l -4.571,-12.73 c 9.285,-3.45 -4.972,-21.38 -5.953,-26.55 -1.617,-3.45 -5.223,-4.48 -7.933,-2.6 l -4.485,-9.32 c 5.629,-5.15 -9.484,-19.77 -11.195,-24.31 -1.754,-2.62 -4.891,-3.51 -7.117,-2.12 l -1.621,-3.38 c 0.336,-0.43 0.562,-0.69 0.609,-0.67 10.254,-12.14 14.957,-21.49 12.199,-34.39 8.32,7.14 12.039,26.92 5.379,37.7 7.527,-7.87 18.469,-13.48 22.777,-23.51 4.336,-18.25 1,-36.36 -11.382,-50.75 -5.254,-5.3 -3.856,-8.07 -4.524,-14.55 -3.496,-10.29 -15.808,-11.14 -20.445,-19.86 -3.262,-7.63 -8.641,-13.88 -10.977,-21.89 13.965,2.19 11.575,21.67 24.793,25.63 -5.363,-8.17 -10.558,-15.61 -14.226,-25.09 11.031,2.87 31.871,5.85 28.386,21.43 -2.621,7.19 4.348,11.91 4,18.77 8.743,3.14 6.715,6.67 10.899,13.49 1.937,-4.13 2.031,-7.61 1.793,-12.09 -1.078,2.24 -1.75,3.63 -2.528,5.24 -6.171,-8.4 -1.015,-16.56 -1.882,-25.54 30.465,27.3 -10.004,27.1 21.625,87.59 7.273,12.05 -20.688,10.69 -22.77,37.91 -1.957,11.77 8.375,21.41 10.574,32.64 12.184,-21.67 54.743,-20.93 48.922,-48.61 8.559,6.46 8.192,18.3 4.821,27.17 43.9,15.81 9.26,56.2 23.39,84.82"
         style="fill:#ffffff;fill-opacity:1;fill-rule:nonzero;stroke:none"
         id="path26" />
      <path
         d="m 888.465,2056.71 c 0.98,-0.41 1.832,-1.1 2.187,-2.14 0.703,-0.11 1.489,0.25 1.977,0.98 0.34,1.04 11.16,15.22 9.93,16.21 -1.207,0.38 -2.305,1.2 -2.672,2.48 -1.028,0.98 -2.532,1.46 -3.543,-0.06 -0.403,-1.8 -12.453,-15.41 -9.36,-17.14 0.504,0.01 1.012,-0.09 1.481,-0.33"
         style="fill:#ffffff;fill-opacity:1;fill-rule:nonzero;stroke:none"
         id="path28" />
      <path
         d="m 882.137,2053.91 c 0.179,-0.31 0.363,-0.62 0.547,-0.93 l 0.187,0.39 -0.734,0.54"
         style="fill:#ffffff;fill-opacity:1;fill-rule:nonzero;stroke:none"
         id="path30" />
      <path
         d="m 457.273,1992.39 c 4.395,-0.8 9.274,-1.65 13.528,0.28 -6.629,11.28 -13.149,22.38 -19.922,33.91 -11.801,-14.52 -32.266,-5.66 -45.129,3.26 -10.477,7.73 12.145,19.74 4.875,45.48 10.074,-16.24 -8.227,-30.29 20.035,-39.39 -8.176,12.16 -7.066,27.83 -10.137,41.74 -0.367,2.4 -1.543,4.79 0.387,7.2 0.953,3.33 1.18,7.84 -3.355,8.33 -31.582,18.13 -25.219,9.33 -55.961,13.54 -7.528,-13.33 8.496,-25.21 5.961,-38.25 -2.258,-6.39 7.422,-6.12 7.316,-12.34 2.152,-9.71 1.09,-23.32 -9.992,-27.06 -5.508,-3.33 -1.094,-10.36 3.715,-12 -9.789,-17.66 -2.285,-20.48 12.683,-29.31 0.09,6.81 0.211,12.76 3.032,18.54 20.656,-13.71 -10.125,-16 30.828,-32.61 -4.149,6.85 -4.043,14.31 -4.66,21.17 3.859,-0.91 7.636,-1.8 11.496,-2.71 4.433,-18.95 14.687,-20.61 32.765,-18.94 -6.457,6.43 -8.297,14.8 -12.992,21.47 5.442,-1.84 10.856,1.89 15.527,-2.31"
         style="fill:#ffffff;fill-opacity:1;fill-rule:nonzero;stroke:none"
         id="path32" />
      <path
         d="m 826.121,2097.96 c -5.613,-0.9 -6.879,-3.26 -5.859,-8.72 -6.246,-13.48 -6.414,-29.87 -17.071,-41.26 22.95,6.48 17.868,15.17 23.446,32.61 -1.137,-23.66 0.093,-23.35 8.668,-39.54 -17.7,-12.44 -46.602,-2.01 -56.297,-26.15 2.695,-3.09 6.164,0.05 9.754,-0.79 -2.317,-2.79 -3.242,-6.08 -6.926,-8.51 0.797,2.33 1.297,3.78 1.789,5.22 -6.625,2.22 -12.066,-12.93 -17,-17.81 47.246,9.51 -5.719,23.37 87.43,34.23 16.461,7.75 -15.571,19.89 16.75,40.35 2.879,11.17 4.617,22.7 10.683,32.79 1.446,3.31 -0.832,7.98 -3.871,10.3 -14.164,-9.98 -20.89,6.12 -51.496,-12.72"
         style="fill:#ffffff;fill-opacity:1;fill-rule:nonzero;stroke:none"
         id="path34" />
      <path
         d="m 349.016,2292.22 c 0.203,3.14 0.402,6.15 0.621,9.49 -3.547,0.61 -6.824,1.18 -10.481,1.82 4.289,3.23 9.481,4.02 13.688,2.4 -3.614,-15.27 2.851,-26.01 19.156,-26.85 4.984,7.42 9.449,8.55 14.301,3.31 -21.539,2.22 -5.551,-20.53 5.445,-12.83 2.926,4.23 12.219,7.94 9.531,13.9 -17.089,12.49 -15.898,-5.94 -19.078,24.89 -0.707,0.06 -1.5,0.13 -2.172,0.19 -1.597,-5.86 -7.351,-10.39 -12.062,-4.86 -1.633,1.85 -3.059,3.55 -5.735,4.02 11.7,9.34 25.598,-4.13 24.758,17.81 13.032,-16.33 14.172,1.81 27.067,2.08 -0.598,-12.94 -3.262,-11.95 -14.403,-11.21 3.629,-2.78 17.539,-16.64 9.434,-17.95 -3.387,8.67 -9.066,17.11 -18.688,18.84 -7.757,-7.75 -3.96,-16.44 -2.742,-25.38 6.895,2.34 12.785,6.81 20.078,6.24 2.434,-7.13 -9.019,-11.08 -2.523,-18.15 11.113,-1.8 23.187,-1.87 19.644,13.86 -3.621,2.16 -7.214,3.64 -10.972,-0.34 0.199,6.11 6.176,7.16 10.836,6 10.265,10.93 6.84,25.37 -4.18,34.15 2.91,4.28 5.981,7.25 11.281,8.3 -1.793,-3.7 -5.539,-5.06 -6.382,-8.43 2.453,-3 4.742,-5.82 7,-8.59 5.921,2.61 7.449,11.87 3.253,21.34 -7.289,-1.89 -20.117,-7.94 -20.117,-7.94 -6.273,2.39 -3.582,-0.7 -2.676,-3.74 -20.078,-3.68 -39.769,-8.95 -55.71,-22.27 -2.856,-2.08 -4.165,-0.82 -5.102,3.23 -1.902,2.92 -2.777,-2.11 -3.043,-3.35 0,0 -12.059,-2.94 -17.316,-7.43 3.718,-6.12 8.949,-15.77 17.289,-12.55"
         style="fill:#ffffff;fill-opacity:1;fill-rule:nonzero;stroke:none"
         id="path36" />
      <path
         d="m 427.773,2298.29 c 1.844,-9.08 -0.726,-16.66 -6.683,-23.79 8.933,-15.96 24.043,-28.07 30.726,-45.34 14.911,27.85 -1.011,37.21 -21.515,52.46 13.156,-4.73 26.429,-9.23 33.738,-21.76 1.559,23.89 -9.023,35.82 -32.207,39.5 0.07,0.32 0.145,0.65 0.215,0.97 9.668,0.45 19.269,0.43 28.316,-5.47 -2.386,7.4 -8.394,18.35 -17.152,17.41 3.141,6.57 3.102,10.93 -0.07,14.89 -1.489,-4.6 -4.403,-7.46 -9.149,-7.63 1.024,-8.27 -1.711,-15.14 -6.219,-21.24"
         style="fill:#ffffff;fill-opacity:1;fill-rule:nonzero;stroke:none"
         id="path38" />
      <path
         d="m 354,2243.87 c 2.746,-6.67 6.855,-14.42 13.648,-17.21 -3.507,13.16 5.387,24.63 9.524,36.53 0.078,-27.42 -15.512,-42.3 22.101,-52.38 -10.019,16.14 -3.386,35.74 -9.726,52.32 -6.047,3.47 -12.871,4.34 -16.961,9.41 -1.125,2.39 -3.18,3.27 -5.352,3.74 -7.066,1.54 -13.597,3.88 -17.14,9.76 -5.164,-1.62 -8.301,-1.42 -13.039,0.56 -0.418,-5.85 4.566,-11.74 11.133,-9.5 -5.262,-7.67 -2.34,-14.55 -0.418,-22.47 3.761,7.9 9.523,12.66 15.968,16.67 -4.933,-8.42 -13.726,-16.9 -9.738,-27.43"
         style="fill:#ffffff;fill-opacity:1;fill-rule:nonzero;stroke:none"
         id="path40" />
      <path
         d="m 505.066,1963.79 c 5.09,4.73 -1.828,7.49 -4.539,11.14 -45.39,42.25 -62.304,97.14 -58.328,158.12 -1.097,0.56 -2.469,1.24 -4.719,2.36 -7.609,-64.66 17.344,-129.9 67.586,-171.62"
         style="fill:#ffffff;fill-opacity:1;fill-rule:nonzero;stroke:none"
         id="path42" />
      <path
         d="m 910.336,2315.21 c -4.305,-8.32 8.144,-11.77 8.301,-19.64 -3.289,2.61 -6.094,4.84 -9.242,7.34 -3.961,-15.41 14.234,-20.35 19.832,-32.48 7.32,22.45 3.347,36.09 -18.891,44.78"
         style="fill:#ffffff;fill-opacity:1;fill-rule:nonzero;stroke:none"
         id="path44" />
      <path
         d="m 411.621,2248.95 c -12.027,-0.73 -10.269,14.38 -13.793,22.83 -2.183,-2.47 -4.004,-4.53 -5.953,-6.73 2.48,-8.39 4.969,-16.82 7.613,-25.76 2.008,1.44 3.68,2.63 5.469,3.91 8.391,-5.93 16.07,-1.85 18.836,7.41 2.488,-0.63 4.762,-1.7 6.547,0.11 -3.93,8.13 -7.715,15.95 -11.582,23.95 -2.418,-0.49 -4.676,2.9 -7.539,0.21 2.687,-7.49 12.625,-22.44 0.402,-25.93"
         style="fill:#ffffff;fill-opacity:1;fill-rule:nonzero;stroke:none"
         id="path46" />
      <path
         d="m 908.023,2352.84 c -0.062,-0.33 -0.128,-0.67 -0.191,-1.01 -3.773,0.21 -7.547,0.41 -11.496,0.63 4.219,-13.61 20.019,-7.03 29.961,-13.22 -5.719,10.9 -9.82,21.56 -23.098,23.66 1.422,6.49 -0.324,12.6 -4.355,15.01 0.066,-5.68 -2.301,-9.82 -7.489,-11.97 -2.55,-11.28 9.188,-10.71 16.668,-13.1"
         style="fill:#ffffff;fill-opacity:1;fill-rule:nonzero;stroke:none"
         id="path48" />
      <path
         d="m 904.59,2274.51 c -0.313,-0.06 -0.621,-0.12 -0.934,-0.18 -2.73,-12.01 5.633,-22.55 10.856,-32.79 9.058,16.13 8.703,34.45 -5.809,47.22 -4.437,-8.57 1.738,-16.75 3.93,-24.85 -0.301,-0.12 -0.602,-0.25 -0.906,-0.36 -2.379,3.65 -4.758,7.3 -7.137,10.96"
         style="fill:#ffffff;fill-opacity:1;fill-rule:nonzero;stroke:none"
         id="path50" />
      <path
         d="m 901.246,2342.27 c 5.18,-12.35 13.481,-9.39 18.887,-17.47 -4.551,1.5 -8.5,2.8 -12.445,4.09 -0.258,-13.13 16.281,-14.53 25.437,-19.57 -1.477,21.29 -11.805,29.34 -31.879,32.95"
         style="fill:#ffffff;fill-opacity:1;fill-rule:nonzero;stroke:none"
         id="path52" />
      <path
         d="m 853.578,2364.55 c 5.656,0 13.789,-3.62 18.453,-0.35 0.117,17.94 -21.758,15.56 -34.191,15.94 3.719,-6.71 8.433,-13.34 15.738,-15.59"
         style="fill:#ffffff;fill-opacity:1;fill-rule:nonzero;stroke:none"
         id="path54" />
      <path
         d="m 791.375,2108.88 c -4.668,0.37 -9.062,0.72 -14.148,1.12 0.199,-2.51 0.343,-4.38 0.5,-6.39 2.824,-0.7 5.242,-1.3 7.82,-1.95 0.781,-14.77 -7.359,-15.02 -18.367,-8.84 -3.27,-18.74 26.91,-16.85 24.195,16.06"
         style="fill:#ffffff;fill-opacity:1;fill-rule:nonzero;stroke:none"
         id="path56" />
      <path
         d="m 780.926,2168.67 c -16.668,-20.4 -16.809,-23.37 8.59,-32.14 -0.243,2.32 -0.399,3.82 -0.578,5.57 -4.958,1.47 -9.844,3.3 -14.262,6.3 3.203,3.97 6.187,7.66 9.277,11.49 -0.898,2.6 -1.832,5.31 -3.027,8.78"
         style="fill:#ffffff;fill-opacity:1;fill-rule:nonzero;stroke:none"
         id="path58" />
      <path
         d="m 703.285,2243 c 2.781,0.22 5.238,0.41 7.672,0.61 2.672,9.95 -2.984,11.05 -9.793,16.4 -2.762,-8.26 -10.039,-12.28 -14.176,-19.26 6.688,0.46 10.535,2.62 14.367,7.83 0.684,-1.97 1.301,-3.77 1.93,-5.58"
         style="fill:#ffffff;fill-opacity:1;fill-rule:nonzero;stroke:none"
         id="path60" />
      <path
         d="m 741.633,2197.83 c 2.406,6.55 14.926,22.7 8.176,27.77 -3.102,-1.83 -9.649,-1.06 -9.032,-5.99 -0.043,-7.17 -0.015,-14.35 -0.015,-21.53 0.289,-0.08 0.578,-0.17 0.871,-0.25"
         style="fill:#ffffff;fill-opacity:1;fill-rule:nonzero;stroke:none"
         id="path62" />
      <path
         d="m 866.391,2381.43 c 0.261,0.36 0.519,0.72 0.781,1.08 -7.055,10.06 -10.074,12.12 -22.524,12.18 0.211,-12.17 12.836,-12.2 21.743,-13.26"
         style="fill:#ffffff;fill-opacity:1;fill-rule:nonzero;stroke:none"
         id="path64" />
      <path
         d="m 834.598,2411.57 c -0.485,-8.59 6.715,-13.55 18.672,-12.91 -3.114,8.69 -9.286,13.4 -18.672,12.91"
         style="fill:#ffffff;fill-opacity:1;fill-rule:nonzero;stroke:none"
         id="path66" />
      <path
         d="m 806.602,2322.16 c -9.747,4.54 -17.668,-1.23 -27.446,0.91 2.774,-13.57 18.934,-3.69 27.446,-0.91"
         style="fill:#ffffff;fill-opacity:1;fill-rule:nonzero;stroke:none"
         id="path68" />
      <path
         d="m 825.145,2425.29 c 2.511,-8.66 5.902,-10.51 14.82,-9.24 -2.836,7.11 -7.43,9.97 -14.82,9.24"
         style="fill:#ffffff;fill-opacity:1;fill-rule:nonzero;stroke:none"
         id="path70" />
      <path
         d="m 829.934,2429.77 c -3.45,7.39 -5.243,8.34 -12.532,7.55 3,-7.3 7.352,-10.02 12.532,-7.55"
         style="fill:#ffffff;fill-opacity:1;fill-rule:nonzero;stroke:none"
         id="path72" />
      <path
         d="m 785.398,2189.62 c 2.313,-3.96 4.622,-7.92 6.856,-11.75 8.969,0 1.359,7.48 -0.703,10.69 -1.176,1.25 -3.672,1.25 -5.574,1.82 -0.192,-0.25 -0.387,-0.5 -0.579,-0.76"
         style="fill:#ffffff;fill-opacity:1;fill-rule:nonzero;stroke:none"
         id="path74" />
      <path
         d="m 759.578,2179.27 c 4.57,2.63 9.313,4.67 13.422,7.96 -0.969,1.38 -1.676,2.38 -2.738,3.89 -3.926,-3.87 -13.192,-5.1 -10.684,-11.85"
         style="fill:#ffffff;fill-opacity:1;fill-rule:nonzero;stroke:none"
         id="path76" />
      <path
         d="m 819.078,2441.75 c 1.285,4.7 -5.406,10.93 -10.187,9.02 0.64,-5.18 6.082,-9.73 10.187,-9.02"
         style="fill:#ffffff;fill-opacity:1;fill-rule:nonzero;stroke:none"
         id="path78" />
      <path
         d="m 716.539,2181.27 c 0,0.02 -0.016,0.02 -0.016,0.03 v -0.06 c 0,0.01 0.016,0.03 0.016,0.03"
         style="fill:#ffffff;fill-opacity:1;fill-rule:nonzero;stroke:none"
         id="path80" />
      <path
         d="m 369.469,2361.51 c 2.472,2.31 -1.27,6.1 -3.664,3.74 -2.492,-2.33 1.234,-6.14 3.664,-3.74"
         style="fill:#ffffff;fill-opacity:1;fill-rule:nonzero;stroke:none"
         id="path82" />
      <path
         d="m 372.734,2354.66 c 2.473,2.3 -1.269,6.09 -3.668,3.74 -2.488,-2.33 1.239,-6.15 3.668,-3.74"
         style="fill:#ffffff;fill-opacity:1;fill-rule:nonzero;stroke:none"
         id="path84" />
      <path
         d="m 355.621,2385.54 -0.012,-0.02 -5.921,-0.43 3.089,-7.76 4.164,4.86 c 0.247,-0.14 0.504,-0.26 0.778,-0.33 0.004,-0.05 0.605,-10.33 0.609,-10.38 v 0 c 1.059,-9.08 14.902,-3.49 9.367,3.78 l -6.656,7.92 c 0.152,0.24 0.258,0.5 0.34,0.77 l 6.367,-0.67 -3.09,7.76 -4.597,-3.75 c -0.239,0.14 -0.493,0.25 -0.758,0.33 l -0.531,7.5 c -1.895,-0.76 -5.707,-2.27 -7.602,-3.02 l 4.766,-5.82 c -0.129,-0.24 -0.246,-0.48 -0.313,-0.74"
         style="fill:#ffffff;fill-opacity:1;fill-rule:nonzero;stroke:none"
         id="path86" />
      <path
         d="m 338.684,2344.97 c 3.843,-0.11 3.914,5.89 0.078,5.89 -3.782,0.09 -3.883,-5.9 -0.078,-5.89"
         style="fill:#ffffff;fill-opacity:1;fill-rule:nonzero;stroke:none"
         id="path88" />
      <path
         d="m 338.063,2337.29 c 3.843,-0.11 3.914,5.89 0.078,5.89 -3.778,0.09 -3.883,-5.9 -0.078,-5.89"
         style="fill:#ffffff;fill-opacity:1;fill-rule:nonzero;stroke:none"
         id="path90" />
      <path
         d="m 350.348,2363.55 c 3.843,-0.1 3.914,5.9 0.078,5.9 -3.778,0.09 -3.883,-5.9 -0.078,-5.9"
         style="fill:#ffffff;fill-opacity:1;fill-rule:nonzero;stroke:none"
         id="path92" />
      <path
         d="m 341.121,2351.96 c 3.844,-0.1 3.914,5.9 0.078,5.9 -3.777,0.09 -3.883,-5.9 -0.078,-5.9"
         style="fill:#ffffff;fill-opacity:1;fill-rule:nonzero;stroke:none"
         id="path94" />
      <path
         d="m 376.863,2344.63 c -0.199,2.94 1.942,8.75 1.942,8.75 -2.977,-1.19 -9.071,-3.61 -12.063,-4.8 0,0 5.547,-2.75 7.422,-5.03 -2.543,-0.92 -5.004,-1.33 -8.527,0.28 l 4.687,-9.33 c 1.012,4.13 3.149,6.57 4.746,6.89 5.082,-7.79 -7.55,-16.38 -13.004,-9.71 -1.589,2.79 0.289,5.8 3.539,3.5 -0.484,5.77 -5.5,5.75 -7.015,1.46 0.125,5.93 -1.371,9.52 -7.59,11.27 -1.613,-5.91 0.367,-9.48 6.293,-12.02 -3.371,0.43 -7.02,-2.89 -2.438,-7.04 0.043,3.73 3.165,4.14 4.852,1.62 2.688,-6.92 -5.434,-9.57 -12.102,-2.56 1.485,0.55 3.063,0.32 5.184,-0.16 l -6.363,8.02 c 0.328,-2.83 0.113,-4.86 -0.457,-6.14 -1.364,1.6 -1.805,2.97 -2.383,6.06 l -4.848,-4.26 c 4.629,-2.9 9.821,-7.49 16.2,-16.58 8.441,8.3 42.472,22.53 55.613,22.13 -1.606,10.98 -0.988,17.88 0.383,23.17 l -6.446,-0.24 c 1.703,-2.64 2.321,-3.94 2.43,-6.03 -1.297,0.54 -2.844,1.86 -4.555,4.15 l 0.891,-10.21 c 1.211,1.82 2.199,3.07 3.652,3.69 -0.023,-9.68 -7.754,-13.33 -10.547,-6.46 -0.504,2.99 2.039,4.84 4.637,2.16 0.477,6.16 -4.453,6.06 -6.605,3.44 2.558,5.91 1.547,9.87 -3.688,13.06 -3.32,-5.55 -1.937,-9.18 2.231,-13.41 -4.055,2.08 -7.707,-1.35 -4.094,-5.88 0.773,3.91 4.211,3.01 4.969,-0.11 0.625,-8.6 -14.465,-11.02 -16.118,-1.88 1.379,0.87 4.614,0.56 8.18,-1.75 l -3,10 c -1.457,-3.58 -3.523,-4.97 -6.008,-6.05"
         style="fill:#ffffff;fill-opacity:1;fill-rule:nonzero;stroke:none"
         id="path96" />
      <path
         d="m 536.352,2028.2 c 4.554,-2.65 9.632,-5.57 14.277,-8.21 -11.379,-13.83 9.019,-19.8 7.91,-6.31 7.621,-3.27 37.606,-12.48 25.586,5.44 -39.34,-1.3 -59.379,39.98 -37.629,71.52 13.238,-6.03 59.715,16.58 55.852,-6.43 2.441,-2.57 3.132,-2.8 8.648,-2.76 13.449,30.91 -32.863,21.67 -49.488,18.05 -14.817,-4.38 -28.453,17.28 -41.543,5.42 -5.219,-4.61 -1.82,-14.87 5.254,-15.2 6.269,-0.18 8.051,8.44 2.469,11.13 12.203,4.12 6.332,-15.47 1.917,-20.49 -14,7.23 -16.308,-15.33 -2.46,-9.41 0.613,-4.04 0.789,-8.02 -0.172,-11.89 -15.129,3.26 -11.106,-18.44 0.238,-9.71 3.266,-3.1 4.777,-7.93 5.152,-12.55 -15.16,-2.17 -3.05,-21.62 3.989,-8.6"
         style="fill:#ffffff;fill-opacity:1;fill-rule:nonzero;stroke:none"
         id="path98" />
      <path
         d="m 580.285,2004.62 c -0.633,0.24 -1.289,0.41 -2.117,0.68 -1.059,-2.85 -2.684,-8.04 -0.156,-9.84 l 12.742,-5.46 16.375,12.15 4.426,65.68 -4.828,-0.36 c -1.301,-0.15 -10.215,-75.86 -14.868,-71.43 0.93,5 11.813,71.42 11.813,71.42 0,0 -3.238,0.46 -4.82,0.68 -0.266,-1.53 -0.614,-3.51 -0.614,-3.51 l -18.062,23.73 -2.375,-1.13 19.34,-25.43 -1.243,-4.5 c -1.781,1.15 -20.445,27.06 -22.308,29.47 l -3.805,0.28 25.153,-32.8 -1.336,-4.39 -28.196,37.06 -3.609,0.05 30.527,-40.24 -1.613,-5.8 -33.516,45.59 -4.437,-0.13 37.082,-48.94 -1.356,-4.52 -40.925,53.47 -0.696,-4.1 c 0,0 38.09,-50.1 40.438,-53.38 -1.961,-6.17 -0.457,-6.7 2.222,-11.8 1.469,-5.7 -2.472,-14.59 -9.238,-12.5"
         style="fill:#ffffff;fill-opacity:1;fill-rule:nonzero;stroke:none"
         id="path100" />
      <path
         d="m 584.129,2025.46 -39.172,51.93 c 0,0 -0.754,-2.44 -1.086,-3.52 2.926,-3.82 37.535,-49.75 37.535,-49.75 l 2.723,1.34"
         style="fill:#ffffff;fill-opacity:1;fill-rule:nonzero;stroke:none"
         id="path102" />
      <path
         d="m 544.859,2059.89 c 9.043,-11.47 17.926,-23.17 26.739,-34.76 1.316,-0.16 3.757,-0.68 3.757,-0.68 l -31.949,42.41 c 0,0 -0.558,-4.34 1.453,-6.97"
         style="fill:#ffffff;fill-opacity:1;fill-rule:nonzero;stroke:none"
         id="path104" />
      <path
         d="m 613.148,2079.19 c -4.335,0.35 -8.937,1.21 -13.168,1.62 -8.246,-7.17 1.024,-11.27 7.18,-10.72 5.281,-1.39 12.328,5.59 5.988,9.1"
         style="fill:#ffffff;fill-opacity:1;fill-rule:nonzero;stroke:none"
         id="path106" />
      <path
         d="m 611.828,1893.89 c -1.285,-5.86 7.945,-7.75 9.059,-1.85 1.285,5.86 -7.946,7.74 -9.059,1.85"
         style="fill:#ffffff;fill-opacity:1;fill-rule:nonzero;stroke:none"
         id="path108" />
      <path
         d="m 620.125,1929.1 c 1.594,7.26 -9.852,9.6 -11.23,2.29 -1.594,-7.26 9.851,-9.6 11.23,-2.29"
         style="fill:#ffffff;fill-opacity:1;fill-rule:nonzero;stroke:none"
         id="path110" />
      <path
         d="m 581.035,1948.48 c 1.598,7.27 -9.851,9.61 -11.23,2.3 -1.594,-7.26 9.851,-9.6 11.23,-2.3"
         style="fill:#ffffff;fill-opacity:1;fill-rule:nonzero;stroke:none"
         id="path112" />
      <path
         d="m 649.398,1884.47 c -6.519,-0.66 -9.894,-5.07 -13.335,-9.58 -3.055,1.9 -7.071,3.8 -10.829,3.8 -2.015,0 -3.961,-0.55 -5.636,-1.93 11.949,-4.72 7.664,-22.74 -3.938,-22.81 -11.605,0.07 -15.887,18.09 -3.937,22.81 -1.68,1.38 -3.621,1.93 -5.641,1.93 -3.758,0 -7.773,-1.9 -10.828,-3.8 -3.441,4.51 -6.816,8.92 -13.336,9.58 3.57,-33.07 18.656,-49.6 33.738,-49.6 15.086,0 30.172,16.53 33.742,49.6 z m -5.457,-7.14 c -4.648,-26.21 -17.152,-38.05 -28.285,-38.05 -11.129,0 -23.633,11.84 -28.277,38.05 1.422,-1.3 2.777,-3.03 4.371,-5.11 l 2.434,-3.19 3.402,2.12 c 1.465,0.91 2.883,1.64 4.207,2.16 -1.496,-3.03 -2,-6.61 -1.305,-10.34 1.477,-7.86 7.703,-13.38 15.196,-13.42 7.441,0.04 13.668,5.56 15.144,13.42 0.695,3.73 0.192,7.31 -1.301,10.34 1.321,-0.52 2.739,-1.25 4.203,-2.16 l 3.407,-2.12 2.429,3.19 c 1.594,2.08 2.95,3.81 4.375,5.11"
         style="fill:#ffffff;fill-opacity:1;fill-rule:nonzero;stroke:none"
         id="path114" />
      <path
         d="m 541.539,1971.12 c 4.981,6 -12.531,13.85 -15.094,17.22 -2.07,1.25 -4.679,0.93 -6.062,-0.86 -4.996,-5.72 12.226,-13.71 14.59,-16.89 2.129,-1.64 5.07,-1.41 6.566,0.53"
         style="fill:#ffffff;fill-opacity:1;fill-rule:nonzero;stroke:none"
         id="path116" />
      <path
         d="m 539.305,1958.34 c 19.351,-0.09 16.836,30.62 -2.235,27.36 8.84,-4.79 16.512,-17.43 2.758,-21.11 -5.176,-1.07 -10.484,4.52 -14.293,7.27 0.137,-7.48 6.254,-13.52 13.77,-13.52"
         style="fill:#ffffff;fill-opacity:1;fill-rule:nonzero;stroke:none"
         id="path118" />
      <path
         d="m 511.797,1953.24 c 4.258,-8.1 29.152,-30.1 35.914,-19.7 -12.164,6.15 -32.75,21.32 -24.856,40.59 -17.859,10.96 -2.078,28.47 11.84,13.6 14.832,9.17 31.305,2.61 45.91,-7.54 5.25,11.35 -20.246,19.18 -26.203,22.55 -7.496,2.52 -31.156,-2.84 -39.089,-3.19 -5.379,-0.69 -9.258,-5.51 -8.774,-10.91 1.199,-5.77 1.027,-30.79 5.258,-35.4"
         style="fill:#ffffff;fill-opacity:1;fill-rule:nonzero;stroke:none"
         id="path120" />
      <path
         d="m 731.117,2386.7 11.004,-3.52 c -17.402,36.66 -49.273,64.19 -87.637,74.07 -0.937,-2.56 -1.793,-5.3 -2.57,-8.21 33.699,-8.47 62.133,-31.41 79.203,-62.34"
         style="fill:#ffffff;fill-opacity:1;fill-rule:nonzero;stroke:none"
         id="path122" />
      <path
         d="m 503.938,2383.18 11.003,3.52 c 17.071,30.93 45.504,53.87 79.204,62.34 -0.778,2.91 -1.629,5.65 -2.571,8.21 -38.363,-9.88 -70.234,-37.41 -87.636,-74.07"
         style="fill:#ffffff;fill-opacity:1;fill-rule:nonzero;stroke:none"
         id="path124" />
      <path
         d="m 705.93,2442.5 c 7.867,-0.11 7.867,12.24 0,12.13 -7.867,0.11 -7.867,-12.25 0,-12.13"
         style="fill:#ffffff;fill-opacity:1;fill-rule:nonzero;stroke:none"
         id="path126" />
      <path
         d="m 678.113,2458.34 c 7.867,-0.12 7.867,12.24 0,12.12 -7.863,0.12 -7.863,-12.24 0,-12.12"
         style="fill:#ffffff;fill-opacity:1;fill-rule:nonzero;stroke:none"
         id="path128" />
      <path
         d="m 663.039,2463.81 c 7.863,-0.11 7.863,12.24 -0.004,12.13 -7.863,0.11 -7.863,-12.24 0.004,-12.13"
         style="fill:#ffffff;fill-opacity:1;fill-rule:nonzero;stroke:none"
         id="path130" />
      <path
         d="m 692.449,2451.2 c 7.867,-0.11 7.867,12.24 0,12.13 -7.867,0.11 -7.867,-12.24 0,-12.13"
         style="fill:#ffffff;fill-opacity:1;fill-rule:nonzero;stroke:none"
         id="path132" />
      <path
         d="m 718.371,2432.41 c 7.867,-0.12 7.867,12.24 0,12.12 -7.863,0.12 -7.863,-12.24 0,-12.12"
         style="fill:#ffffff;fill-opacity:1;fill-rule:nonzero;stroke:none"
         id="path134" />
      <path
         d="m 749.824,2386.83 c -0.113,-7.87 12.242,-7.87 12.125,0 0.117,7.87 -12.238,7.87 -12.125,0"
         style="fill:#ffffff;fill-opacity:1;fill-rule:nonzero;stroke:none"
         id="path136" />
      <path
         d="m 742.496,2401.09 c -0.117,-7.87 12.242,-7.87 12.125,0 0.113,7.86 -12.242,7.86 -12.125,0"
         style="fill:#ffffff;fill-opacity:1;fill-rule:nonzero;stroke:none"
         id="path138" />
      <path
         d="m 729.684,2421.04 c 7.867,-0.11 7.867,12.25 0,12.13 -7.864,0.11 -7.868,-12.24 0,-12.13"
         style="fill:#ffffff;fill-opacity:1;fill-rule:nonzero;stroke:none"
         id="path140" />
      <path
         d="m 733.723,2414.59 c -0.118,-7.87 12.242,-7.87 12.125,0 0.117,7.86 -12.243,7.86 -12.125,0"
         style="fill:#ffffff;fill-opacity:1;fill-rule:nonzero;stroke:none"
         id="path142" />
      <path
         d="m 540.129,2442.5 c 7.867,-0.11 7.867,12.24 0,12.13 -7.867,0.11 -7.867,-12.25 0,-12.13"
         style="fill:#ffffff;fill-opacity:1;fill-rule:nonzero;stroke:none"
         id="path144" />
      <path
         d="m 527.688,2432.41 c 7.867,-0.12 7.867,12.24 0,12.12 -7.868,0.12 -7.868,-12.24 0,-12.12"
         style="fill:#ffffff;fill-opacity:1;fill-rule:nonzero;stroke:none"
         id="path146" />
      <path
         d="m 490.172,2380.77 c 7.863,-0.12 7.863,12.24 0,12.12 -7.867,0.12 -7.867,-12.24 0,-12.12"
         style="fill:#ffffff;fill-opacity:1;fill-rule:nonzero;stroke:none"
         id="path148" />
      <path
         d="m 553.609,2451.2 c 7.868,-0.11 7.868,12.24 0,12.13 -7.867,0.11 -7.867,-12.24 0,-12.13"
         style="fill:#ffffff;fill-opacity:1;fill-rule:nonzero;stroke:none"
         id="path150" />
      <path
         d="m 506.273,2408.52 c 7.868,-0.11 7.868,12.25 0,12.13 -7.867,0.12 -7.867,-12.24 0,-12.13"
         style="fill:#ffffff;fill-opacity:1;fill-rule:nonzero;stroke:none"
         id="path152" />
      <path
         d="m 497.5,2395.02 c 7.867,-0.11 7.867,12.25 0,12.13 -7.867,0.12 -7.867,-12.24 0,-12.13"
         style="fill:#ffffff;fill-opacity:1;fill-rule:nonzero;stroke:none"
         id="path154" />
      <path
         d="m 583.02,2463.81 c 7.867,-0.11 7.867,12.24 0,12.13 -7.868,0.11 -7.868,-12.24 0,-12.13"
         style="fill:#ffffff;fill-opacity:1;fill-rule:nonzero;stroke:none"
         id="path156" />
      <path
         d="m 516.371,2421.04 c 7.867,-0.11 7.867,12.25 0,12.13 -7.863,0.11 -7.863,-12.24 0,-12.13"
         style="fill:#ffffff;fill-opacity:1;fill-rule:nonzero;stroke:none"
         id="path158" />
      <path
         d="m 567.945,2458.34 c 7.868,-0.12 7.868,12.24 -0.004,12.12 -7.863,0.12 -7.863,-12.24 0.004,-12.12"
         style="fill:#ffffff;fill-opacity:1;fill-rule:nonzero;stroke:none"
         id="path160" />
      <path
         d="m 633.469,2402.01 h 8.082 c 0.015,25.58 3.699,47.73 10.387,62.37 2.242,4.72 -5.215,8.18 -7.352,3.36 -9.648,-21.12 -11.109,-50.19 -11.117,-65.73"
         style="fill:#ffffff;fill-opacity:1;fill-rule:nonzero;stroke:none"
         id="path162" />
      <path
         d="m 604.508,2402.01 h 8.086 c -0.008,15.54 -1.473,44.61 -11.117,65.73 -2.137,4.81 -9.598,1.37 -7.356,-3.36 6.688,-14.64 10.375,-36.79 10.387,-62.37"
         style="fill:#ffffff;fill-opacity:1;fill-rule:nonzero;stroke:none"
         id="path164" />
      <path
         d="m 623.031,2402.11 c 8.52,-0.12 8.52,13.27 -0.004,13.14 -8.519,0.13 -8.519,-13.26 0.004,-13.14"
         style="fill:#ffffff;fill-opacity:1;fill-rule:nonzero;stroke:none"
         id="path166" />
      <path
         d="m 623.031,2418.57 c 8.52,-0.12 8.52,13.27 -0.004,13.14 -8.519,0.13 -8.519,-13.26 0.004,-13.14"
         style="fill:#ffffff;fill-opacity:1;fill-rule:nonzero;stroke:none"
         id="path168" />
      <path
         d="m 623.031,2435.04 c 8.52,-0.13 8.52,13.26 -0.004,13.14 -8.519,0.12 -8.519,-13.27 0.004,-13.14"
         style="fill:#ffffff;fill-opacity:1;fill-rule:nonzero;stroke:none"
         id="path170" />
      <path
         d="m 618.383,2451.1 c 2.777,1.47 6.519,1.47 9.293,0 9.418,14.51 -18.715,14.5 -9.293,0"
         style="fill:#ffffff;fill-opacity:1;fill-rule:nonzero;stroke:none"
         id="path172" />
      <path
         d="m 628.254,2464.92 c 7.316,13.62 -17.77,13.61 -10.449,0 3.047,1.88 7.402,1.88 10.449,0"
         style="fill:#ffffff;fill-opacity:1;fill-rule:nonzero;stroke:none"
         id="path174" />
      <path
         d="m 619.063,2520.24 c -1.071,-8.4 -5.469,-14.9 -10.93,-15.9 v -2.14 h 10.66 c -0.504,-0.38 -0.945,-0.82 -1.332,-1.32 -19.008,-4.25 -20.957,-33.24 -2.793,-40.07 -7.094,6.85 -1.645,20.01 8.363,19.67 10,0.34 15.453,-12.82 8.36,-19.67 18.172,6.83 16.207,35.83 -2.793,40.07 -0.387,0.5 -0.828,0.94 -1.328,1.32 h 10.656 v 2.14 c -5.461,1 -9.86,7.5 -10.93,15.9 8.402,-1.07 14.899,-5.47 15.906,-10.93 h 2.137 v 29.8 h -2.137 c -1.007,-5.47 -7.504,-9.87 -15.906,-10.94 1.07,8.4 5.469,14.9 10.93,15.91 v 2.14 h -29.793 v -2.14 c 5.461,-1.01 9.859,-7.51 10.93,-15.91 -8.403,1.07 -14.895,5.47 -15.907,10.94 h -2.136 v -29.8 h 2.136 c 1.012,5.46 7.504,9.86 15.907,10.93"
         style="fill:#ffffff;fill-opacity:1;fill-rule:nonzero;stroke:none"
         id="path176" />
      <path
         d="m 882.098,2053.93 0.039,-0.02 c -0.684,1.16 -1.336,2.32 -1.907,3.42 0.165,-1.37 0.79,-2.61 1.868,-3.4"
         style="fill:#ffffff;fill-opacity:1;fill-rule:nonzero;stroke:none"
         id="path178" />
      <path
         d="m 880.574,2031.05 c -0.918,-1.03 -6.894,-18.09 -8.894,-17.42 -0.821,1.38 -2.676,2.26 -4.246,1.8 -0.918,0.44 -1.266,1.71 -0.778,2.8 1.137,1.16 6.696,18.59 9.309,17.38 0.68,-1.62 2.699,-2.68 4.406,-2.22 0.465,-0.6 0.57,-1.52 0.203,-2.34 z m -16.246,-59.45 c 0.551,4.3 -5.015,6.67 -7.246,3.01 0.582,1.63 -1.551,17.98 1.5,17.95 1.277,-0.92 2.949,-1.08 4.305,-0.11 0.926,-0.15 1.664,-1.07 1.664,-2.19 l 0.027,-17.63 c 0,-0.39 -0.105,-0.72 -0.25,-1.03 z m 8.774,-30.73 c -5.207,-30.01 -43.762,-0.29 -16.153,12.38 1.274,-2.89 5.66,-3.02 6.93,-0.07 5.32,-1.57 9.223,-6.49 9.223,-12.31 z m 3.972,100.45 c -8.426,5.27 -13.09,-18.05 -16.222,-22.04 -1.512,-3.42 -0.164,-7.1 2.925,-8.19 l -6.207,-12.91 c -3.34,0.55 -6.238,-1.98 -6.242,-5.87 1.258,-5.01 -3.738,-26.85 5.133,-27.1 v -6.03 c -21.402,-3.84 -18.219,-37.55 3.805,-37.02 21.863,-0.54 25.257,32.87 4.062,36.95 v 5.83 c 3.34,-0.55 6.238,1.98 6.242,5.87 -1.168,4.87 3.379,25.9 -4.449,27 l 4.727,9.82 c 8.039,-4.36 12.73,18.38 15.769,22.26 1.414,3.19 0.317,6.81 -2.472,7.97 l 3.582,7.44 c -1.004,1.32 -3.075,4.4 -5.043,7.68 l -5.61,-11.66"
         style="fill:#ffffff;fill-opacity:1;fill-rule:nonzero;stroke:none"
         id="path180" />
      <path
         d="m 448.172,2079.08 1.879,-7.28 33.441,4.15 -1.621,6.59 c -1.699,0.35 -22.547,-3.49 -22.547,-3.49 0,0 19.805,23.11 19.305,25.86 l -33.746,-3.8 0.719,-5.82 c 1.636,0.23 19.847,2.76 19.847,2.76 0,0 -16.5,-18.62 -17.277,-18.97"
         style="fill:#ffffff;fill-opacity:1;fill-rule:nonzero;stroke:none"
         id="path182" />
      <path
         d="m 461.977,2053.47 c 7.082,12.86 30.699,5.19 20.937,-9.45 -7.34,-12.46 -30.531,-5.43 -20.937,9.45 z m -1.891,-17.29 c 16.16,-15.47 41.602,9.32 24.863,25.23 -16.172,15.64 -42.011,-9.3 -24.863,-25.23"
         style="fill:#ffffff;fill-opacity:1;fill-rule:nonzero;stroke:none"
         id="path184" />
      <path
         d="m 482.551,1999.67 5.648,-7.8 c 5.992,7.37 18.348,16.31 27.223,19.7 l -5.649,7.8 c -2.175,-3.58 -7.003,-7.09 -10.753,-9.7 l -8.668,11.97 c 3.664,2.75 8.488,6.24 12.578,7.19 l -5.649,7.8 c -5.988,-7.37 -18.343,-16.31 -27.218,-19.7 l 5.644,-7.8 c 2.172,3.57 6.953,7.05 10.691,9.66 l 8.665,-11.98 c -3.645,-2.74 -8.442,-6.18 -12.512,-7.14"
         style="fill:#ffffff;fill-opacity:1;fill-rule:nonzero;stroke:none"
         id="path186" />
      <path
         d="m 479.355,2116.32 0.465,7.15 c -9.55,-1.79 -24.957,-1.79 -34.476,0.08 l -0.461,-7.15 c 9.551,1.79 24.953,1.79 34.472,-0.08"
         style="fill:#ffffff;fill-opacity:1;fill-rule:nonzero;stroke:none"
         id="path188" />
      <path
         d="m 722.098,1971.86 c 20.453,8.95 15.89,29.29 -7.203,19.98 -9.684,2.75 2.55,12.6 8.968,10.43 l 0.157,0.13 -4.86,5.75 c -7.277,-3.17 -18.855,-12.95 -12.687,-21.24 4.277,-5.46 12.902,0.37 18.547,0.29 9.359,-1.68 -0.711,-11.43 -6.5,-10.87 l -0.094,-0.13"
         style="fill:#ffffff;fill-opacity:1;fill-rule:nonzero;stroke:none"
         id="path190" />
      <path
         d="m 778.16,2042.89 5.809,19.72 c -2.934,-0.21 -29.504,7.52 -31.86,9.27 l -5.511,-18.72 5.539,-4.71 0.105,0.07 c -0.422,4.31 0.16,9.15 1.742,14.52 l 10.075,-2.93 c -1.004,-2.93 -2.778,-9.59 -4.164,-11.35 l 5.035,-0.75 3.215,10.91 9.648,-2.81 c -1.152,-3.61 -2.746,-6.44 -4.785,-8.49 l 5.152,-4.73"
         style="fill:#ffffff;fill-opacity:1;fill-rule:nonzero;stroke:none"
         id="path192" />
      <path
         d="m 764.746,2016.67 3.129,6.1 -26.207,17.56 -2.887,-5.48 c 0.985,-1.28 18.086,-11.37 18.086,-11.37 0,0 -28.172,-3.69 -29.5,-5.87 l 26.203,-17.97 3.059,4.4 c -1.297,0.85 -15.731,10.22 -15.731,10.22 0,0 23.082,2.64 23.848,2.41"
         style="fill:#ffffff;fill-opacity:1;fill-rule:nonzero;stroke:none"
         id="path194" />
      <path
         d="m 692.363,1952.41 18.242,10.55 c -2.324,1.78 -16.535,24.99 -17.042,27.83 l -17.309,-10.01 0.773,-7.1 0.118,-0.02 c 2.742,3.42 6.593,6.57 11.562,9.44 l 5.387,-8.8 c -2.813,-1.47 -8.84,-5.16 -11.106,-5.52 l 3.2,-3.88 10.089,5.83 5.164,-8.43 c -3.406,-1.87 -6.589,-2.88 -9.546,-3.03 l 0.468,-6.86"
         style="fill:#ffffff;fill-opacity:1;fill-rule:nonzero;stroke:none"
         id="path196" />
      <path
         d="m 488.934,2182.89 c -5.442,4.31 -12.457,-3.38 -17.957,-4.64 -9.497,-0.56 -1.997,11.28 3.757,12.1 l 0.063,0.15 -4.586,3.36 c -8.602,-4.38 -15.113,-22.98 -1.238,-23.38 2.941,-0.15 10.472,5.06 12.933,5.64 6.532,1.22 4.457,-7.54 0.543,-9.62 1.938,0.08 3.957,0.36 5.824,-0.14 3.625,5.11 5.946,12.53 0.661,16.53"
         style="fill:#ffffff;fill-opacity:1;fill-rule:nonzero;stroke:none"
         id="path198" />
      <path
         d="m 495.676,2192.89 c -15.215,0.99 -18.395,27.29 0,23.31 v 6.37 c -23.84,1.43 -23.488,-36.4 0,-35.6 v 5.92"
         style="fill:#ffffff;fill-opacity:1;fill-rule:nonzero;stroke:none"
         id="path200" />
      <path
         d="m 533.453,2239.43 c 0.063,0.03 10.442,0 10.504,0.02 -3.965,6.28 -7.16,11.44 -7.16,11.44 3.637,2.13 11.394,5.24 14.848,5.01 l -8.262,6.29 -25.387,-15.17 2.906,-9.75 0.145,-0.05 c 2.055,4.03 5.144,7.29 8.535,9.17 0.758,-1.4 2.156,-3.91 3.871,-6.96"
         style="fill:#ffffff;fill-opacity:1;fill-rule:nonzero;stroke:none"
         id="path202" />
      <path
         d="m 588.223,2248.93 c 12.707,4.95 1.691,24.6 -9.571,19.97 -12.578,-4.81 -1.742,-24.63 9.571,-19.97 z m 19.351,-5.08 0.055,-0.15 c -5.051,-4.09 -11.5,-2.4 -16.938,0.5 -15.793,-8.86 -32.851,11.91 -20.175,25.25 13.339,15.91 39.812,-2.14 27.023,-19.69 4.168,-3.19 7.516,-5.16 10.035,-5.91"
         style="fill:#ffffff;fill-opacity:1;fill-rule:nonzero;stroke:none"
         id="path204" />
      <path
         d="m 612.34,2257.93 c -0.113,5.45 0.656,15.05 -1.668,19.75 h 11.277 c -1.808,-5.08 -5.078,-28.36 4.559,-27.17 3.793,-0.07 7.574,2.56 7.488,6.54 -0.156,5.55 0.734,15.82 -1.668,20.63 h 11.281 c -2.64,-8.76 -2.64,-24.11 0,-32.87 h -9.566 c 0.211,0.67 0.316,1.75 0.316,3.25 -9.765,-6.94 -22.921,-3.48 -22.019,9.87"
         style="fill:#ffffff;fill-opacity:1;fill-rule:nonzero;stroke:none"
         id="path206" />
      <path
         d="m 660.137,2241.7 c 1.992,8.09 4.828,21.88 9.324,28.73 l -8.762,2.93 c 0.094,-8.7 -4.562,-22.24 -7.5,-30.53 3.367,-0.44 3.367,-0.44 6.938,-1.13"
         style="fill:#ffffff;fill-opacity:1;fill-rule:nonzero;stroke:none"
         id="path208" />
      <path
         d="m 639.789,2172.7 v 0.03 h 0.004 c -0.016,-0.04 0.012,-0.85 0.004,-0.89 0.152,1.68 2.836,0.46 1.492,-0.69 l 0.426,-0.4 c 2.715,-0.32 3.109,3.74 0.355,3.9 v 0.08 l 3.274,1.43 v 0.98 l -3.274,1.44 v 0.1 c 2.758,0.17 2.356,4.22 -0.355,3.91 l -0.426,-0.41 c 1.344,-1.14 -1.348,-2.36 -1.492,-0.69 0.004,-0.11 -0.027,-0.92 0.023,-1.01 h -0.031 c 0,0.09 0,35.24 0,35.36 h 2.801 v 2.64 h 30.461 c 1.699,-0.29 0.262,-2.61 -0.821,-1.39 l -0.433,-0.41 c -0.332,-2.66 4.211,-2.85 4.172,-0.17 h 0.004 l 1.605,-3.25 h 1.047 l 1.559,3.24 c -0.024,-2.67 4.496,-2.48 4.183,0.18 l -0.441,0.41 c -1.074,-1.22 -2.52,1.09 -0.824,1.39 h 30.507 v -2.64 h 2.809 c -0.316,0.61 1.109,-43.39 -1.473,-33.66 l -0.437,0.41 c -2.692,0.32 -3.082,-3.76 -0.344,-3.91 v -0.1 l -3.289,-1.44 v -0.98 l 3.289,-1.42 v -0.09 c -2.738,-0.15 -2.348,-4.22 0.344,-3.9 l 0.437,0.4 c 2.578,10 1.16,-34.97 1.473,-33.72 h -2.809 v -2.63 h -30.453 c -1.742,0.24 -0.359,2.65 0.782,1.4 l 0.429,0.41 c 0.332,2.6 -4.062,2.89 -4.164,0.28 h -0.07 l -1.543,3.15 h -1.043 l -1.524,-3.15 h -0.066 c -0.105,2.59 -4.441,2.33 -4.16,-0.28 l 0.433,-0.41 c 1.149,1.25 2.536,-1.17 0.778,-1.4 H 642.59 v 2.63 h -2.801 z m 42.313,45.78 h 0.007 c -0.004,0 -0.007,-0.01 -0.007,-0.01 z m 34.312,-38 c 0,0.01 0.004,0.02 0.004,0.02 v -0.02 z m -42.453,-45.68 h -0.043 c 0.016,0 0.027,0 0.043,0 z m 8.277,0 h -0.043 v 0 c 0.016,0 0.028,0 0.043,0 z m 31.371,-2.64 h 5.614 c 0,5.02 0,83.95 0,88.96 -25.137,0 -57.149,0 -82.227,0 v -83.69 -5.27 h 5.594 71.019"
         style="fill:#ffffff;fill-opacity:1;fill-rule:nonzero;stroke:none"
         id="path210" />
      <path
         d="m 681.645,2224.55 h 41.117 v -95.83 h -89.317 v 48.23 l 0.016,0.01 -0.016,-0.01 v 47.6 c 9.391,0 39.325,0 48.2,0 z m 49.703,-95.81 c 0.043,1.84 -2.02,3.21 -3.785,2.6 v -0.41 c -3.25,-14.68 -1.668,45.71 -1.961,43.5 l 2.984,-1.23 c 0,1.75 0,5.26 0,7.02 l -2.981,-1.22 0.012,44.5 c 0.418,2.24 3.899,0.33 1.985,-1.11 v -0.41 c 4.105,-1.3 5.296,5.26 0.914,5.33 l 2.738,4.74 -0.649,0.63 c -0.05,-0.01 -4.894,-2.7 -4.949,-2.66 -0.062,4.07 -6.957,3.07 -5.652,-0.88 h 0.418 c 1.457,1.77 3.586,-1.39 1.215,-1.86 h -41.059 l 1.274,2.76 c -1.868,0 -5.594,0 -7.461,0 l 1.277,-2.77 h -41.02 c -2.468,0.36 -0.39,3.68 1.129,1.87 h 0.414 c 1.344,3.94 -5.582,4.96 -5.632,0.88 -0.047,-0.06 -4.918,2.66 -4.961,2.66 l -0.657,-0.63 2.743,-4.74 c -4.391,-0.07 -3.184,-6.63 0.921,-5.33 v 0.41 c 3.208,14.64 1.676,-45.44 1.958,-43.37 l -2.915,1.2 c 0,-1.76 0,-5.27 0,-7.02 l 2.915,1.19 c -0.282,1.06 1.25,-57.76 -1.958,-43.46 v 0.41 c -4.105,1.28 -5.316,-5.27 -0.917,-5.33 l -2.747,-4.74 0.657,-0.63 c 0.054,0.01 4.902,2.71 4.961,2.66 0.039,-4.07 6.988,-3.06 5.632,0.88 h -0.414 c -0.64,-0.96 -2.332,-0.46 -2.3,0.69 0,0.6 0.496,1.08 1.109,1.17 h 41.109 l -1.304,-2.81 c 1.867,0 5.593,0 7.461,0 l -1.282,2.81 h 41.016 c 0.617,-0.09 1.102,-0.57 1.102,-1.17 0.039,-1.15 -1.661,-1.65 -2.293,-0.69 h -0.438 c -1.301,-3.96 5.609,-4.94 5.66,-0.88 0.043,0.05 4.891,-2.66 4.93,-2.66 l 0.676,0.63 -2.739,4.74 c 1.579,0.01 2.864,1.22 2.864,2.73"
         style="fill:#ffffff;fill-opacity:1;fill-rule:nonzero;stroke:none"
         id="path212" />
      <path
         d="m 716.34,2171.84 v -0.06 c 0.015,0.03 0.012,0.04 0,0.06"
         style="fill:#ffffff;fill-opacity:1;fill-rule:nonzero;stroke:none"
         id="path214" />
      <path
         d="m 716.34,2181.55 v -0.06 c 0.012,0.03 0.012,0.04 0,0.06"
         style="fill:#ffffff;fill-opacity:1;fill-rule:nonzero;stroke:none"
         id="path216" />
      <path
         d="m 639.91,2171.78 v 0.06 c -0.031,-0.03 -0.039,-0.02 0,-0.06"
         style="fill:#ffffff;fill-opacity:1;fill-rule:nonzero;stroke:none"
         id="path218" />
      <path
         d="m 639.91,2181.49 v 0.06 c -0.039,-0.03 -0.031,-0.02 0,-0.06"
         style="fill:#ffffff;fill-opacity:1;fill-rule:nonzero;stroke:none"
         id="path220" />
      <path
         d="m 343.016,2340.32 1.98,1.64 c 0.774,8.2 4.641,15.52 10.91,20.02 -0.422,0.59 -0.847,1.13 -1.273,1.63 -7.121,-5.18 -11.293,-13.78 -11.617,-23.29"
         style="fill:#ffffff;fill-opacity:1;fill-rule:nonzero;stroke:none"
         id="path222" />
      <path
         d="m 362.297,2351.87 1.906,0.63 c -1.269,3.51 -3.98,9.95 -7.973,13.96 -0.894,0.92 -2.375,-0.44 -1.46,-1.33 2.769,-2.78 5.441,-7.49 7.527,-13.26"
         style="fill:#ffffff;fill-opacity:1;fill-rule:nonzero;stroke:none"
         id="path224" />
      <path
         d="m 345.086,2358.35 c 3.844,-0.11 3.914,5.89 0.078,5.89 -3.777,0.09 -3.883,-5.9 -0.078,-5.89"
         style="fill:#ffffff;fill-opacity:1;fill-rule:nonzero;stroke:none"
         id="path226" />
      <path
         d="m 401.133,2371.02 c -2.617,-2.81 -6.949,1.34 -4.262,4.08 2.582,2.76 6.934,-1.36 4.262,-4.08"
         style="fill:#ffffff;fill-opacity:1;fill-rule:nonzero;stroke:none"
         id="path228" />
      <path
         d="m 407.051,2366.09 c -2.617,-2.82 -6.949,1.33 -4.262,4.07 2.582,2.76 6.93,-1.36 4.262,-4.07"
         style="fill:#ffffff;fill-opacity:1;fill-rule:nonzero;stroke:none"
         id="path230" />
      <path
         d="m 379.695,2375.72 c -2.617,-2.82 -6.949,1.33 -4.261,4.07 2.586,2.76 6.933,-1.36 4.261,-4.07"
         style="fill:#ffffff;fill-opacity:1;fill-rule:nonzero;stroke:none"
         id="path232" />
      <path
         d="m 394.43,2374.18 c -2.614,-2.81 -6.946,1.34 -4.258,4.07 2.582,2.77 6.93,-1.36 4.258,-4.07"
         style="fill:#ffffff;fill-opacity:1;fill-rule:nonzero;stroke:none"
         id="path234" />
      <path
         d="m 401.418,2364.68 -2.559,-0.27 c -6.398,5.2 -14.328,7.56 -21.933,6.23 -0.121,0.72 -0.211,1.41 -0.266,2.06 8.684,1.45 17.742,-1.59 24.758,-8.02"
         style="fill:#ffffff;fill-opacity:1;fill-rule:nonzero;stroke:none"
         id="path236" />
      <path
         d="m 379.176,2359 -1.785,-0.91 c -1.614,3.36 -4.313,9.8 -4.379,15.46 -0.028,1.29 1.976,1.39 1.972,0.11 0.047,-3.92 1.536,-9.12 4.192,-14.66"
         style="fill:#ffffff;fill-opacity:1;fill-rule:nonzero;stroke:none"
         id="path238" />
      <path
         d="m 387.098,2375.82 c -2.614,-2.81 -6.946,1.34 -4.258,4.07 2.582,2.77 6.93,-1.35 4.258,-4.07"
         style="fill:#ffffff;fill-opacity:1;fill-rule:nonzero;stroke:none"
         id="path240" />
      <path
         d="m 703.699,2059.7 c 8.524,0.16 28.321,9.53 13.946,17.29 -8.051,1.35 -16.059,-2.58 -23.809,-4.39 -31.176,-12.39 -12.91,2.76 -32.262,1.11 6.531,-16.53 23.028,-8 35.395,-4.14 0.379,-1.82 -1.906,-2.26 -1.606,-4.08 4.16,0.87 8.137,1.69 12.043,2.5 1.699,8.11 16.504,8.19 9.727,0.07 -17.063,-7.44 -37.199,-6.06 -55.063,-11.13 -11.941,-31.28 -32.707,-10 -32.504,-18.96 -4.671,-0.44 -4.601,-4.93 0.192,-4.55 0.101,-9.1 23.121,1.45 27.383,4.24 1.031,2.2 1.972,4.22 2.945,6.29 7,-3.41 11.922,6.66 17.988,8.45 6.043,1.21 13.922,7.12 19.067,1.65 5.73,-6.34 14.304,3.33 19.363,-3.07 -1.91,-4.94 0.601,-2.76 1.449,-5.85 -0.086,-2.78 4.543,-2.74 4.621,0.05 -0.019,1.22 0.125,1.98 1.328,2.48 2.559,3.89 -2.882,8.19 -4.785,11.43 -4.195,4.05 -11.164,-3.66 -15.418,0.61"
         style="fill:#ffffff;fill-opacity:1;fill-rule:nonzero;stroke:none"
         id="path242" />
      <path
         d="m 626.617,2073.46 c 1.391,-0.46 0.863,-2.1 1.516,-2.94 7.344,-0.5 14.695,1.45 22.105,2.37 5.535,0 5.332,4.87 9.391,5.56 9.785,-0.51 15.879,8.13 25.094,9.52 7.39,2.09 17.351,4.83 23.879,-0.36 1.582,-1.75 3.859,-2.09 6.218,-1.65 3.121,0.55 6.836,1.22 8.477,-2.41 -0.531,-0.55 -1.047,-1.09 -1.774,-1.85 0.317,-0.67 0.688,-1.46 1.055,-2.25 1.535,0.1 1.754,-1.13 2.363,-2.13 0.829,-1.36 2.774,-1.39 3.09,0.02 0.395,1.73 2.176,0.86 2.731,2.37 0.297,4.52 -0.696,10.11 -5.207,12.38 -2.223,2.09 -11,-2.18 -11.25,2.16 6.535,-1.48 19.09,7.05 10.461,12.55 -14.594,3.41 -30.633,-3.64 -45.446,-5.31 -5.82,-1.3 -2.902,8.19 -15.773,5.64 8.285,-17.29 26.152,-5.05 40.031,-4.9 0.086,-1.56 -2.629,-1.46 -1.973,-3.4 4.032,1.26 10.895,-0.9 13.211,3.13 1.254,4.92 11.61,3.75 8.563,-1.92 -7.754,-4.96 -19.32,-2.69 -28.434,-3.71 -11.152,-0.94 -23.328,-1.19 -33.765,-5.09 -2.067,-6.47 -4.938,-13.14 -12.395,-14.69 -5.222,5.08 -12.805,-0.91 -18.398,4.22 -1.836,-0.37 -2.184,-1.46 -2.914,-2.85 -2.746,-1.04 -3.68,-2.6 -0.856,-4.46"
         style="fill:#ffffff;fill-opacity:1;fill-rule:nonzero;stroke:none"
         id="path244" />
      <path
         d="m 708.805,2028.02 c -14.594,1.88 -12.395,-8.17 -19.575,-5.8 1.297,1.59 4.872,2.49 3.708,4.9 -10.692,-4.67 -21.942,-8.01 -32.602,-12.82 -5.418,-5.75 -3.637,-17.23 -15.871,-18.28 -0.442,-5.97 -8.817,-10 -13.985,-7.33 -2.085,-1.95 -1.187,-2.46 -0.867,-4.27 -1.75,-1.6 -4.187,-5.28 -0.367,-5.24 1.195,0.25 2.121,2.03 3.363,1.46 -0.089,-0.78 -0.175,-1.55 -0.277,-2.42 1.008,0.01 2.359,-0.33 2.715,0.11 1.68,2.11 4.086,0.37 5.973,2.03 6.285,4.22 15.246,8.1 14.761,16.88 11.094,4.87 17.52,22.82 31.977,16.5 7.14,-3.86 9.09,7.71 15.488,7.96 1.824,-4.23 2.68,-3.88 4.984,-2.49 4.032,-3.08 3.336,1.79 4.915,4.06 0.191,2.21 -2.063,4.79 -4.34,4.75"
         style="fill:#ffffff;fill-opacity:1;fill-rule:nonzero;stroke:none"
         id="path246" />
      <path
         d="m 642.797,2098.27 c -2.32,-6.62 0.074,-15.43 6.23,-19.11 7.055,3.17 11.575,12.39 9.11,20.12 1.679,1.42 3.761,2.12 3.136,4.5 -1.113,2.67 -5.293,0.68 -6.375,3.8 -2.652,3.63 -6.164,0.67 -8.32,-1.77 -1.625,-0.19 -3.211,0.62 -4.715,-0.13 -1.539,-2.83 2.727,-4.52 0.934,-7.41"
         style="fill:#ffffff;fill-opacity:1;fill-rule:nonzero;stroke:none"
         id="path248" />
      <path
         d="m 640.984,2005.36 c 6.864,-16.43 17.188,4.47 14.614,13.37 4.742,3.91 3.422,6.22 -2.301,6.6 -2.016,4.33 -6.371,4.77 -9.379,1.12 -1.063,-1.33 -2.641,-0.86 -4.023,-0.99 -2.934,-1.37 -1.309,-4.58 1.261,-5.3 -1.406,-4.97 -2.133,-9.94 -0.172,-14.8"
         style="fill:#ffffff;fill-opacity:1;fill-rule:nonzero;stroke:none"
         id="path250" />
      <path
         d="m 659.844,2066.33 c -1.332,0.77 -3.008,0.81 -4.489,0.69 -2.433,6.39 -6.847,3.98 -10.414,0.16 -5.316,2.11 -4.519,-2.66 -1.711,-5.26 -2.656,-6.5 -0.816,-16.13 6.09,-18.92 7.282,3.04 9.293,11.89 8.852,19.02 2.273,0.35 4.101,2.9 1.672,4.31"
         style="fill:#ffffff;fill-opacity:1;fill-rule:nonzero;stroke:none"
         id="path252" />
      <path
         d="m 712.117,2044.83 c -13.058,4.38 -33.597,-24.03 -42.277,-15.67 -2.113,4.58 -8.59,4.08 -12.668,2.83 4.902,-3.53 7.582,-11.3 15.023,-8.77 8.407,1.64 15,8.42 22.262,11.54 0.195,-2.44 -2.285,-3.49 -3.309,-5.81 4.985,1.57 9.461,2.97 13.137,6.15 -0.629,13.74 19.035,4.11 0.168,-4.35 3.352,-0.07 5.695,-1.59 7.942,1.17 4.335,3.87 4.558,9.46 -0.278,12.91"
         style="fill:#ffffff;fill-opacity:1;fill-rule:nonzero;stroke:none"
         id="path254" />
      <path
         d="m 682.449,2013.02 c -3.836,-0.97 -7.668,-1.3 -10.047,-5.22 0.961,-1.29 1.868,-2.51 2.856,-3.84 -1.828,-4.75 -6.555,-3.94 -10.973,-4.15 0.41,-1.49 0.637,-2.31 0.91,-3.32 -1.882,-0.99 -2.601,-2.65 -2.215,-5 0.497,-0.17 1.086,-0.36 1.672,-0.56 1.235,1.53 3.453,3.09 3.981,0.21 8.027,2.62 15.211,7.51 19.027,15 -2.285,1.76 -4.226,3.84 -5.211,6.88"
         style="fill:#ffffff;fill-opacity:1;fill-rule:nonzero;stroke:none"
         id="path256" />
      <path
         d="m 671.867,2041.31 c -1.695,0.01 -2.078,-2.18 -0.902,-3.19 1.148,-1.28 2.277,0.11 3.586,-0.26 0.043,-0.73 0.078,-1.33 0.113,-1.91 7,-0.41 17.613,5.84 21.332,11.49 -1.488,2.31 -2.894,4.49 -4.355,6.76 -3.809,-1.23 -8.141,-1.14 -10.414,-4.56 1.367,-1.46 2.562,-2.73 3.882,-4.14 -2.57,-1.42 -5.535,-3.83 -8.324,-1.52 -1.137,1.04 -4.316,0.56 -3.543,-1.45 0.11,-0.3 -0.062,-0.71 -0.109,-1.07 -0.488,-0.06 -0.875,-0.11 -1.266,-0.15"
         style="fill:#ffffff;fill-opacity:1;fill-rule:nonzero;stroke:none"
         id="path258" />
      <path
         d="m 642.059,1998.62 c -2.598,5.07 -6.672,9.7 -8.582,15.02 2.324,3.24 1.273,7.4 -3.043,4.75 -1.09,2.19 -2.707,2.61 -4.715,2.05 -0.571,-1.4 -0.879,-2.75 0.636,-3.83 0.094,-0.07 -0.019,-0.42 -0.039,-0.64 -0.48,-0.16 -0.957,-0.33 -1.398,-0.47 -1.078,-2.79 1.68,-4.41 2.68,-6.58 3.015,-4.79 7.488,-16.34 14.461,-10.3"
         style="fill:#ffffff;fill-opacity:1;fill-rule:nonzero;stroke:none"
         id="path260" />
      <path
         d="m 642.055,2082.12 c -0.379,7.01 -8.485,11.51 -6.032,18.56 0.645,1.3 0.422,2.84 -0.91,3.91 -2.359,-0.63 -2.359,-0.63 -4.144,0.49 -3.047,1.52 -3.469,-1.85 -3.203,-3.99 -0.598,-0.28 -1.161,-0.54 -1.981,-0.91 2.11,-6.02 8.41,-21.11 16.27,-18.06"
         style="fill:#ffffff;fill-opacity:1;fill-rule:nonzero;stroke:none"
         id="path262" />
      <path
         d="m 626.422,2058.32 c 2.976,-4.54 3.801,-11.77 8.871,-14.4 2.309,0 5.879,-2.11 7.238,0.63 -1.48,5.42 -8.168,8.55 -7.215,14.72 0.325,1.43 -0.207,2.86 -1.414,4.14 -2.582,-0.77 -8.011,5.11 -6.023,-1.88 -1.606,-0.55 -2.559,-1.68 -1.457,-3.21"
         style="fill:#ffffff;fill-opacity:1;fill-rule:nonzero;stroke:none"
         id="path264" />
      <path
         d="m 510.563,2198.53 c 1.109,-0.07 2.23,1.23 3.386,0.07 -0.101,-0.59 -0.207,-1.17 -0.32,-1.81 7.113,-3.09 14.949,0.41 21.996,2.32 2.797,0.86 4.398,3.68 7.473,3.62 7.3,-0.53 11.461,5.6 17.722,7.36 7.75,1.47 15.606,2.7 23.52,2.56 9.082,-12.4 10.719,-1.87 18.867,-6.08 -0.234,-1.2 -0.465,-2.37 -0.711,-3.66 0.817,-0.27 1.484,-0.5 2.121,-0.72 -0.797,-3.08 3.778,-4.88 4.399,-0.97 0.082,0.46 -0.129,1.07 0.539,1.15 4.847,2.64 -2.594,15.45 -7.731,12.09 -2.621,-1.23 -6.07,-2.45 -8.121,0.68 4.512,1.84 10.102,1.38 13.176,5.61 2.301,2.8 2.098,8.4 -2.293,9.89 -11.383,3.16 -23.426,-2.6 -34.941,-3.59 -21.598,-5.86 -6.188,4.62 -23.317,4.54 6.133,-17.55 24.559,-6.27 37.348,-4.99 -0.914,-2.06 -3.016,-2.85 -3.867,-4.7 4.515,0.87 10.476,-0.83 13.839,2.67 1.75,4.82 13.184,5.38 10.485,-1.17 -10.785,-10.53 -44.578,-0.66 -59.61,-7.43 -2.246,-6.86 -6.23,-11.42 -12.804,-13.29 -5.379,3.33 -7.809,-0.46 -13.176,1.02 -1.496,1.66 -3.016,3.51 -5.348,1.69 0.012,-0.7 0.024,-1.51 0.039,-2.47 -2.539,0.73 -5.398,-2.79 -2.671,-4.39"
         style="fill:#ffffff;fill-opacity:1;fill-rule:nonzero;stroke:none"
         id="path266" />
      <path
         d="m 529.273,2225.3 c -3.984,-7.31 -2.824,-13.89 1.922,-20.01 8.864,-0.32 12.473,11.78 11.028,19.1 0.925,0.65 1.789,1.25 2.707,1.88 -0.258,0.96 -0.473,1.76 -0.715,2.66 -1.61,0.06 -3.067,0.12 -4.457,0.18 -3.215,4.12 -5.145,4.21 -8.969,0.5 -2.609,0.98 -2.609,0.98 -4.367,-1.32 0.641,-1.34 1.48,-2.33 2.851,-2.99"
         style="fill:#ffffff;fill-opacity:1;fill-rule:nonzero;stroke:none"
         id="path268" />
      <path
         d="m 572.523,2209.61 c -0.398,-2.04 1.473,-2.93 1.809,-4.52 -2.375,-1.54 -4.941,-1.62 -7.469,-1.96 -1.332,1.34 -1.871,3.73 -4.195,3.03 -1.316,-0.31 -0.582,-1.71 -1.566,-2.26 -2.571,0.22 -2.571,0.22 -2.961,-2.38 0.785,-0.47 1.609,-0.97 2.39,-1.43 -1.937,-9.16 23.043,0.36 26.742,3.09 -1.207,2.05 -2.769,3.46 -3.242,5.84 -1.031,4.02 -8.445,0.73 -11.508,0.59"
         style="fill:#ffffff;fill-opacity:1;fill-rule:nonzero;stroke:none"
         id="path270" />
      <path
         d="m 525.816,2208.48 c -0.269,3.21 -1.066,6.96 -3.597,9.19 -2.84,2.93 -3.758,6.94 -0.867,10.07 -1.45,1.37 -3.372,0.25 -4.786,2.2 -1.812,2.08 -2.894,-0.31 -3.328,-2.5 -5.093,-0.74 -2.152,-2.4 -1.011,-5.12 1.687,-4.69 7.699,-15.94 13.589,-13.84"
         style="fill:#ffffff;fill-opacity:1;fill-rule:nonzero;stroke:none"
         id="path272" />
      <path
         d="m 601.219,2174.3 c -2.645,-1.25 -6.125,-2.48 -8.188,0.68 4.547,1.85 10.184,1.39 13.282,5.66 2.32,2.82 2.113,8.47 -2.313,9.97 -11.473,3.18 -23.613,-2.63 -35.227,-3.63 -21.773,-5.9 -6.234,4.66 -23.503,4.58 6.183,-17.69 24.753,-6.33 37.648,-5.03 -0.918,-2.08 -3.039,-2.87 -3.898,-4.73 4.554,0.87 10.566,-0.85 13.957,2.68 1.761,4.87 13.289,5.43 10.57,-1.18 -10.875,-10.61 -44.945,-0.66 -60.098,-7.48 -2.265,-6.92 -6.281,-11.52 -12.91,-13.4 -4.598,2.84 -7.062,0.54 -11.004,0.68 0.156,-1.29 0.543,-2.53 0.863,-3.8 0.329,-1.28 0.473,-2.6 0.559,-3.92 4.574,0.5 9.195,2.26 13.523,3.43 2.817,0.87 4.434,3.72 7.532,3.66 7.359,-0.53 11.554,5.64 17.867,7.42 7.812,1.48 15.73,2.72 23.711,2.57 9.152,-12.49 10.808,-1.88 19.019,-6.12 -0.234,-1.21 -0.464,-2.4 -0.714,-3.69 0.824,-0.28 1.496,-0.51 2.14,-0.73 -0.805,-3.11 3.805,-4.92 4.434,-0.97 0.082,0.46 -0.133,1.07 0.543,1.16 4.886,2.66 -2.617,15.57 -7.793,12.19"
         style="fill:#ffffff;fill-opacity:1;fill-rule:nonzero;stroke:none"
         id="path274" />
      <path
         d="m 528.074,2185.22 c -4.015,-7.37 -2.847,-14 1.938,-20.18 8.933,-0.31 12.574,11.88 11.121,19.27 0.93,0.64 1.801,1.25 2.726,1.89 -0.261,0.97 -0.476,1.77 -0.722,2.68 -1.621,0.06 -3.09,0.12 -4.492,0.18 -3.243,4.15 -5.188,4.25 -9.043,0.5 -2.629,0.99 -2.629,0.99 -4.403,-1.33 0.649,-1.35 1.496,-2.34 2.875,-3.01"
         style="fill:#ffffff;fill-opacity:1;fill-rule:nonzero;stroke:none"
         id="path276" />
      <path
         d="m 571.68,2169.4 c -0.407,-2.06 1.48,-2.95 1.82,-4.55 -2.395,-1.56 -4.98,-1.64 -7.531,-1.98 -1.34,1.35 -1.883,3.76 -4.227,3.06 -1.328,-0.32 -0.586,-1.73 -1.578,-2.28 -2.594,0.22 -2.594,0.22 -2.988,-2.41 0.793,-0.47 1.625,-0.97 2.41,-1.44 -1.953,-9.23 23.234,0.37 26.965,3.12 -1.219,2.06 -2.797,3.49 -3.27,5.89 -1.043,4.05 -8.519,0.73 -11.601,0.59"
         style="fill:#ffffff;fill-opacity:1;fill-rule:nonzero;stroke:none"
         id="path278" />
      <path
         d="m 524.59,2168.27 c -0.274,3.23 -1.074,7.01 -3.629,9.26 -2.859,2.95 -3.789,7 -0.871,10.15 -1.461,1.38 -3.399,0.26 -4.824,2.22 -1.828,2.09 -2.922,-0.32 -3.356,-2.52 -5.137,-0.75 -2.172,-2.42 -1.023,-5.16 1.707,-4.74 7.765,-16.08 13.703,-13.95"
         style="fill:#ffffff;fill-opacity:1;fill-rule:nonzero;stroke:none"
         id="path280" />
      <path
         d="m 602.109,2136.66 c -2.64,-1.25 -6.117,-2.47 -8.175,0.68 4.539,1.84 10.168,1.38 13.261,5.65 2.317,2.81 2.114,8.46 -2.308,9.96 -11.457,3.18 -23.582,-2.63 -35.18,-3.63 -21.746,-5.89 -6.227,4.66 -23.473,4.57 6.172,-17.66 24.723,-6.31 37.598,-5.01 -0.918,-2.08 -3.035,-2.87 -3.891,-4.74 4.547,0.88 10.547,-0.84 13.938,2.69 1.758,4.86 13.269,5.42 10.555,-1.18 -10.86,-10.6 -44.887,-0.66 -60.016,-7.47 -2.266,-6.91 -6.277,-11.5 -12.895,-13.38 -5.418,3.34 -7.859,-0.47 -13.265,1.02 -0.528,0.58 -1.059,1.19 -1.625,1.65 -0.153,0.07 -0.297,0.16 -0.399,0.3 -0.207,0.14 -0.418,0.25 -0.632,0.33 0.027,-0.08 0.054,-0.15 0.058,-0.25 0.094,-3.17 -0.676,-6.26 -1.906,-9.15 7.043,-2.79 14.754,0.61 21.703,2.5 2.813,0.86 4.43,3.7 7.523,3.64 7.352,-0.53 11.54,5.64 17.844,7.41 7.805,1.48 15.711,2.72 23.68,2.58 9.141,-12.48 10.793,-1.88 18.992,-6.12 -0.234,-1.21 -0.465,-2.39 -0.715,-3.68 0.824,-0.28 1.496,-0.51 2.141,-0.73 -0.805,-3.11 3.801,-4.91 4.426,-0.98 0.086,0.47 -0.129,1.08 0.543,1.16 4.879,2.66 -2.614,15.56 -7.782,12.18"
         style="fill:#ffffff;fill-opacity:1;fill-rule:nonzero;stroke:none"
         id="path282" />
      <path
         d="m 529.063,2147.57 c -4.012,-7.36 -2.844,-13.99 1.933,-20.16 8.922,-0.31 12.559,11.87 11.106,19.25 0.929,0.64 1.8,1.24 2.722,1.88 -0.261,0.97 -0.476,1.77 -0.719,2.67 -1.621,0.07 -3.089,0.13 -4.488,0.19 -3.238,4.15 -5.179,4.24 -9.027,0.5 -2.629,0.99 -2.629,0.99 -4.399,-1.33 0.645,-1.34 1.493,-2.34 2.872,-3"
         style="fill:#ffffff;fill-opacity:1;fill-rule:nonzero;stroke:none"
         id="path284" />
      <path
         d="m 572.605,2131.77 c -0.402,-2.06 1.485,-2.95 1.825,-4.55 -2.395,-1.55 -4.977,-1.63 -7.524,-1.97 -1.34,1.34 -1.883,3.75 -4.222,3.05 -1.325,-0.32 -0.586,-1.72 -1.575,-2.28 -2.589,0.22 -2.589,0.22 -2.984,-2.4 0.789,-0.47 1.621,-0.97 2.406,-1.44 -1.949,-9.22 23.203,0.37 26.93,3.11 -1.219,2.07 -2.793,3.49 -3.266,5.89 -1.043,4.03 -8.507,0.73 -11.59,0.59"
         style="fill:#ffffff;fill-opacity:1;fill-rule:nonzero;stroke:none"
         id="path286" />
      <path
         d="m 521.957,2139.89 c -0.539,0.55 -1.008,1.15 -1.394,1.77 -0.165,-1.65 0.707,-3.57 0.41,-5.2 -0.231,-1.26 -0.598,-3.17 -0.957,-4.4 2.058,-2.01 3.289,-2.24 5.562,-1.42 -0.269,3.22 -1.07,7 -3.621,9.25"
         style="fill:#ffffff;fill-opacity:1;fill-rule:nonzero;stroke:none"
         id="path288" />
      <path
         d="m 652.492,2204.75 c 1.961,-1.24 3.426,-6.98 4.606,-7.79 2.23,-2.94 6.898,-10.78 11.468,-9.17 l 0.004,0.12 c 1.356,0.54 2.653,4.5 2.727,5.05 -0.039,0.17 -0.809,0.87 -1.664,1.54 -4.293,3.74 -6.895,7.43 -6.985,10.85 -0.183,1.11 2.454,2.61 2.25,3.67 -0.097,3.91 -3.339,-0.48 -4.617,0.16 -0.699,1.13 -3.121,4.33 -4.613,2.77 -0.918,-0.44 0.23,-2.74 -0.512,-3.29 -0.336,-0.45 -0.543,-0.52 -1.574,-0.51 -3.465,0.06 -3.922,-2.1 -1.09,-3.4"
         style="fill:#ffffff;fill-opacity:1;fill-rule:nonzero;stroke:none"
         id="path290" />
      <path
         d="m 670.879,2178.37 c 1.148,1.14 4.613,4.51 5,5.26 0.34,0.76 0.465,0.8 2.902,1.01 6.703,0.95 10.09,3.69 11.985,10.89 0.925,2.15 -0.262,6.84 -1.633,7.86 -0.531,0.37 -0.766,1.07 -0.434,1.31 1.242,0.18 3.852,1.19 4.297,2.66 -0.715,1.38 -2.453,0.34 -4.808,1.1 -1.743,0.81 -6.356,2.23 -8.227,1.2 -1.328,-1.61 -9.148,-1.78 -7.742,-4.11 0.301,-0.87 0.871,-2.84 0.871,-2.84 l 3.566,-0.42 0.055,-2.58 c 0,0 -2.559,-0.55 -3.41,-0.75 -2.117,-3.1 5.086,-3.35 6.953,-0.93 1.277,1.51 3.293,1.73 3.219,0.07 -0.973,-2.06 -4.418,-3.11 -6.426,-4.09 -3.008,-0.51 -3.809,-6.42 -6.125,-8.38 -6.559,-1.21 -8.91,-1.06 -15.395,4.22 -2.367,2.72 -4.246,0.67 -2.457,-1.47 -1.164,-0.38 -7.179,3.01 -4.461,-2.78 l 0.446,-0.53 c -2.969,-4.28 1.449,-2.83 3.925,-4.15 5.286,-2.11 11.079,-3.7 17.899,-2.55"
         style="fill:#ffffff;fill-opacity:1;fill-rule:nonzero;stroke:none"
         id="path292" />
      <path
         d="m 691.879,2182.5 2.785,-5.76 c 0,0 5.977,-2.67 6.785,-3.46 3.356,-2.45 2.797,-9.24 -0.23,-8.48 -4.961,2.03 -7.918,9.03 -11.356,13.37 -0.918,0.7 -3.285,7.78 -4.843,5.99 -20.454,-4.57 3.707,-9.81 -0.016,-17.41 -0.715,-1.08 -2.992,-6.38 -2.063,-7.18 1.719,-2.12 5.575,-3.65 7.602,-6.33 3.332,-3.26 0.336,-7.01 -3.781,-3.97 -2.34,1.76 -5.125,-0.78 -2.739,-3.14 0.161,-0.45 -1.421,-1.11 -1.71,-1.31 -2.438,-3.35 1.593,-3.18 3.726,-1.5 1.18,0.58 -0.012,-2.93 1.981,-2.36 3.726,0.83 9.507,2.72 10.539,8.55 2.32,5.36 -3.051,4.49 -4.375,9.17 -1.34,1.92 -1.434,8.98 1.472,6.38 2.696,-3.4 6.336,-5.36 9.653,-2.33 3.07,2.89 0.269,9.89 -1.301,13 -2.961,6.16 -6.371,12.09 -6.133,19.47 4.145,4.92 8.957,-3.85 11.887,9.83 -9.68,-0.66 -19.203,-7.15 -14.422,-18.02 2.941,-6.15 2.301,-5.67 -3.461,-4.51"
         style="fill:#ffffff;fill-opacity:1;fill-rule:nonzero;stroke:none"
         id="path294" />
      <path
         d="m 676.313,2170.89 c -5.118,0.26 -9.032,0.67 -7.598,-5.41 0.281,-1.46 0.824,-5.9 1.691,-6.92 0.36,-0.58 0.309,-1.19 -0.152,-1.59 -2.066,-1.16 -9.887,2.02 -8.949,4.68 -0.004,2.21 -2.211,2.72 -2.867,1.15 -0.352,-0.7 -0.907,-0.67 -1.688,0.19 -1.441,2.07 -3.449,-0.73 -2.637,-2.28 0.317,-0.62 -0.066,-1.3 -0.808,-1.41 -2.153,-0.88 -2.028,-3.82 0.961,-3.93 6.523,-3.02 12.211,-6.14 19.789,-5.07 l -0.121,-0.04 c 8.269,0.65 4,2.21 3.64,7.97 -1.418,6.19 9.153,10.25 -1.261,12.66"
         style="fill:#ffffff;fill-opacity:1;fill-rule:nonzero;stroke:none"
         id="path296" />
      <path
         d="m 684.086,2082.46 c -0.539,0.49 -1.891,-0.07 -2.051,-0.4 0.055,-2.81 -2.918,-1.99 -3.808,-3.91 0.582,-1.16 1.414,-2.09 2.679,-1.97 1.582,0.14 1.457,-1.82 2.899,-1.92 6.812,3.1 14.906,2.35 20.695,7.67 -2.168,1.86 -2.691,4.38 -3.156,7.03 -3.942,-0.29 -7.758,0.27 -11.16,-1.6 -0.344,-1.81 0.906,-2.75 1.789,-4.3 -2.797,-1.19 -5.274,-1.79 -7.887,-0.6"
         style="fill:#ffffff;fill-opacity:1;fill-rule:nonzero;stroke:none"
         id="path298" />
      <path
         d="m 623.305,1952.52 c 8.246,7.32 13.941,9.88 24.543,12.4 -2.926,-6.58 -5.719,-12.85 -8.668,-19.47 -5.317,2.36 -10.535,4.69 -15.875,7.07 z m -2.098,158.91 h 116.391 c 9.511,-88.96 -42.633,-118.73 -116.391,-149.74 z m 171.926,47.64 c -2.688,5.75 -8.903,37.99 -17.938,30.99 41.176,-76.87 13.711,-177.95 -57.738,-226.64 -20.965,-12.65 -46.977,-33.67 -71.769,-19.66 16.007,62.36 92.722,36.03 109.398,154.93 -2.051,1 -2.828,1.64 -4.707,1.97 -2.399,-16.62 -6.582,-32.58 -12.793,-47.92 6.656,17.7 2.422,73.1 3.676,76.15 -0.692,0.91 -1.418,1.25 -3.688,4.05 0.414,-6.69 -0.035,-9.12 0.039,-17.97 H 621.207 v 121.42 h 114.258 v -68.5 c -0.055,-0.37 0.445,-3.63 0.687,-4.82 1.629,2.5 1.766,2.41 2.856,3.22 v 73.64 H 499.371 l -0.215,-62.06 h 3.543 v 58.52 H 617.664 V 2114.97 H 506.785 c -0.328,-0.33 0.067,1.91 -0.301,1.58 -0.019,0.34 -0.761,-1.91 -0.757,-1.58 h -3.102 c -0.059,5.66 0.066,9.14 0.07,9.32 l -3.539,0.14 c -2.578,-9.12 5.016,-85.3 17.52,-98.68 -25.024,24.26 -32.899,67.33 -28.219,99.77 0,0 -2.34,1.79 -4.894,4.14 -7.86,-45.7 9.425,-90.78 41.449,-123.48 2.804,-2.99 5.859,0.23 9.265,1.08 -0.691,0.74 -2.195,1.89 -3.234,3.34 1.262,-1.31 2.379,-2.47 3.234,-3.34 l -1.777,4.91 c -25.141,19.22 -29.277,74.11 -29.816,99.26 h 114.98 c 0,0 -0.074,-152.26 -0.156,-152.61 -24.457,1.2 -41.004,27.74 -64.59,28.04 33.91,-20.11 95.937,-68.56 135.113,-47.33 0.305,-0.38 0.242,-0.3 0.547,-0.68 -4.113,-5.16 -18.629,-14.92 -25.105,-12.42 -10.664,6.42 -27.114,-5.28 -19.559,-17.19 0.973,-1.39 1.559,-2.64 0.434,-4.48 -42.371,3.99 -80.457,29.29 -116.164,50.97 -0.348,-0.37 -0.282,-0.3 -0.629,-0.68 13.675,-18.48 62.558,-41.44 62.558,-41.44 l -0.027,-27.47 c 0,0 3.133,-2.09 5.18,-3.46 v 29.72 c 12.824,-4.4 38.808,-12.55 38.808,-12.55 l 0.078,-18.55 4.946,3.16 -0.262,13.89 6.941,1.92 c 4.364,1.2 7.168,5.41 6.633,9.87 -2.051,1.03 -3.496,3.14 -2.859,6.04 1.023,5.41 7.558,5.53 10.238,2.28 5.309,-2.36 10.52,4.02 15.738,5.53 7.375,4.46 16.473,8.42 19.883,16.91 0.653,2.1 1.805,3.4 3.574,4.44 14.879,8.45 29.289,17.78 41.43,29.96 51.887,43.87 70.004,119.25 52.719,183.77"
         style="fill:#ffffff;fill-opacity:1;fill-rule:nonzero;stroke:none"
         id="path300" />
      <path
         d="m 363.578,1903.61 c -2.68,1.63 -5.969,2.14 -9.859,1.52 0.828,-5.9 2.972,-16.83 4.683,-22.55 10.961,1.57 14.258,15.27 5.176,21.03"
         style="fill:#ffffff;fill-opacity:1;fill-rule:nonzero;stroke:none"
         id="path302" />
      <path
         d="m 501.117,1932.22 4.946,-25.05 -5.754,-1.03 -5.079,24.93 c -3.546,-0.64 -5.535,-0.64 -10.339,-2.74 l -0.168,5.61 24.871,3.21 1.726,-4.74 c -2.281,0.83 -10.203,-0.19 -10.203,-0.19 z m -18.152,-29.36 -17.219,-3.97 c 0.328,2.61 -5.453,26.74 -6.93,28.94 l 18.145,4.18 -1.43,-6.11 c -2.523,0.69 -5.472,0.68 -8.836,-0.02 l 2.102,-8.76 10.035,2.31 1.66,-4.25 c -2,0.3 -8.051,-1.26 -10.808,-1.77 l 2.191,-9.15 c 4.941,1.14 9.02,2.82 12.234,5.05 l 0.094,-0.05 z m -49.988,-8.96 c -12.571,-0.29 -14.387,17.68 -17.34,26.53 l 6.097,1.15 c 2.911,-7.72 2.102,-25.77 15.051,-23.39 9.348,4.2 1.766,19.06 0.805,26.23 l 6.012,0.85 c 2.289,-11.91 7.675,-32.59 -10.625,-31.37 z m -17.688,-2.72 -17.254,-3.8 c 0.352,2.6 -5.211,26.78 -6.668,28.99 l 18.184,4.01 -1.485,-6.09 c -2.519,0.71 -5.464,0.73 -8.836,0.06 l 2.02,-8.78 10.059,2.22 1.621,-4.27 c -2,0.32 -8.063,-1.18 -10.825,-1.67 l 2.106,-9.17 c 4.953,1.1 9.047,2.75 12.277,4.95 l 0.098,-0.06 z m -32.34,-7 c 0.43,8.54 -2.418,21.97 -6.285,29.61 l 8.418,1.78 c -0.43,-8.54 2.422,-21.97 6.285,-29.61 z m -8.508,5.19 c -3.582,-8.52 -14.308,-10.46 -22.671,-11.95 0.402,2.65 -4.715,27.29 -6.278,29.53 14.492,6.21 35.227,0.21 28.949,-17.58 z m 138.735,54.66 c 0,0 0,0 -0.004,0 -65.887,-0.1 -131.539,-28.23 -197.453,-28.23 -7.906,0 -15.805,0.4 -23.719,1.31 20.414,-16.12 18.992,-48.47 48.684,-48.47 1.285,0 2.629,0.06 4.039,0.19 40.363,4.31 80.5,15.69 120.218,22 6.836,1.03 39.723,9.08 58.977,9.08 6.937,0 12.105,-1.04 13.648,-3.84 2.09,-3.79 -11,-14.83 -11.097,-15.26 -0.028,-0.12 0.039,-0.18 0.187,-0.18 1.27,0 8.528,4.19 13.938,7.76 21.496,15.45 -23.543,55.64 -27.418,55.64"
         style="fill:#ffffff;fill-opacity:1;fill-rule:nonzero;stroke:none"
         id="path304" />
      <path
         d="m 818.469,1916.23 c -1.399,-5.5 -3.555,-15.85 -4.274,-21.48 12.938,-2.74 16.953,18.91 4.274,21.48"
         style="fill:#ffffff;fill-opacity:1;fill-rule:nonzero;stroke:none"
         id="path306" />
      <path
         d="m 869.141,1907.45 c -9.883,2.43 -13.098,-18.17 -4.871,-21.45 10.093,-2.39 13.14,18.06 4.871,21.45"
         style="fill:#ffffff;fill-opacity:1;fill-rule:nonzero;stroke:none"
         id="path308" />
      <path
         d="m 843.293,1911.29 -3.016,-10.92 c 8.418,-1.55 12.047,9.54 3.016,10.92"
         style="fill:#ffffff;fill-opacity:1;fill-rule:nonzero;stroke:none"
         id="path310" />
      <path
         d="m 764.035,1926.94 c -10.305,2.83 -14.285,-18.49 -5.625,-22.09 10.528,-2.8 14.332,18.38 5.625,22.09"
         style="fill:#ffffff;fill-opacity:1;fill-rule:nonzero;stroke:none"
         id="path312" />
      <path
         d="m 901.313,1899.86 c 0,0 -3.84,-21.7 -3.598,-23.54 l -6.52,1.17 c -0.109,-0.14 4.012,19.03 5.012,23.19 -2.309,0.49 -5.031,0.25 -7.598,-0.73 l -0.046,0.07 2.613,5.46 17.707,-3.18 1.226,-6.02 c -1.48,1.45 -6.277,3.11 -8.796,3.58 z m -15.485,-1.22 c -0.644,-5.01 -2.988,-15.2 -2.074,-19.95 l -6.559,0.94 c 2.883,7.39 4.86,19.87 4.395,27.78 l 6.558,-0.95 c -1.07,-2.2 -1.843,-4.81 -2.32,-7.82 z m -17.469,-16.55 c -16.757,-3.14 -16.734,25.16 -3.285,29.12 16.828,3.52 16.899,-25.24 3.285,-29.12 z m -14.457,22.33 c -0.812,-3.2 -3.164,-5.4 -7.05,-6.6 1.695,-5.55 2.691,-7.39 5.554,-13.42 l -0.035,-0.14 -4.437,0.69 c -0.918,0.54 -6.489,8.34 -8.149,12.57 -0.972,-3.48 -1.965,-7.93 -1.558,-11.07 l -7.524,1.16 c 1.395,2.18 7.27,25.24 7.047,27.66 6.52,-0.82 18.215,-1.99 16.152,-10.85 z m -32.457,-12.99 c -3.937,-1.38 -9.55,0.17 -13.648,0.97 l 5.504,28.19 c 18.297,1.2 25.875,-22.48 8.144,-29.16 z m -25.972,2.39 c -2.043,0.44 -13.059,22.89 -13.059,22.89 0,0 -2.687,-17.44 -3.371,-18.66 l -5.012,0.72 5.715,27.37 5.555,-0.73 c 0.043,-0.71 8.777,-19.22 8.777,-19.22 0,0 2.922,14.99 3.188,16.33 l 4.242,-1.19 z m -22.993,17.71 c -5.972,-20.23 -29.292,-9.17 -22.351,8.86 5.902,19.61 29.254,9.24 22.351,-8.86 z m -24.363,21.8 c -0.996,-0.92 -4.515,-25.56 -4.281,-27.97 l -6.633,1.3 c 1.188,2.14 2.758,19.32 2.758,19.32 l -11.383,-17.69 -6.687,19.94 c 0,0 -2.711,-14.32 -2.821,-18.93 l -6.507,0.9 c 2.089,3.37 6.175,28.72 6.175,28.72 l 6.731,-1.26 c 0.183,-1.34 5.273,-18.55 5.273,-18.55 0,0 8.961,15.03 9.481,15.8 l 7.914,-1.48 z m 163.403,-17.41 c -8.254,0 -16.098,0.13 -19.93,0.45 -43.449,4.23 -86.449,16.65 -129.797,23.53 -12.504,1.97 -22.73,3.82 -31.594,3.82 -18.406,0.01 -30.918,-7.99 -45.742,-39.56 -6.316,-12.02 14.844,-23.47 19.504,-23.96 -17.387,14.84 -11.328,19.24 2.391,19.24 18.961,0 52.554,-8.4 59.136,-9.23 39.715,-6.31 79.864,-17.68 120.219,-22 1.418,-0.12 2.77,-0.19 4.063,-0.19 29.679,0 28.265,32.37 48.664,48.47 -3.629,-0.33 -15.653,-0.57 -26.914,-0.57"
         style="fill:#ffffff;fill-opacity:1;fill-rule:nonzero;stroke:none"
         id="path314" />
      <g
         id="g316"
         transform="scale(10)">
        <text
           xml:space="preserve"
           transform="matrix(1,0,0,-1,20.3102,129.569)"
           style="font-variant:normal;font-weight:normal;font-size:49px;font-family:HelveticaNeue;-inkscape-font-specification:HelveticaNeue;writing-mode:lr-tb;fill:#ffffff;fill-opacity:1;fill-rule:nonzero;stroke:none"
           id="text324"><tspan
             x="0 33.2603 47.4161 72.572395 107.4747 133.2486"
             y="0"
             sodipodi:role="line"
             id="tspan318">Crown </tspan><tspan
             x="0 33.314499 59.416096 99.105995 138.7959 163.4126 177.5981 201.77882 210.5835 234.9653 244.37253"
             y="53"
             sodipodi:role="line"
             id="tspan320">Commercial </tspan><tspan
             x="0 29.747601 54.364799 70.161697 92.368706 101.25151 125.55521"
             y="106"
             sodipodi:role="line"
             id="tspan322">Service</tspan></text>
      </g>
    </g>
  </g>
</svg>