<svg viewBox="75.77865 69.06788571428572 699.2907 91.64777142857143" xmlns="http://www.w3.org/2000/svg" style="max-height: 500px" width="699.2907" height="91.64777142857143"><defs><style>.cls-1{font-family:HelveticaNeue, 'Helvetica Neue';font-size:49px;}.cls-1,.cls-2{fill:#fff;}.cls-3{letter-spacing:-.06em;}.cls-4{letter-spacing:-.04em;}.cls-5{letter-spacing:-.04em;}.cls-6{letter-spacing:-.04em;}.cls-7{letter-spacing:-.04em;}.cls-8{letter-spacing:-.04em;}.cls-9{letter-spacing:-.04em;}.cls-10{letter-spacing:-.04em;}.cls-11{letter-spacing:-.04em;}.cls-12{letter-spacing:-.04em;}.cls-13{letter-spacing:-.05em;}.cls-14{letter-spacing:-.05em;}.cls-15{letter-spacing:-.04em;}.cls-16{letter-spacing:-.03em;}.cls-17{letter-spacing:-.03em;}.cls-18{letter-spacing:-.04em;}.cls-19{letter-spacing:-.01em;}</style></defs><g id="Line"><rect height="71.15" width="4.25" y="80.65" x="81.05" class="cls-2"/></g><g id="Lesser_Coat_of_Arms"><path d="M174.69,119.42l-.19-.02-.51-1.37c.24-.3.36-.79,0-1.04-.49-.19-1.89-1.79-2.3-.76-.18.06-1.28.13-1.37.33-.53-.84-.98-1.73-1.31-2.72.21-1.15,3.26-2.58,3.26-2.58,0,0-.86-1.24-1.21-1.94-.15.34-.29.2-.63.35,1.69-3,2.05-6.95-.19-9.79-.23-.49-.12-1.14-.35-1.62-.39-.51-.66-1.52-1.34-1.63,0,.89-.09,1.76.34,2.59.46.58-.63,1.06-.96.61.65-.07.76-.2.53-.57-2.79-.63-4.35,1.34-7.02,1.64-.23,0-.44.08-.58.3-1.64,2.21,2.04.7,2.36,2.17-.62.51-.7.17-1.28.03-.83.03-1.63.29-.6.99-.63.99-.6,1.34-1.89,1.43.56.79.44,1.92.58,2.82-.92.17-1.54.61-1.56,1.59-.41.09-.86-.12-1.15.32-.58-.48-1.24-.56-1.93-.58-.33-.25-1.15-.84-2.03-1.29.17-.65.34-1.26.49-1.83.26-.16,1.18-.75,1.42-.9-.12-.25-.61-1.23-.74-1.5,1.65-5.66,2.18-5.98,3.01-6.1l.04-.16-3.04-.97-.05.2c.77.56,1.02,1.48.67,2.57-.81-.35-1.28-1.12-1.19-1.81-.02,0-.2-.06-.2-.06l-1.02,3.38s.15.04.16.05c.4-.58,1.1-.9,1.9-.77-.94,3-5.18,2.06-4.42-.48.54-1.05,1.57-.38,1.07.72,2.38-.83.97-4.25-1.06-2.21.67-1.38,1.05-2.46.21-3.79-1.09.7-1.37,1.98-1.16,3.67-1.34-3.07-3.68.09-1.78,1.69-.35-2.28,2.46-.77.56,1.06-1.81,1.28-4.04-.19-4.11-2.46,1.05.09,1.85.71,1.95,1.49.02,0,.19,0,.19,0l.13-3.87s-.22-.01-.24-.01c-.16.78-1.01,1.45-2.09,1.47.07-1.19.76-2.12,1.64-2.27v-.22h-4.46v.22c.88.15,1.57,1.08,1.64,2.27-1.08-.02-1.93-.68-2.09-1.47-.02,0-.24.01-.24.01l.13,3.87s.17,0,.19,0c.11-.78.91-1.4,1.95-1.49-.06,2.26-2.3,3.74-4.11,2.46-1.9-1.84.91-3.34.56-1.06,1.9-1.6-.44-4.76-1.78-1.69.21-1.7-.07-2.97-1.16-3.67-.84,1.33-.46,2.41.21,3.79-2.04-2.04-3.43,1.38-1.06,2.21-.49-1.1.53-1.77,1.07-.72.76,2.55-3.48,3.48-4.42.48.81-.13,1.5.19,1.9.77.02,0,.16-.05.16-.05l-1.02-3.38s-.19.05-.2.06c.09.69-.38,1.46-1.19,1.81-.35-1.09-.1-2.01.67-2.57l-.05-.2-3.04.97.04.16c.83.12,1.37.44,3.01,6.1-.14.27-.62,1.24-.74,1.5.23.15,1.17.74,1.42.9.14.52.29,1.07.45,1.66,0,0,.01,0,.02,0,0,.02-.01.03-.02,0-4.1,1.91-3.17,3.22-6.32,2.84-.28.65-.55,1.3-1.19,1.74-.12-1-.56-1.77-1.15-2.48-.29-.34-.69.04-1.12.07-.85,1.86-1.45.18-2.95,1.16.06.87.19,1.73.67,2.53-1.12-.08-2.05-.38-2.79-.91-3.35,3.74-6.85,7.34-9.71,11.45-1.53,2.02-5.62.85-4.54-1.94.49-2.03,3.43-1.6,3.25.42,1.45-1.61.52-3.22-1.7-2.86,2.04-.88,3.26.79,5.09-1.5-1.4.03-2.59-.41-3.99-.09,1.77-1.06,4.2.51,5.71-2.41-1.32.14-2.51.69-3.87.89,8.17-7.79.31-8.18,1.31-11.54-.64.54-1.01,1.08-.71,1.81-1.83-.76-4.54-.54-5.29-2.76-.18,3.17,1.21,2.94,3.6,3.59-1.1-.13-2.19-.14-3.23-.52.21,1.42,1.29,1.72,2.56,1.59-1.24.69-.96,2.46.3,3.06-.81-4.58,6.06-3.01,2.92,1.2-1.45,2.17-3.56,3.78-5.33,5.67-.33-.58-.68-1.15-1.45-1.07,1.35,1.56-.17,3.25-.53,4.85-.52,1.98,1.23,3.67,3.11,3.9-.75.89-.81,1.68-.23,2.4.57-2.91,4.79-2.26,5.19-5.41.07-.37.25-.66.66-.83-1.9,2.15,2.67,6.71-1.63,7.24-.61.02-.77.66-.43,1.12-1.78-.09-2.27.59-2.54,2.26.78-.2,1.51-.39,2.25-.58-.77,2.03-2.53-.12-2.24,3.49.72-.34,1.39-.71,2.05-1.12.63,2.02-3.22,1.15-.33,4.38.18-.6.96-1.84,1.35-2.11-.36,1.02-.27,2.19.87,2.65.05-.27.1-.51.15-.75.05,0,.04,0,.1,0,.16.67.19,1.61.84,2,.22.09.33.21.4.43.12.38.47.48.81.52.43.09.53-.4.85-.59.09.53.72.62,1.03,1.07.24-2.63-3.25-1.67-2.45-3.41.31,1.06,1.3.83,1.99,1.26.27.44.92.8,1.25.19.33.24.62.46.91.68-.68-3.12-2.3-1.19-3.32-2.83.71.03,1.47,1.08,2.23.37.41.42.73.92,1.04,1.42.13-1-.25-1.76-1.03-2.31-.89-.54-2.09.42-2.85-.66-1.04-1.28-1.01-3.07-.47-4.55.49-1.14,1.87-1.56,2.51-2.64-.18.95-.09,2.61.99,2.91-.26-1.77.99-3.36,1.25-5.07.33-.43.34-.77.05-1.23-.53-.88-.68-1.93-1.27-2.8-.92-1.29-2.05-1.32-.18-2.68-1.14,1.76-.21,1.12.77,2.78.18-.56,1.02-1.29-.03-1.29-1.65-.81,2.15-2.91,3-2.97.85-.07,2.03.03,2.67-.81-.4-.76-.79-.87-.11-1.66-.46-.27-.87-.59-.95-1.2-.44.15-.83.29-1.28.45.42-.47,1.64-1.42,1.77-.37.03.59.61.7,1.07.84-.33.48-.89.97-.38,1.54.35.37.57,1.07,1.11,1.16.15-.55.29-1.07.43-1.61,1.2,1.26-1.21,1.96,2.09,3.09-.12-.68-.23-1.34-.14-2.04,1.59,1.33-.68,2.16,2.98,2.6-.41-.48-.5-1.02-.65-1.56.61.1,1.1.68,1.5,1.12.38.57.65.89,1.52.33.04.1.05.24.12.29.39.29.23.65.22,1.04h.11c.51-.51.54-1.1.39-1.75-.35-1.21-1.83-.25-2.35-1.48.7.48,1.39.75,2.16.36.43.4.61.7.82,1.27.35-1.31-.05-2.64-1.43-2.25-.43.15-.61.12-1.04-.26.64.22,1.06-.11,1.47-.4.09.11.14.24.2.25.39.02.64.26.88.54.13-1.12-.98-2.02-2.1-1.74-.28,1.37-1.43.59-2.34.41-1.42-.83-2.16-2.42-3.41-3.45.13-1.54-1.15-2.76-2.69-2.67,1.39-.6,3.03.59,3.14,2.03.05.59.41.96.79,1.41,4.68-9.42,19.8-11.88,28.48-5.9h0c.74.68,1.54,1.23,2.31,1.94.3-.9.12-1.97,1.46-1.42l.25-.17c-.27-.76.29-1.62,1.09-1.68v.59c-.35.06-.62.4-.56.76.27-.06.51.3.37.53.25.14.6.08.8-.12.22.01.45.03.67.05-.31.73-1.37.97-1.96.44h0c.12.16-.4,1.76-.42,1.95-.06.23-.28.39-.51.38.1.16.17.29.26.43.38-.21.91-.2.86-.74.07-.31-.12-1.71.31-1.59.18.53-.16,1.15.24,1.68,1.25-.31.7-1.44,2.22-1.74.6-.05,1.87-.35,2.2.26-1.33-.36-3.04,0-3.33,1.52-1.38.33-2.54,1.31-4.01,1.31-1.17.06-1.48,1.47-1.53,2.43-.19,1.1-.25,2.25-.75,3.27-.24.39-.04.84.09,1.2.45.24.77,1.79.83,2.34,0,1.01,1.73,1.35,2.44,1.98.2-1.27-2.21-.91-1.87-2.68.43,1.17,1.36,1.41,2.38,1.99-.32-1.19-.42-3.16-2.07-2.91-.64-.89.3-.94,0-2,.48.15.7.31.83.61-.15-.05-.28-.09-.48-.15.06.75.71.93,1.21,1.44-.08-1.23-.19-2.01-1.34-2.6-.65-.59.1-1.96.06-2.78-.02-.24,1.53-1.01,1.77-.95,1.15.15,2.35-.03,3.47.26,1.11.35.16-2.06,1.95-.79-1.3-.38-.51,1.03-1.45,1.11-.66,0-1.21-.06-1.89-.08,2.36,5.25,7.58,3.71,9.02,8.39,1.2-1.06.38-1.04.05-2.16,2.72,1.81-2.53,3.91-.56,7.08-.12-.36,1.11-1.84,1.25-2.15.22-.33.61-.36.85-.11l.39-.82c-.73-.4.59-2.12.69-2.6.14-.29.45-.43.69-.31l.37-1.02c-.69-.19-.17-1.86-.23-2.33-.97-.88-1.77-1.98-2.52-3l.47-.08c-.05.23.03.48.23.61.33.13,1.61,1.36,2.01,1.07l.2.54c-.32.09-.38.54-.38.85.17.14.36.28.52.43.02-.11,0-.61.1-.68.15.2.43.2.6.04.16.08-.04,1.17-.02,1.3.19.2.37.41.53.63-.07-.5.54-2.4-.31-2.49ZM161,101.73c.18-.02.32-.03.52-.06-.34-.25,0-.59.28-.35.68.53-.68,1.39-.8.4ZM133.78,106.69l-1.43-.91.76-1.53,2.06.74-1.39,1.7ZM138.46,105.5c-2.24.45-2.72-2.01-.47-2.42,2.24-.45,2.72,2.01.47,2.42ZM143.52,105.31l-2.21-1.56,2.21-1.56,2.21,1.56-2.21,1.56ZM150.55,104.63c-.26,1.58-3.8.9-3.46-.67.26-1.58,3.8-.9,3.46.67ZM151.88,104.99l2.06-.74.76,1.53-1.43.91-1.39-1.7ZM168.89,97.74c.41.45.58.94.58,1.49-.39-.14-.56-.56-.58-1.49ZM167.03,100.66c-.55.37-1.04.93-1.59.18-.13.03-.24.05-.37.07.83-1.28.76-1.06,1.96-.25ZM162.47,105.3c.36.13.71.32,1.08-.04-.35,0-.46-.25-.56-.49-.17-1.21,1.8-.78,2.53-.69,1.85,1.12,4.99.41,3.9-2.26.85.53.56,1.99-.09,2.56-1.71.92-3.33.23-5.03,2.04-.26-.83-1.24-.78-1.59.13-.33.02-.41.02-.72.04-.06-.48.33-.83.49-1.28ZM168.91,113.22c-.08.09-.23.29-.23.29-1.42-1.62-6.21-3.48-8.28-3.18,0,0,.03-.24.04-.37h-.01s.79-.49.79-.49l-.67-.56c0-.08-.43-2.81-.43-2.81l1.19-.04s-.42.5-.44.89c.07.05.12.11.16.2.24-.1.49-.59.49-.59l.11,1.61s-.33-.46-.57-.55c-.02.06-.04.11-.09.16.34,1.07,1.91,1.13,1.91.22-.05-.48-.58-.4-.55.11-.86-.68.3-1.76.78-.67-.06-.63,0-.98.48-1.29.32.41.28.79-.07,1.4,1.05-.98,1.45.68.47.92.48-.87-.9-.6-.4.31.47.71,1.59.61,1.99-.17-.03-.05-.05-.1-.06-.15-.39-.08-.98.26-.98.26l.55-1.49s.23.64.56.83c.06-.06.13-.09.22-.11.06-.39-.33-1.01-.33-1.01l1.82.7s-.72.18-.95.51c.05.07.07.15.08.23.38.08,1-.24,1-.24l-.65,1.45s-.19-.64-.53-.84c-.04.03-.09.05-.15.07-.26.84.5,1.65,1.33,1.45,1.01-.31.21-1.45-.07-.49-.54-.84.92-1.77.99-.36.18-.68.42-.99.94-1.07.14.55-.08.85-.57,1.26,1.13-.48,1.18,1.09.09,1.01.38-.35.04-.75-.33-.44-.65.68.57,1.65,1.52,1.17,0-.06.01-.12.04-.17-.24-.17-.8-.18-.8-.18l1.17-.87s-.14.52-.03.8c.09-.01.17,0,.26.03.25-.25.27-.93.27-.93l.87,1.09s-2.19,1.01-2.58,1.3l-.61-.06.3.86h-.02ZM173.62,117.67c-.28-.03-.5.22-.41.51-.03,0-.05-.01-.08-.03l-1.28-.88c-.08-.06-.11-.17-.06-.27.24,0,.5-.13.47-.43.1.13,1.48.86,1.37,1.08Z" class="cls-2"/><path d="M158.15,111.44c-.1-.12-.12-.28-.04-.41-.16-.03-.41,1.41-.47,1.49.1.1.2.2.28.3.13.04.36.12.41-.08,0,0,.33-1.27.33-1.27-.15.14-.4.15-.52-.03Z" class="cls-2"/><path d="M138.86,147.51c-3.62-1.43-6.26,2.08-3.3,2.67-3.25.14-2.62-4.43-3.96-4.16,1.17,1.27,1.17,3.62,2.26,4.27,2.18.93,4.45,1.08,6.79.97-1.18-1.04-1.46-2.36-1.78-3.76Z" class="cls-2"/><path d="M149.93,150.13c2.95-.59.34-4.1-3.3-2.67-.32,1.4-.61,2.71-1.78,3.76,2.34.11,4.61-.04,6.79-.97,1.08-.65,1.08-3.01,2.26-4.27-1.34-.27-.71,4.3-3.96,4.16Z" class="cls-2"/><path d="M173.69,121.79c0,.07.02.14.06.18.17-.14.42-.08.54.09.19-.05.13-.64.17-.78-.21-.23-.44-.45-.68-.66l-.09,1.18Z" class="cls-2"/><path d="M172.78,126.14c.02-.17.93-1.68.69-1.81-.16.03-.36-.06-.42-.21-.22-.09-.8,1.55-.9,1.66.29-.18.66.12.56.45.03-.02.06-.05.07-.09Z" class="cls-2"/><path d="M183.14,119.18c-.76.23-1.07.86-1.36,1.58-1.91-2.97-5.53-5.02-6.08-8.66.43-2.91,4.28-2.24,3.5.79,2-1.07,1.03-3.07-.85-3.43,2.05.16,3.16,1.89,4.56-.98-1.21.44-3.05.13-3.69.03,2.55-.34,3.93-.32,3.85-3.48-.87,1.89-3.27,1.93-5.01,2.54.11-.84-.15-1.36-.83-1.63.69,4.62-8.07,3.11,1.56,13.09-1.18-.65-2.55-.43-3.7-1.16.89,2.4,2.4,1.99,4.37,2.82-2.11-.01-2.77,2.05-1.2,3.04-.41-1.59,1.78-2.69,2.87-1.44,2.5,3.21-2.07,7.67-6.13-.38.03.44-.28.84-.71.71l-.46,1.27c.93.34-.5,2.14-.6,2.66-.16.34-.52.45-.79.26l-.45.93c.56.52-.95,1.98-1.12,2.43-.18.26-.49.35-.71.21l-.16.34s.06.07.06.07c1.03,1.21,1.5,2.15,1.22,3.44.83-.71,1.2-2.69.54-3.77.75.79,1.85,1.35,2.28,2.35.43,1.82.1,3.64-1.14,5.08-.53.53-.39.81-.45,1.45-.35,1.03-1.58,1.11-2.04,1.99-.33.76-.86,1.39-1.1,2.19,1.4-.22,1.16-2.17,2.48-2.56-.54.82-1.06,1.56-1.42,2.51,1.1-.29,3.19-.58,2.84-2.14-.26-.72.44-1.19.4-1.88.87-.31.67-.67,1.09-1.35.19.41.2.76.18,1.21-.11-.22-.17-.36-.25-.52-.62.84-.1,1.66-.19,2.55,3.05-2.73-1-2.71,2.16-8.76.73-1.2-2.07-1.07-2.28-3.79-.2-1.18.84-2.14,1.06-3.26,1.22,2.17,5.47,2.09,4.89,4.86.86-.65.82-1.83.48-2.72,4.39-1.58.93-5.62,2.34-8.48Z" class="cls-2"/><path d="M170.07,129.58c.1.04.18.11.22.21.07.01.15-.03.2-.1.03-.1,1.12-1.52.99-1.62-.12-.04-.23-.12-.27-.25-.1-.1-.25-.15-.35,0-.04.18-1.25,1.54-.94,1.71.05,0,.1,0,.15.03Z" class="cls-2"/><path d="M169.43,129.86s.04.06.05.09l.02-.04-.07-.05Z" class="cls-2"/><path d="M126.95,136.02c.44.08.93.17,1.35-.03-.66-1.13-1.32-2.24-1.99-3.39-1.18,1.45-3.23.57-4.51-.33-1.05-.77,1.21-1.97.49-4.55,1.01,1.62-.82,3.03,2,3.94-.82-1.22-.71-2.78-1.01-4.17-.04-.24-.15-.48.04-.72.1-.33.12-.78-.34-.83-3.16-1.81-2.52-.93-5.6-1.35-.75,1.33.85,2.52.6,3.83-.23.64.74.61.73,1.23.22.97.11,2.33-1,2.71-.55.33-.11,1.04.37,1.2-.98,1.77-.23,2.05,1.27,2.93,0-.68.02-1.28.3-1.86,2.07,1.37-1.01,1.6,3.08,3.26-.42-.69-.4-1.43-.47-2.12.39.09.76.18,1.15.27.44,1.89,1.47,2.06,3.28,1.89-.65-.64-.83-1.48-1.3-2.15.54.18,1.09-.19,1.55.23Z" class="cls-2"/><path d="M163.83,125.46c-.56.09-.69.33-.59.87-.62,1.35-.64,2.99-1.71,4.13,2.29-.65,1.79-1.52,2.34-3.26-.11,2.37,0,2.34.87,3.95-1.77,1.24-4.66.2-5.63,2.61.27.31.62,0,.98.08-.23.28-.32.61-.69.85.08-.23.13-.38.18-.52-.66-.22-1.21,1.29-1.7,1.78,4.72-.95-.57-2.34,8.74-3.42,1.65-.77-1.56-1.99,1.68-4.04.29-1.12.46-2.27,1.07-3.28.14-.33-.08-.8-.39-1.03-1.42,1-2.09-.61-5.15,1.27Z" class="cls-2"/><path d="M116.12,106.03c.02-.31.04-.62.06-.95-.35-.06-.68-.12-1.05-.18.43-.32.95-.4,1.37-.24-.36,1.53.29,2.6,1.92,2.68.5-.74.95-.85,1.43-.33-2.15-.22-.56,2.05.54,1.28.29-.42,1.22-.79.95-1.39-1.71-1.25-1.59.59-1.91-2.49-.07,0-.15-.01-.22-.02-.16.59-.73,1.04-1.21.49-.16-.18-.31-.36-.57-.4,1.17-.93,2.56.41,2.48-1.78,1.3,1.63,1.42-.18,2.71-.21-.06,1.29-.33,1.2-1.44,1.12.36.28,1.75,1.66.94,1.8-.34-.87-.91-1.71-1.87-1.88-.78.78-.4,1.64-.27,2.54.69-.23,1.28-.68,2.01-.62.24.71-.9,1.11-.25,1.82,1.11.18,2.32.19,1.96-1.39-.36-.22-.72-.36-1.1.03.02-.61.62-.72,1.08-.6,1.03-1.09.68-2.54-.42-3.41.29-.43.6-.73,1.13-.83-.18.37-.55.51-.64.84.25.3.47.58.7.86.59-.26.74-1.19.33-2.13-.73.19-2.01.79-2.01.79-.63-.24-.36.07-.27.37-2.01.37-3.98.9-5.57,2.23-.29.21-.42.08-.51-.32-.19-.29-.28.21-.3.34,0,0-1.21.29-1.73.74.37.61.89,1.58,1.73,1.26Z" class="cls-2"/><path d="M124,105.43c.18.91-.07,1.67-.67,2.38.89,1.6,2.4,2.81,3.07,4.53,1.49-2.78-.1-3.72-2.15-5.25,1.32.47,2.64.92,3.37,2.18.16-2.39-.9-3.58-3.22-3.95,0-.03.01-.06.02-.1.97-.04,1.93-.04,2.83.55-.24-.74-.84-1.84-1.72-1.74.31-.66.31-1.09,0-1.49-.15.46-.44.75-.91.76.1.83-.17,1.51-.62,2.12Z" class="cls-2"/><path d="M116.62,110.87c.27.67.69,1.44,1.36,1.72-.35-1.32.54-2.46.95-3.65,0,2.74-1.55,4.23,2.21,5.24-1-1.61-.34-3.57-.97-5.23-.6-.35-1.29-.43-1.7-.94-.11-.24-.32-.33-.54-.37-.71-.15-1.36-.39-1.71-.98-.52.16-.83.14-1.3-.06-.04.59.46,1.17,1.11.95-.53.77-.23,1.46-.04,2.25.38-.79.95-1.27,1.6-1.67-.49.84-1.37,1.69-.97,2.74Z" class="cls-2"/><path d="M131.73,138.87c.51-.47-.18-.75-.45-1.11-4.54-4.22-6.23-9.71-5.83-15.81-.11-.05-.25-.12-.47-.24-.76,6.47,1.73,12.99,6.76,17.16Z" class="cls-2"/><path d="M172.25,103.73c-.43.83.81,1.18.83,1.96-.33-.26-.61-.48-.92-.73-.4,1.54,1.42,2.03,1.98,3.25.73-2.25.33-3.61-1.89-4.48Z" class="cls-2"/><path d="M122.38,110.36c-1.2.07-1.03-1.44-1.38-2.28-.22.25-.4.45-.6.67.25.84.5,1.68.76,2.58.2-.14.37-.26.55-.39.84.59,1.61.19,1.88-.74.25.06.48.17.65-.01-.39-.81-.77-1.6-1.16-2.4-.24.05-.47-.29-.75-.02.27.75,1.26,2.24.04,2.59Z" class="cls-2"/><path d="M172.02,99.97s-.01.07-.02.1c-.38-.02-.75-.04-1.15-.06.42,1.36,2,.7,3,1.32-.57-1.09-.98-2.16-2.31-2.37.14-.65-.03-1.26-.44-1.5,0,.57-.23.98-.75,1.2-.26,1.13.92,1.07,1.67,1.31Z" class="cls-2"/><path d="M171.68,107.8l-.09.02c-.27,1.2.56,2.25,1.09,3.28.91-1.61.87-3.45-.58-4.72-.44.86.17,1.67.39,2.48-.03.01-.06.02-.09.04-.24-.37-.48-.73-.71-1.1Z" class="cls-2"/><path d="M171.34,101.03c.52,1.24,1.35.94,1.89,1.75-.46-.15-.85-.28-1.24-.41-.03,1.31,1.63,1.45,2.54,1.96-.15-2.13-1.18-2.93-3.19-3.3Z" class="cls-2"/><path d="M166.58,98.8c.57,0,1.38.36,1.85.04.01-1.79-2.18-1.56-3.42-1.59.37.67.84,1.33,1.57,1.56Z" class="cls-2"/><path d="M160.36,124.37c-.47-.04-.91-.07-1.41-.11.02.25.03.44.05.64.28.07.52.13.78.19.08,1.48-.74,1.5-1.84.88-.33,1.87,2.69,1.69,2.42-1.61Z" class="cls-2"/><path d="M159.31,118.39c-1.67,2.04-1.68,2.34.86,3.21-.02-.23-.04-.38-.06-.56-.5-.15-.98-.33-1.43-.63.32-.4.62-.77.93-1.15-.09-.26-.18-.53-.3-.88Z" class="cls-2"/><path d="M151.55,110.95c.28-.02.52-.04.77-.06.27-1-.3-1.11-.98-1.64-.28.83-1,1.23-1.42,1.93.67-.05,1.05-.26,1.44-.78.07.2.13.38.19.56Z" class="cls-2"/><path d="M155.38,115.47c.24-.66,1.49-2.27.82-2.78-.31.18-.96.11-.9.6,0,.72,0,1.44,0,2.15.03,0,.06.02.09.03Z" class="cls-2"/><path d="M167.86,97.11s.05-.07.08-.11c-.71-1.01-1.01-1.21-2.25-1.22.02,1.22,1.28,1.22,2.17,1.33Z" class="cls-2"/><path d="M164.68,94.1c-.05.86.67,1.36,1.87,1.29-.31-.87-.93-1.34-1.87-1.29Z" class="cls-2"/><path d="M161.88,103.04c-.97-.45-1.77.12-2.74-.09.28,1.36,1.89.37,2.74.09Z" class="cls-2"/><path d="M163.73,92.73c.25.87.59,1.05,1.48.92-.28-.71-.74-1-1.48-.92Z" class="cls-2"/><path d="M164.21,92.28c-.34-.74-.52-.83-1.25-.76.3.73.74,1,1.25.76Z" class="cls-2"/><path d="M159.76,116.29c.23.4.46.79.69,1.18.9,0,.14-.75-.07-1.07-.12-.13-.37-.13-.56-.18-.02.03-.04.05-.06.08Z" class="cls-2"/><path d="M157.18,117.33c.46-.26.93-.47,1.34-.8-.1-.14-.17-.24-.27-.39-.39.39-1.32.51-1.07,1.19Z" class="cls-2"/><path d="M163.13,91.08c.13-.47-.54-1.09-1.02-.9.06.52.61.97,1.02.9Z" class="cls-2"/><polygon points="152.87 117.13 152.87 117.12 152.87 117.13 152.87 117.13" class="cls-2"/><path d="M118.17,99.1c.25-.23-.13-.61-.37-.37-.25.23.12.61.37.37Z" class="cls-2"/><path d="M118.49,99.79c.25-.23-.13-.61-.37-.37-.25.23.12.61.37.37Z" class="cls-2"/><path d="M116.78,96.7h0s-.59.04-.59.04l.31.78.42-.49s.05.03.08.03c0,0,.06,1.03.06,1.04h0c.11.91,1.49.35.94-.38,0,0-.67-.79-.67-.79.01-.02.03-.05.03-.08l.64.07-.31-.78-.46.38s-.05-.03-.08-.03l-.05-.75c-.19.08-.57.23-.76.3l.48.58s-.02.05-.03.07Z" class="cls-2"/><path d="M115.09,100.76c.38.01.39-.59,0-.59-.38,0-.39.59,0,.59Z" class="cls-2"/><path d="M115.03,101.53c.38.01.39-.59,0-.59-.38,0-.39.59,0,.59Z" class="cls-2"/><path d="M116.25,98.9c.38.01.39-.59,0-.59-.38,0-.39.59,0,.59Z" class="cls-2"/><path d="M115.33,100.06c.38.01.39-.59,0-.59-.38,0-.39.59,0,.59Z" class="cls-2"/><path d="M118.91,100.79c-.02-.29.19-.88.19-.88-.3.12-.91.36-1.21.48,0,0,.55.27.74.5-.25.09-.5.13-.85-.03l.47.93c.1-.41.31-.66.47-.69.51.78-.76,1.64-1.3.97-.16-.28.03-.58.35-.35-.05-.58-.55-.58-.7-.15.01-.59-.14-.95-.76-1.13-.16.59.04.95.63,1.2-.34-.04-.7.29-.24.7,0-.37.32-.41.49-.16.27.69-.54.96-1.21.26.15-.05.31-.03.52.02l-.64-.8c.03.28.01.49-.05.61-.14-.16-.18-.3-.24-.61l-.48.43c.46.29.98.75,1.62,1.66.84-.83,4.25-2.25,5.56-2.21-.16-1.1-.1-1.79.04-2.32l-.64.02c.17.26.23.39.24.6-.13-.05-.28-.19-.46-.41l.09,1.02c.12-.18.22-.31.37-.37,0,.97-.78,1.33-1.06.65-.05-.3.2-.48.46-.22.05-.62-.45-.61-.66-.34.26-.59.15-.99-.37-1.31-.33.55-.19.92.22,1.34-.41-.21-.77.14-.41.59.08-.39.42-.3.5.01.06.86-1.45,1.1-1.61.19.14-.09.46-.06.82.17l-.3-1c-.15.36-.35.5-.6.61Z" class="cls-2"/><path d="M134.86,132.43c.46.26.96.56,1.43.82-1.14,1.38.9,1.98.79.63.76.33,3.76,1.25,2.56-.54-3.93.13-5.94-4-3.76-7.15,1.32.6,5.97-1.66,5.59.64.24.26.31.28.86.28,1.35-3.09-3.29-2.17-4.95-1.81-1.48.44-2.85-1.73-4.15-.54-.52.46-.18,1.49.53,1.52.63.02.81-.84.25-1.11,1.22-.41.63,1.55.19,2.05-1.4-.72-1.63,1.53-.25.94.06.4.08.8-.02,1.19-1.51-.33-1.11,1.84.02.97.33.31.48.79.51,1.26-1.52.22-.3,2.16.4.86Z" class="cls-2"/><path d="M139.25,134.79c-.06-.02-.13-.04-.21-.07-.11.28-.27.8-.02.98,0,0,1.27.55,1.27.55l1.64-1.21.44-6.57-.48.04c-.13.01-1.02,7.59-1.49,7.14.09-.5,1.18-7.14,1.18-7.14,0,0-.32-.05-.48-.07-.03.15-.06.35-.06.35l-1.81-2.37-.24.11,1.93,2.54-.12.45c-.18-.12-2.04-2.71-2.23-2.95l-.38-.03,2.52,3.28-.13.44-2.82-3.71h-.36s3.05,4.02,3.05,4.02l-.16.58-3.35-4.56h-.44s3.71,4.91,3.71,4.91l-.14.45-4.09-5.35-.07.41s3.81,5.01,4.04,5.34c-.2.62-.05.67.22,1.18.15.57-.25,1.46-.92,1.25Z" class="cls-2"/><path d="M139.63,132.71l-3.92-5.19s-.08.25-.11.35c.29.38,3.75,4.97,3.75,4.97l.27-.13Z" class="cls-2"/><path d="M135.71,129.27c.9,1.15,1.79,2.32,2.67,3.48.13.02.38.07.38.07l-3.2-4.24s-.06.43.15.7Z" class="cls-2"/><path d="M142.53,127.34c-.43-.04-.89-.12-1.32-.16-.82.72.1,1.13.72,1.07.53.14,1.23-.56.6-.91Z" class="cls-2"/><path d="M142.4,145.87c-.13.59.79.77.91.18.13-.59-.79-.77-.91-.18Z" class="cls-2"/><path d="M143.23,142.34c.16-.73-.99-.96-1.12-.23-.16.73.99.96,1.12.23Z" class="cls-2"/><path d="M139.32,140.41c.16-.73-.99-.96-1.12-.23-.16.73.99.96,1.12.23Z" class="cls-2"/><path d="M145.61,147.52c-.46,2.62-1.72,3.81-2.83,3.81s-2.36-1.18-2.83-3.81c.14.13.28.3.44.51l.24.32.34-.21c.15-.09.29-.16.42-.22-.15.3-.2.66-.13,1.03.15.79.77,1.34,1.52,1.34.74,0,1.37-.56,1.51-1.34.07-.37.02-.73-.13-1.03.13.05.27.12.42.22l.34.21.24-.32c.16-.21.29-.38.44-.51M146.16,146.81c-.65.07-.99.51-1.33.96-.31-.19-.71-.38-1.08-.38-.2,0-.4.05-.56.19,1.19.47.77,2.27-.39,2.28-1.16,0-1.59-1.81-.39-2.28-.17-.14-.36-.19-.56-.19-.38,0-.78.19-1.08.38-.34-.45-.68-.89-1.33-.96.36,3.31,1.87,4.96,3.37,4.96s3.02-1.65,3.37-4.96h0Z" class="cls-2"/><path d="M135.37,138.14c.5-.6-1.25-1.39-1.51-1.72-.21-.13-.47-.09-.61.09-.5.57,1.22,1.37,1.46,1.69.21.16.51.14.66-.05Z" class="cls-2"/><path d="M135.15,139.42c1.94,0,1.68-3.06-.22-2.74.88.48,1.65,1.74.28,2.11-.52.11-1.05-.45-1.43-.73.01.75.63,1.35,1.38,1.35Z" class="cls-2"/><path d="M132.4,139.93c.43.81,2.92,3.01,3.59,1.97-1.22-.62-3.28-2.13-2.49-4.06-1.79-1.1-.21-2.85,1.18-1.36,1.48-.92,3.13-.26,4.59.75.53-1.14-2.02-1.92-2.62-2.26-.75-.25-3.12.28-3.91.32-.54.07-.93.55-.88,1.09.12.58.1,3.08.53,3.54Z" class="cls-2"/><path d="M154.33,96.58l1.1.35c-1.74-3.67-4.93-6.42-8.76-7.41-.09.26-.18.53-.26.82,3.37.85,6.21,3.14,7.92,6.23Z" class="cls-2"/><path d="M131.61,96.94l1.1-.35c1.71-3.09,4.55-5.39,7.92-6.23-.08-.29-.16-.56-.26-.82-3.84.99-7.02,3.74-8.76,7.41Z" class="cls-2"/><path d="M151.81,91c.79.01.79-1.22,0-1.21-.79-.01-.79,1.22,0,1.21Z" class="cls-2"/><path d="M149.03,89.42c.79.01.79-1.22,0-1.21-.79-.01-.79,1.22,0,1.21Z" class="cls-2"/><path d="M147.52,88.87c.79.01.79-1.22,0-1.21-.79-.01-.79,1.22,0,1.21Z" class="cls-2"/><path d="M150.46,90.13c.79.01.79-1.22,0-1.21-.79-.01-.79,1.22,0,1.21Z" class="cls-2"/><path d="M153.06,92.01c.79.01.79-1.22,0-1.21-.79-.01-.79,1.22,0,1.21Z" class="cls-2"/><path d="M156.2,96.57c-.01.79,1.22.79,1.21,0,.01-.79-1.22-.79-1.21,0Z" class="cls-2"/><path d="M155.47,95.15c-.01.79,1.22.79,1.21,0,.01-.79-1.22-.79-1.21,0Z" class="cls-2"/><path d="M154.19,93.15c.79.01.79-1.22,0-1.21-.79-.01-.79,1.22,0,1.21Z" class="cls-2"/><path d="M154.59,93.8c-.01.79,1.22.79,1.21,0,.01-.79-1.22-.79-1.21,0Z" class="cls-2"/><path d="M135.23,91c.79.01.79-1.22,0-1.21-.79-.01-.79,1.22,0,1.21Z" class="cls-2"/><path d="M133.99,92.01c.79.01.79-1.22,0-1.21-.79-.01-.79,1.22,0,1.21Z" class="cls-2"/><path d="M130.24,97.18c.79.01.79-1.22,0-1.21-.79-.01-.79,1.22,0,1.21Z" class="cls-2"/><path d="M136.58,90.13c.79.01.79-1.22,0-1.21-.79-.01-.79,1.22,0,1.21Z" class="cls-2"/><path d="M131.85,94.4c.79.01.79-1.22,0-1.21-.79-.01-.79,1.22,0,1.21Z" class="cls-2"/><path d="M130.97,95.75c.79.01.79-1.22,0-1.21-.79-.01-.79,1.22,0,1.21Z" class="cls-2"/><path d="M139.52,88.87c.79.01.79-1.22,0-1.21-.79-.01-.79,1.22,0,1.21Z" class="cls-2"/><path d="M132.86,93.15c.79.01.79-1.22,0-1.21-.79-.01-.79,1.22,0,1.21Z" class="cls-2"/><path d="M138.01,89.42c.79.01.79-1.22,0-1.21-.79-.01-.79,1.22,0,1.21Z" class="cls-2"/><path d="M144.57,95.05h.81c0-2.56.37-4.77,1.04-6.24.22-.47-.52-.82-.74-.34-.96,2.11-1.11,5.02-1.11,6.57Z" class="cls-2"/><path d="M141.67,95.05h.81c0-1.55-.15-4.46-1.11-6.57-.21-.48-.96-.14-.74.34.67,1.46,1.04,3.68,1.04,6.24Z" class="cls-2"/><path d="M143.52,95.04c.85.01.85-1.33,0-1.31-.85-.01-.85,1.33,0,1.31Z" class="cls-2"/><path d="M143.52,93.4c.85.01.85-1.33,0-1.31-.85-.01-.85,1.33,0,1.31Z" class="cls-2"/><path d="M143.52,91.75c.85.01.85-1.33,0-1.31-.85-.01-.85,1.33,0,1.31Z" class="cls-2"/><path d="M143.06,90.14c.28-.15.65-.15.93,0,.94-1.45-1.87-1.45-.93,0Z" class="cls-2"/><path d="M144.05,88.76c.73-1.36-1.78-1.36-1.04,0,.3-.19.74-.19,1.04,0Z" class="cls-2"/><path d="M143.13,83.23c-.11.84-.55,1.49-1.09,1.59v.21h1.07c-.05.04-.09.08-.13.13-1.9.42-2.1,3.32-.28,4.01-.71-.68-.16-2,.84-1.97,1-.03,1.55,1.28.84,1.97,1.82-.68,1.62-3.58-.28-4.01-.04-.05-.08-.09-.13-.13h1.07v-.21c-.55-.1-.99-.75-1.09-1.59.84.11,1.49.55,1.59,1.09h.21v-2.98h-.21c-.1.55-.75.99-1.59,1.09.11-.84.55-1.49,1.09-1.59v-.21h-2.98v.21c.55.1.99.75,1.09,1.59-.84-.11-1.49-.55-1.59-1.09h-.21v2.98h.21c.1-.55.75-.99,1.59-1.09Z" class="cls-2"/><path d="M169.43,129.86h0c-.07-.11-.13-.23-.19-.34.02.14.08.26.19.34Z" class="cls-2"/><path d="M168.93,131.12c-.84-.53-1.31,1.8-1.62,2.2-.15.34-.02.71.29.82l-.62,1.29c-.33-.06-.62.2-.62.59.13.5-.37,2.68.51,2.71v.6c-2.14.38-1.82,3.76.38,3.7,2.19.05,2.53-3.29.41-3.7v-.58c.33.06.62-.2.62-.59-.12-.49.34-2.59-.44-2.7l.47-.98c.8.44,1.27-1.84,1.58-2.23.14-.32.03-.68-.25-.8l.36-.74c-.1-.13-.31-.44-.5-.77l-.56,1.17ZM168.53,141.17c-.52,3-4.38.03-1.62-1.24.13.29.57.3.69,0,.53.16.92.65.92,1.23ZM167.65,138.09c.06-.43-.5-.67-.72-.3.06-.16-.15-1.8.15-1.8.13.09.29.11.43.01.09.01.17.11.17.22v1.76s0,.07-.02.1ZM169.28,132.15c-.09.1-.69,1.81-.89,1.74-.08-.14-.27-.23-.42-.18-.09-.04-.13-.17-.08-.28.11-.12.67-1.86.93-1.74.07.16.27.27.44.22.05.06.06.15.02.23Z" class="cls-2"/><path d="M126.04,127.35l.19.73,3.34-.41-.16-.66c-.17-.04-2.25.35-2.25.35,0,0,1.98-2.31,1.93-2.59l-3.37.38.07.58c.16-.02,1.98-.28,1.98-.28,0,0-1.65,1.86-1.73,1.9Z" class="cls-2"/><path d="M127.23,131.64c1.62,1.55,4.16-.93,2.49-2.52-1.62-1.56-4.2.93-2.49,2.52ZM127.42,129.91c.71-1.29,3.07-.52,2.09.95-.73,1.25-3.05.54-2.09-.95Z" class="cls-2"/><path d="M129.48,135.29l.56.78c.6-.74,1.83-1.63,2.72-1.97l-.56-.78c-.22.36-.7.71-1.08.97l-.87-1.2c.37-.27.85-.62,1.26-.72l-.56-.78c-.6.74-1.83,1.63-2.72,1.97l.56.78c.22-.36.7-.7,1.07-.97l.87,1.2c-.36.27-.84.62-1.25.71Z" class="cls-2"/><path d="M129.16,123.62l.05-.71c-.96.18-2.5.18-3.45,0l-.05.71c.96-.18,2.5-.18,3.45,0Z" class="cls-2"/><path d="M153.43,138.07c2.05-.89,1.59-2.93-.72-2-.97-.27.25-1.26.9-1.04h.02s-.49-.59-.49-.59c-.73.32-1.89,1.29-1.27,2.12.43.55,1.29-.04,1.85-.03.94.17-.07,1.14-.65,1.09h0" class="cls-2"/><path d="M159.04,130.97l.58-1.97c-.29.02-2.95-.75-3.19-.93l-.55,1.87.55.47h.01c-.04-.44.02-.92.17-1.46l1.01.29c-.1.29-.28.96-.42,1.13l.5.07.32-1.09.96.28c-.12.36-.27.64-.48.85l.52.47Z" class="cls-2"/><path d="M157.69,133.59l.31-.61-2.62-1.76-.29.55c.1.13,1.81,1.14,1.81,1.14,0,0-2.82.37-2.95.59l2.62,1.8.31-.44c-.13-.08-1.57-1.02-1.57-1.02,0,0,2.31-.26,2.38-.24Z" class="cls-2"/><path d="M150.46,140.01l1.82-1.05c-.23-.18-1.65-2.5-1.7-2.78l-1.73,1,.08.71h.01c.27-.34.66-.65,1.16-.94l.54.88c-.28.15-.88.52-1.11.55l.32.39,1.01-.58.52.84c-.34.19-.66.29-.95.3l.05.69Z" class="cls-2"/><path d="M130.11,116.96c-.54-.43-1.25.34-1.8.46-.95.06-.2-1.13.38-1.21h0s-.46-.35-.46-.35c-.86.44-1.51,2.3-.12,2.34.29.01,1.05-.51,1.29-.56.65-.12.45.75.05.96.19,0,.4-.04.58.01.36-.51.59-1.25.07-1.65Z" class="cls-2"/><path d="M130.79,115.96c-1.52-.1-1.84-2.73,0-2.33v-.64c-2.38-.14-2.35,3.64,0,3.56v-.59Z" class="cls-2"/><path d="M134.57,111.31s1.04,0,1.05,0c-.4-.63-.72-1.14-.72-1.14.36-.21,1.14-.52,1.48-.5l-.83-.63-2.54,1.52.29.97h.01c.21-.4.51-.72.85-.91.08.14.22.39.39.7Z" class="cls-2"/><path d="M141.98,110.87h0c-.5.42-1.15.26-1.69-.04-1.58.89-3.29-1.19-2.02-2.52,1.33-1.59,3.98.21,2.7,1.97.42.32.75.52,1,.59ZM140.04,110.36c1.27-.49.17-2.46-.96-2-1.26.48-.17,2.46.96,2Z" class="cls-2"/><path d="M142.45,109.46c-.01-.54.07-1.51-.17-1.97h1.13c-.18.51-.51,2.84.46,2.72.38,0,.76-.26.75-.65-.02-.56.07-1.58-.17-2.06h1.13c-.26.88-.26,2.41,0,3.29h-.96c.02-.07.03-.18.03-.33-.98.69-2.29.35-2.2-.99Z" class="cls-2"/><path d="M147.23,111.08c.2-.81.48-2.19.93-2.87l-.88-.29c0,.87-.46,2.22-.75,3.05q.34.04.69.11Z" class="cls-2"/><path d="M152.58,122.04h.56v-8.9h-8.22v8.9h7.66ZM149.44,121.77h0s0,0,0,0ZM148.62,121.77h0s0,0,0,0h0ZM152.86,117.21s0,0,0,0h0s0,0,0,0ZM149.43,113.41h0s0,0,0,0h0ZM145.2,117.98h0s0,0,0,0c0,0,0,.08,0,.09.02-.17.28-.05.15.07l.04.04c.27.03.31-.37.04-.39h0s.33-.15.33-.15v-.1l-.33-.14h0c.28-.03.24-.43-.04-.4l-.04.04c.13.11-.13.24-.15.07,0,.01,0,.09,0,.1h0v-3.54h.28v-.26h3.05c.17.03.03.26-.08.14l-.04.04c-.03.27.42.29.42.02h0l.16.32h.1l.16-.32c0,.27.45.25.42-.02l-.04-.04c-.11.12-.25-.11-.08-.14,0,0,3.05,0,3.05,0v.26h.28c-.03-.06.11,4.34-.15,3.37l-.04-.04c-.27-.03-.31.38-.03.39h0s-.33.15-.33.15v.1l.33.14h0c-.27.02-.23.43.03.4l.04-.04c.26-1,.12,3.5.15,3.37h-.28v.26h-3.05c-.17-.02-.04-.26.08-.14l.04-.04c.03-.26-.41-.29-.42-.03h0l-.15-.31h-.1l-.15.31h0c-.01-.26-.44-.23-.42.03l.04.04c.11-.12.25.12.08.14,0,0-3.04,0-3.04,0v-.26h-.28v-3.53Z" class="cls-2"/><path d="M154.35,122.38c0-.18-.2-.32-.38-.26v.04c-.32,1.47-.17-4.57-.2-4.35l.3.12v-.7l-.3.12v-4.45c.04-.22.39-.03.2.11v.04c.41.13.53-.53.09-.53l.27-.47-.06-.06s-.49.27-.49.27c0-.41-.7-.31-.57.09h.04c.15-.18.36.14.12.19,0,0-4.11,0-4.11,0l.13-.28h-.75l.13.28h-4.1c-.25-.04-.04-.37.11-.19h.04c.13-.39-.56-.5-.56-.09,0,0-.49-.27-.5-.27l-.07.06.27.47c-.44,0-.32.66.09.53v-.04c.32-1.46.17,4.54.2,4.34l-.29-.12v.7l.29-.12c-.03-.11.13,5.78-.2,4.35v-.04c-.41-.13-.53.53-.09.53l-.27.47.07.06s.49-.27.5-.27c0,.41.7.31.56-.09h-.04c-.06.1-.23.05-.23-.07,0-.06.05-.11.11-.12h4.11l-.13.28h.75l-.13-.28h4.1c.06,0,.11.06.11.12,0,.12-.17.17-.23.07h-.04c-.13.4.56.49.57.09,0,0,.49.27.49.27l.07-.06-.27-.47c.16,0,.29-.12.29-.27ZM149.38,112.8h4.11v9.58h-8.93v-4.82h0s0,0,0,0v-4.76h4.82Z" class="cls-2"/><path d="M152.85,118.07h0s0,0,0,0Z" class="cls-2"/><path d="M152.85,117.1h0s0,0,0,0Z" class="cls-2"/><path d="M145.21,118.08h0s0,0,0,0Z" class="cls-2"/><path d="M145.21,117.11h0s0,0,0,0Z" class="cls-2"/><path d="M115.52,101.22l.2-.16c.08-.82.46-1.55,1.09-2-.04-.06-.09-.11-.13-.16-.71.52-1.13,1.38-1.16,2.33Z" class="cls-2"/><path d="M117.45,100.07l.19-.06c-.13-.35-.4-.99-.8-1.4-.09-.09-.24.04-.15.13.28.28.54.75.75,1.33Z" class="cls-2"/><path d="M115.73,99.42c.38.01.39-.59,0-.59-.38,0-.39.59,0,.59Z" class="cls-2"/><path d="M121.33,98.15c-.26.28-.69-.13-.43-.41.26-.28.69.14.43.41Z" class="cls-2"/><path d="M121.92,98.65c-.26.28-.69-.13-.43-.41.26-.28.69.14.43.41Z" class="cls-2"/><path d="M119.19,97.68c-.26.28-.69-.13-.43-.41.26-.28.69.14.43.41Z" class="cls-2"/><path d="M120.66,97.84c-.26.28-.69-.13-.43-.41.26-.28.69.14.43.41Z" class="cls-2"/><path d="M121.36,98.79l-.26.03c-.64-.52-1.43-.76-2.19-.62-.01-.07-.02-.14-.03-.2.87-.15,1.77.16,2.48.8Z" class="cls-2"/><path d="M119.14,99.35l-.18.09c-.16-.34-.43-.98-.44-1.55,0-.13.2-.14.2-.01,0,.39.15.91.42,1.47Z" class="cls-2"/><path d="M119.93,97.67c-.26.28-.69-.13-.43-.41.26-.28.69.14.43.41Z" class="cls-2"/><path d="M151.59,129.28c.85-.02,2.83-.95,1.39-1.73-.81-.14-1.61.26-2.38.44-3.12,1.24-1.29-.28-3.23-.11.65,1.65,2.3.8,3.54.41.04.18-.19.23-.16.41.42-.09.81-.17,1.2-.25.17-.81,1.65-.82.97,0-1.71.74-3.72.61-5.51,1.11-1.19,3.13-3.27,1-3.25,1.9-.47.04-.46.49.02.46.01.91,2.31-.14,2.74-.42.1-.22.2-.42.29-.63.7.34,1.19-.67,1.8-.84.6-.12,1.39-.71,1.91-.16.57.63,1.43-.33,1.94.31-.19.49.06.28.14.59,0,.28.45.27.46,0,0-.12.01-.2.13-.25.26-.39-.29-.82-.48-1.14-.42-.4-1.12.37-1.54-.06Z" class="cls-2"/><path d="M143.88,127.91c.14.05.09.21.15.29.73.05,1.47-.15,2.21-.24.55,0,.53-.49.94-.56.98.05,1.59-.81,2.51-.95.74-.21,1.74-.48,2.39.04.16.18.39.21.62.17.31-.06.68-.12.85.24-.05.06-.1.11-.18.18.03.07.07.15.11.23.15-.01.18.11.24.21.08.14.28.14.31,0,.04-.17.22-.09.27-.24.03-.45-.07-1.01-.52-1.24-.22-.21-1.1.22-1.12-.22.65.15,1.91-.7,1.05-1.26-1.46-.34-3.06.36-4.54.53-.58.13-.29-.82-1.58-.56.83,1.73,2.62.5,4,.49,0,.16-.26.15-.2.34.4-.13,1.09.09,1.32-.31.13-.49,1.16-.38.86.19-.78.5-1.93.27-2.84.37-1.12.09-2.33.12-3.38.51-.21.65-.49,1.31-1.24,1.47-.52-.51-1.28.09-1.84-.42-.18.04-.22.15-.29.29-.27.1-.37.26-.09.45Z" class="cls-2"/><path d="M152.1,132.45c-1.46-.19-1.24.82-1.96.58.13-.16.49-.25.37-.49-1.07.47-2.19.8-3.26,1.28-.54.57-.36,1.72-1.59,1.83-.04.6-.88,1-1.4.73-.21.19-.12.25-.09.43-.18.16-.42.53-.04.52.12-.03.21-.2.34-.15,0,.08-.02.15-.03.24.1,0,.24.03.27-.01.17-.21.41-.04.6-.2.63-.42,1.52-.81,1.48-1.69,1.11-.49,1.75-2.28,3.2-1.65.71.39.91-.77,1.55-.8.18.42.27.39.5.25.4.31.33-.18.49-.41.02-.22-.21-.48-.43-.48Z" class="cls-2"/><path d="M145.5,125.43c-.23.66,0,1.54.62,1.91.71-.32,1.16-1.24.91-2.01.17-.14.38-.21.31-.45-.11-.27-.53-.07-.64-.38-.27-.36-.62-.07-.83.18-.16.02-.32-.06-.47.01-.15.28.27.45.09.74Z" class="cls-2"/><path d="M145.32,134.72c.69,1.64,1.72-.45,1.46-1.34.47-.39.34-.62-.23-.66-.2-.43-.64-.48-.94-.11-.11.13-.26.08-.4.1-.29.14-.13.46.13.53-.14.5-.21.99-.02,1.48Z" class="cls-2"/><path d="M147.2,128.62c-.13-.08-.3-.08-.45-.07-.24-.64-.69-.4-1.04-.02-.53-.21-.45.27-.17.53-.27.65-.08,1.61.61,1.89.73-.3.93-1.19.89-1.9.23-.04.41-.29.17-.43Z" class="cls-2"/><path d="M152.43,130.77c-1.31-.44-3.36,2.4-4.23,1.57-.21-.46-.86-.41-1.27-.28.49.35.76,1.13,1.5.88.84-.16,1.5-.84,2.23-1.15.02.24-.23.35-.33.58.5-.16.95-.3,1.31-.61-.06-1.37,1.9-.41.02.43.33,0,.57.16.79-.12.43-.39.46-.95-.03-1.29Z" class="cls-2"/><path d="M149.46,133.95c-.38.1-.77.13-1,.52.1.13.19.25.29.38-.18.47-.66.39-1.1.41.04.15.06.23.09.33-.19.1-.26.27-.22.5.05.02.11.04.17.06.12-.15.35-.31.4-.02.8-.26,1.52-.75,1.9-1.5-.23-.18-.42-.38-.52-.69Z" class="cls-2"/><path d="M148.41,131.12c-.17,0-.21.22-.09.32.12.13.23-.01.36.03,0,.07,0,.13.01.19.7.04,1.76-.58,2.13-1.15-.15-.23-.29-.45-.44-.68-.38.12-.81.11-1.04.46.14.15.26.27.39.41-.26.14-.55.38-.83.15-.11-.1-.43-.06-.35.15.01.03,0,.07-.01.11-.05,0-.09.01-.13.01Z" class="cls-2"/><path d="M145.43,135.39c-.26-.51-.67-.97-.86-1.5.23-.32.13-.74-.3-.48-.11-.22-.27-.26-.47-.21-.06.14-.09.28.06.38,0,0,0,.04,0,.06-.05.02-.1.03-.14.05-.11.28.17.44.27.66.3.48.75,1.63,1.45,1.03Z" class="cls-2"/><path d="M145.43,127.04c-.04-.7-.85-1.15-.6-1.86.06-.13.04-.29-.09-.39q-.24.06-.41-.05c-.3-.15-.35.19-.32.4-.06.03-.12.05-.2.09.21.6.84,2.11,1.63,1.81Z" class="cls-2"/><path d="M143.86,129.42c.3.45.38,1.18.89,1.44.23,0,.59.21.72-.06-.15-.54-.82-.85-.72-1.47.03-.14-.02-.29-.14-.41-.26.08-.8-.51-.6.19-.16.06-.26.17-.15.32Z" class="cls-2"/><path d="M132.28,115.4c.11,0,.22-.12.34,0-.01.06-.02.12-.03.18.71.31,1.49-.04,2.2-.23.28-.09.44-.37.75-.36.73.05,1.15-.56,1.77-.74.77-.15,1.56-.27,2.35-.26.91,1.24,1.07.19,1.89.61-.02.12-.05.24-.07.37.08.03.15.05.21.07-.08.31.38.49.44.1,0-.05-.01-.11.05-.12.48-.26-.26-1.54-.77-1.21-.26.12-.61.25-.81-.07.45-.18,1.01-.14,1.32-.56.23-.28.21-.84-.23-.99-1.14-.32-2.34.26-3.49.36-2.16.59-.62-.46-2.33-.45.61,1.76,2.46.63,3.73.5-.09.21-.3.28-.39.47.45-.09,1.05.08,1.38-.27.17-.48,1.32-.54,1.05.12-1.08,1.05-4.46.07-5.96.74-.22.69-.62,1.14-1.28,1.33-.54-.33-.78.05-1.32-.1-.15-.17-.3-.35-.53-.17,0,.07,0,.15,0,.25-.25-.07-.54.28-.27.44Z" class="cls-2"/><path d="M134.15,112.72c-.4.73-.28,1.39.19,2,.89.03,1.25-1.18,1.1-1.91.09-.06.18-.12.27-.19-.03-.1-.05-.18-.07-.27-.16,0-.31-.01-.45-.02-.32-.41-.51-.42-.9-.05q-.26-.1-.44.13c.06.13.15.23.28.3Z" class="cls-2"/><path d="M138.47,114.29c-.04.2.15.29.18.45-.24.15-.49.16-.75.2-.13-.13-.19-.37-.42-.3-.13.03-.06.17-.16.23q-.26-.02-.3.24c.08.05.16.1.24.14-.19.92,2.3-.04,2.67-.31-.12-.2-.28-.35-.32-.58-.1-.4-.84-.07-1.15-.06Z" class="cls-2"/><path d="M133.8,114.41c-.03-.32-.11-.7-.36-.92-.28-.29-.38-.69-.09-1.01-.14-.14-.34-.03-.48-.22-.18-.21-.29.03-.33.25-.51.07-.22.24-.1.51.17.47.77,1.59,1.36,1.38Z" class="cls-2"/><path d="M141.34,117.82c-.26.12-.61.25-.82-.07.45-.19,1.02-.14,1.33-.57.23-.28.21-.85-.23-1-1.15-.32-2.36.26-3.52.36-2.18.59-.62-.47-2.35-.46.62,1.77,2.48.63,3.77.5-.09.21-.3.29-.39.47.46-.09,1.06.08,1.4-.27.18-.49,1.33-.54,1.06.12-1.09,1.06-4.49.07-6.01.75-.23.69-.63,1.15-1.29,1.34-.46-.28-.71-.05-1.1-.07.02.13.05.25.09.38.03.13.05.26.06.39.46-.05.92-.23,1.35-.34.28-.09.44-.37.75-.37.74.05,1.16-.56,1.79-.74.78-.15,1.57-.27,2.37-.26.92,1.25,1.08.19,1.9.61-.02.12-.05.24-.07.37.08.03.15.05.21.07-.08.31.38.49.44.1,0-.05-.01-.11.05-.12.49-.27-.26-1.56-.78-1.22Z" class="cls-2"/><path d="M134.03,116.73c-.4.74-.28,1.4.19,2.02.89.03,1.26-1.19,1.11-1.93.09-.06.18-.12.27-.19-.03-.1-.05-.18-.07-.27-.16,0-.31-.01-.45-.02-.32-.42-.52-.42-.9-.05q-.26-.1-.44.13c.06.13.15.23.29.3Z" class="cls-2"/><path d="M138.39,118.31c-.04.21.15.29.18.46-.24.16-.5.16-.75.2-.13-.13-.19-.38-.42-.31-.13.03-.06.17-.16.23q-.26-.02-.3.24c.08.05.16.1.24.14-.2.92,2.32-.04,2.7-.31-.12-.21-.28-.35-.33-.59-.1-.4-.85-.07-1.16-.06Z" class="cls-2"/><path d="M133.68,118.43c-.03-.32-.11-.7-.36-.93-.29-.29-.38-.7-.09-1.01-.15-.14-.34-.03-.48-.22-.18-.21-.29.03-.34.25-.51.07-.22.24-.1.52.17.47.78,1.61,1.37,1.4Z" class="cls-2"/><path d="M141.43,121.59c-.26.12-.61.25-.82-.07.45-.18,1.02-.14,1.33-.57.23-.28.21-.85-.23-1-1.15-.32-2.36.26-3.52.36-2.17.59-.62-.47-2.35-.46.62,1.77,2.47.63,3.76.5-.09.21-.3.29-.39.47.45-.09,1.05.08,1.39-.27.18-.49,1.33-.54,1.06.12-1.09,1.06-4.49.07-6,.75-.23.69-.63,1.15-1.29,1.34-.54-.33-.79.05-1.33-.1-.05-.06-.11-.12-.16-.17-.02,0-.03-.02-.04-.03-.02-.01-.04-.02-.06-.03,0,0,0,.02,0,.03,0,.32-.07.63-.19.92.7.28,1.48-.06,2.17-.25.28-.09.44-.37.75-.36.73.05,1.15-.56,1.78-.74.78-.15,1.57-.27,2.37-.26.91,1.25,1.08.19,1.9.61-.02.12-.05.24-.07.37.08.03.15.05.21.07-.08.31.38.49.44.1,0-.05-.01-.11.05-.12.49-.27-.26-1.56-.78-1.22Z" class="cls-2"/><path d="M134.13,120.5c-.4.74-.28,1.4.19,2.02.89.03,1.26-1.19,1.11-1.92.09-.06.18-.12.27-.19-.03-.1-.05-.18-.07-.27-.16,0-.31-.01-.45-.02-.32-.42-.52-.42-.9-.05q-.26-.1-.44.13c.06.13.15.23.29.3Z" class="cls-2"/><path d="M138.48,122.08c-.04.21.15.29.18.45-.24.16-.5.16-.75.2-.13-.13-.19-.38-.42-.31-.13.03-.06.17-.16.23q-.26-.02-.3.24c.08.05.16.1.24.14-.19.92,2.32-.04,2.69-.31-.12-.21-.28-.35-.33-.59-.1-.4-.85-.07-1.16-.06Z" class="cls-2"/><path d="M133.42,121.27c-.05-.06-.1-.11-.14-.18-.02.17.07.36.04.52-.02.13-.06.32-.1.44.21.2.33.22.56.14-.03-.32-.11-.7-.36-.93Z" class="cls-2"/><path d="M146.47,114.78c.2.12.34.7.46.78.22.29.69,1.08,1.15.92h0c.14-.07.27-.46.27-.52,0-.02-.08-.09-.17-.15-.43-.37-.69-.74-.7-1.08-.02-.11.25-.26.23-.37,0-.39-.33.05-.46-.02-.07-.11-.31-.43-.46-.28-.09.04.02.27-.05.33-.03.04-.05.05-.16.05-.35,0-.39.21-.11.34Z" class="cls-2"/><path d="M148.31,117.42c.11-.11.46-.45.5-.53.03-.08.05-.08.29-.1.67-.1,1.01-.37,1.2-1.09.09-.22-.03-.68-.16-.79-.05-.04-.08-.11-.04-.13.12-.02.39-.12.43-.27-.07-.14-.25-.03-.48-.11-.17-.08-.64-.22-.82-.12-.13.16-.92.18-.77.41.03.09.09.28.09.28l.36.04v.26s-.25.06-.34.07c-.21.31.51.34.7.09.13-.15.33-.17.32,0-.1.21-.44.31-.64.41-.3.05-.38.64-.61.84-.66.12-.89.11-1.54-.42-.24-.27-.42-.07-.25.15-.12.04-.72-.3-.45.28l.04.05c-.3.43.15.28.39.41.53.21,1.11.37,1.79.25Z" class="cls-2"/><path d="M150.41,117l.28.58s.6.27.68.35c.34.25.28.92-.02.85-.5-.2-.79-.9-1.14-1.34-.09-.07-.33-.78-.48-.6-2.05.46.37.98,0,1.74-.07.11-.3.64-.21.72.17.21.56.36.76.63.33.33.03.7-.38.4-.23-.18-.51.08-.27.31.02.05-.14.11-.17.13-.24.33.16.32.37.15.12-.06,0,.29.2.24.37-.08.95-.27,1.05-.85.23-.54-.31-.45-.44-.92-.13-.19-.14-.9.15-.64.27.34.63.54.97.23.31-.29.03-.99-.13-1.3-.3-.62-.64-1.21-.61-1.95.41-.49.9.39,1.19-.98-.97.07-1.92.72-1.44,1.8.29.61.23.57-.35.45Z" class="cls-2"/><path d="M148.85,118.16c-.51-.03-.9-.07-.76.54.03.15.08.59.17.69.04.06.03.12-.02.16-.21.12-.99-.2-.89-.47,0-.22-.22-.27-.29-.12-.04.07-.09.07-.17-.02-.14-.21-.35.07-.26.23.03.06,0,.13-.08.14-.21.09-.2.38.1.39.65.3,1.22.61,1.98.51h-.01c.83-.06.4-.22.36-.79-.14-.62.92-1.02-.13-1.27Z" class="cls-2"/><path d="M149.63,127.01c-.05-.05-.19,0-.2.04,0,.28-.29.2-.38.39.06.12.14.21.27.2.16-.01.15.18.29.19.68-.31,1.49-.24,2.07-.77-.22-.19-.27-.44-.32-.7-.39.03-.78-.03-1.12.16-.03.18.09.28.18.43-.28.12-.53.18-.79.06Z" class="cls-2"/><path d="M160.53,119.35c-.27-.58-.89-3.8-1.79-3.1,4.12,7.69,1.37,17.8-5.77,22.66-2.1,1.27-4.7,3.37-7.18,1.97,1.6-6.24,9.27-3.6,10.94-15.49-.2-.1-.28-.16-.47-.2-.24,1.66-.66,3.26-1.28,4.79.67-1.77.24-7.31.37-7.61-.07-.09-.14-.13-.37-.41.04.67,0,.91,0,1.8h-11.64v-12.14h11.43v6.85s.04.36.07.48c.16-.25.18-.24.29-.32v-7.36h-23.96l-.02,6.21h.35v-5.85h11.5v12.14h-11.09s0-.19-.03-.16c0-.03-.08.19-.08.16h-.31c0-.57,0-.91,0-.93h-.35c-.26.9.5,8.52,1.75,9.85-2.5-2.43-3.29-6.73-2.82-9.98,0,0-.23-.18-.49-.41-.79,4.57.94,9.08,4.14,12.35.28.3.59-.02.93-.11-.07-.07-.22-.19-.32-.33.13.13.24.25.32.33l-.18-.49c-2.51-1.92-2.93-7.41-2.98-9.93h11.5s0,15.23-.02,15.26c-2.45-.12-4.1-2.77-6.46-2.8,3.39,2.01,9.59,6.86,13.51,4.73.03.04.02.03.05.07-.41.52-1.86,1.49-2.51,1.24-1.07-.64-2.71.53-1.96,1.72.1.14.16.26.04.45-4.24-.4-8.05-2.93-11.62-5.1-.03.04-.03.03-.06.07,1.37,1.85,6.26,4.14,6.26,4.14v2.75s.31.21.52.35v-2.97c1.28.44,3.88,1.25,3.88,1.25v1.86s.5-.32.5-.32l-.03-1.39.69-.19c.44-.12.72-.54.66-.99-.21-.1-.35-.31-.29-.6.1-.54.76-.55,1.02-.23.53.24,1.05-.4,1.57-.55.74-.45,1.65-.84,1.99-1.69.07-.21.18-.34.36-.44,1.49-.85,2.93-1.78,4.14-3,5.19-4.39,7-11.93,5.27-18.38ZM143.34,124.11h11.64c.95,8.9-4.26,11.87-11.64,14.97v-14.97ZM143.55,140c.82-.73,1.39-.99,2.45-1.24-.29.66-.57,1.28-.87,1.95-.53-.24-1.05-.47-1.59-.71Z" class="cls-2"/><path d="M117.58,144.89c-.27-.16-.6-.21-.99-.15.08.59.3,1.68.47,2.25,1.1-.16,1.43-1.53.52-2.1Z" class="cls-2"/><path d="M132.54,140.85h0c-6.59.01-13.15,2.82-19.75,2.82-.79,0-1.58-.04-2.37-.13,2.04,1.61,1.9,4.85,4.87,4.85.13,0,.26,0,.4-.02,4.04-.43,8.05-1.57,12.02-2.2.68-.1,3.97-.91,5.9-.91.69,0,1.21.1,1.36.38.21.38-1.1,1.48-1.11,1.53,0,.01,0,.02.02.02.13,0,.85-.42,1.39-.78,2.15-1.54-2.35-5.56-2.74-5.56ZM118.66,146.32c-.36.85-1.43,1.05-2.27,1.19.04-.26-.47-2.73-.63-2.95,1.45-.62,3.52-.02,2.9,1.76ZM119.52,146.84c.04-.85-.24-2.2-.63-2.96l.84-.18c-.04.85.24,2.2.63,2.96l-.84.18ZM122.75,146.14l-1.73.38c.04-.26-.52-2.68-.67-2.9l1.82-.4-.15.61c-.25-.07-.55-.07-.88,0l.2.88,1.01-.22.16.43c-.2-.03-.81.12-1.08.17l.21.92c.5-.11.9-.27,1.23-.49h0s-.13.64-.13.64ZM124.52,145.86c-1.26.03-1.44-1.77-1.73-2.65l.61-.11c.29.77.21,2.58,1.51,2.34.93-.42.18-1.91.08-2.62l.6-.09c.23,1.19.77,3.26-1.06,3.14ZM129.52,144.97l-1.72.4c.03-.26-.55-2.67-.69-2.89l1.81-.42-.14.61c-.25-.07-.55-.07-.88,0l.21.88,1-.23.17.43c-.2-.03-.81.13-1.08.18l.22.92c.49-.11.9-.28,1.22-.51h0s-.12.65-.12.65ZM131.33,142.03l.49,2.5-.58.1-.51-2.49c-.35.06-.55.06-1.03.27l-.02-.56,2.49-.32.17.47c-.23-.08-1.02.02-1.02.02Z" class="cls-2"/><path d="M163.07,143.63c-.14.55-.36,1.59-.43,2.15,1.29.27,1.7-1.89.43-2.15Z" class="cls-2"/><path d="M168.13,144.51c-.99-.24-1.31,1.82-.49,2.14,1.01.24,1.31-1.81.49-2.14Z" class="cls-2"/><path d="M165.55,144.13l-.3,1.09c.84.16,1.2-.95.3-1.09Z" class="cls-2"/><path d="M157.62,142.56c-1.03-.28-1.43,1.85-.56,2.21,1.05.28,1.43-1.84.56-2.21Z" class="cls-2"/><path d="M172.37,143.66c-.83,0-1.61-.01-1.99-.05-4.34-.42-8.64-1.66-12.98-2.35-1.25-.2-2.27-.38-3.16-.38-1.84,0-3.09.8-4.57,3.96-.63,1.2,1.48,2.35,1.95,2.4-1.74-1.48-1.13-1.92.24-1.92,1.9,0,5.26.84,5.91.92,3.97.63,7.99,1.77,12.02,2.2.14.01.28.02.41.02,2.97,0,2.83-3.24,4.87-4.85-.36.03-1.57.06-2.69.06ZM156.03,141.92c-.1.09-.45,2.56-.43,2.8l-.66-.13c.12-.21.28-1.93.28-1.93l-1.14,1.77-.67-1.99s-.27,1.43-.28,1.89l-.65-.09c.21-.34.62-2.87.62-2.87l.67.13c.02.13.53,1.86.53,1.86,0,0,.9-1.5.95-1.58l.79.15h0ZM158.47,144.1c-.6,2.02-2.93.92-2.24-.89.59-1.96,2.93-.92,2.24.89ZM160.77,145.87c-.2-.04-1.31-2.29-1.31-2.29,0,0-.27,1.74-.34,1.87l-.5-.07.57-2.74.56.07c0,.07.88,1.92.88,1.92,0,0,.29-1.5.32-1.63l.42.12-.6,2.75ZM163.36,146.11c-.39.14-.96-.02-1.36-.1l.55-2.82c1.83-.12,2.59,2.25.81,2.92ZM166.61,144.81c-.08.32-.32.54-.71.66.17.56.27.74.56,1.34h0s-.44-.06-.44-.06c-.09-.05-.65-.83-.81-1.26-.1.35-.2.79-.16,1.11l-.75-.12c.14-.22.73-2.52.7-2.77.65.08,1.82.2,1.62,1.09ZM168.06,147.04c-1.68.31-1.67-2.52-.33-2.91,1.68-.35,1.69,2.52.33,2.91ZM169.8,145.39c-.06.5-.3,1.52-.21,2l-.66-.09c.29-.74.49-1.99.44-2.78l.66.09c-.11.22-.18.48-.23.78ZM171.35,145.27s-.38,2.17-.36,2.35l-.65-.12s.4-1.9.5-2.32c-.23-.05-.5-.03-.76.07h0s.26-.55.26-.55l1.77.32.12.6c-.15-.15-.63-.31-.88-.36Z" class="cls-2"/></g><g id="Name"><text transform="translate(200.2 133.32)" class="cls-1"><tspan y="0" x="0" class="cls-8">C</tspan><tspan y="0" x="33.26" class="cls-15">r</tspan><tspan y="0" x="47.42" class="cls-3">o</tspan><tspan y="0" x="72.57" class="cls-14">w</tspan><tspan y="0" x="107.47" class="cls-16">n </tspan><tspan y="0" x="145.4" class="cls-4">C</tspan><tspan y="0" x="178.72" class="cls-11">o</tspan><tspan y="0" x="204.82" class="cls-6">mm</tspan><tspan y="0" x="284.2" class="cls-17">e</tspan><tspan y="0" x="308.81" class="cls-7">rc</tspan><tspan y="0" x="347.18" class="cls-5">i</tspan><tspan y="0" x="355.98" class="cls-18">a</tspan><tspan y="0" x="380.37" class="cls-16">l </tspan><tspan y="0" x="401.93" class="cls-12">S</tspan><tspan y="0" x="431.67" class="cls-17">e</tspan><tspan y="0" x="456.29" class="cls-19">r</tspan><tspan y="0" x="472.09" class="cls-13">v</tspan><tspan y="0" x="494.29" class="cls-9">i</tspan><tspan y="0" x="503.18" class="cls-10">c</tspan><tspan y="0" x="527.48" class="cls-16">e</tspan></text></g></svg>