<svg width="360" height="36" viewBox="0 0 360 36" fill="none" xmlns="http://www.w3.org/2000/svg">
<rect width="359.805" height="35.8" fill="black" fill-opacity="0"/>
<path d="M2.1 0H0V35.3H2.1V0Z" fill="white"/>
<rect width="43.112" height="35.7" fill="black" fill-opacity="0" transform="translate(10.3877 0.100006)"/>
<path d="M29 5.90001C28.8 6.30001 28.6 6.50001 28.7 6.80001C28.7 7.10001 29 7.30001 29.2 7.60001C29.3 7.30001 29.6 7.00001 29.5 6.70001C29.5 6.50001 29.1 6.10001 29 5.90001Z" fill="white"/>
<path d="M34.2 5.90001C34.4 6.30001 34.6 6.50001 34.5 6.80001C34.5 7.10001 34.2 7.30001 34 7.60001C33.9 7.30001 33.6 7.00001 33.7 6.70001C33.8 6.50001 34.1 6.10001 34.2 5.90001Z" fill="white"/>
<path d="M26 5.7C26.2 5.7 26.4 5.5 26.4 5.3C26.4 5.2 26.2 5 26 5C25.8 5 25.6 5.2 25.6 5.4C25.7 5.6 25.8 5.7 26 5.7Z" fill="white"/>
<path d="M26.3 6.2C26.3 6 26.1 5.8 25.9 5.8C25.7 5.8 25.6 6 25.6 6.2C25.6 6.4 25.8 6.6 25.9 6.6C26.1 6.6 26.3 6.4 26.3 6.2Z" fill="white"/>
<path d="M26.4 7.10001C26.4 6.90001 26.2 6.70001 26 6.70001C25.8 6.70001 25.6 6.90001 25.6 7.10001C25.6 7.30001 25.8 7.40001 26 7.40001C26.3 7.40001 26.4 7.30001 26.4 7.10001Z" fill="white"/>
<path d="M28 4.10001C28.2 4.10001 28.4 3.90001 28.4 3.70001C28.4 3.50001 28.2 3.40001 28 3.40001C27.8 3.40001 27.6 3.60001 27.6 3.70001C27.6 3.90001 27.8 4.10001 28 4.10001Z" fill="white"/>
<path d="M27.1 4.30001C27.3 4.30001 27.4 4.10001 27.4 4.00001C27.4 3.80001 27.2 3.60001 27.1 3.60001C26.9 3.60001 26.7 3.80001 26.7 4.00001C26.7 4.20001 26.9 4.30001 27.1 4.30001Z" fill="white"/>
<path d="M26.4 4.90001C26.6 4.90001 26.8 4.70001 26.8 4.60001C26.8 4.40001 26.6 4.20001 26.4 4.20001C26.2 4.20001 26 4.40001 26 4.60001C26.1 4.80001 26.2 4.90001 26.4 4.90001Z" fill="white"/>
<path d="M28.9 4.10001C29.1 4.10001 29.3 3.90001 29.3 3.70001C29.3 3.50001 29.1 3.40001 28.9 3.40001C28.7 3.40001 28.5 3.60001 28.5 3.70001C28.5 4.00001 28.7 4.10001 28.9 4.10001Z" fill="white"/>
<path d="M29.7 4.40001C29.9 4.40001 30.1 4.20001 30.1 4.00001C30.1 3.80001 29.9 3.70001 29.7 3.70001C29.5 3.70001 29.3 3.90001 29.3 4.00001C29.4 4.20001 29.6 4.40001 29.7 4.40001Z" fill="white"/>
<path d="M30.6 4.8C30.8 4.8 31 4.6 31 4.4C31 4.2 30.8 4 30.6 4C30.4 4 30.2 4.2 30.2 4.4C30.2 4.6 30.4 4.8 30.6 4.8Z" fill="white"/>
<path d="M36.8 5.4C36.8 5.6 37 5.8 37.2 5.8C37.4 5.8 37.6 5.6 37.6 5.4C37.6 5.2 37.4 5 37.2 5C37 5 36.8 5.2 36.8 5.4Z" fill="white"/>
<path d="M37.3 5.90001C37.1 5.90001 36.9 6.10001 36.9 6.20001C36.9 6.40001 37.1 6.60001 37.3 6.60001C37.5 6.60001 37.7 6.40001 37.7 6.20001C37.6 6.00001 37.5 5.90001 37.3 5.90001Z" fill="white"/>
<path d="M37.1 6.70001C36.9 6.70001 36.7 6.90001 36.7 7.10001C36.7 7.30001 36.9 7.40001 37.1 7.40001C37.3 7.40001 37.5 7.20001 37.5 7.10001C37.5 6.90001 37.3 6.70001 37.1 6.70001Z" fill="white"/>
<path d="M35.2 4.10001C35.4 4.10001 35.6 3.90001 35.6 3.70001C35.6 3.50001 35.4 3.40001 35.2 3.40001C35 3.40001 34.8 3.60001 34.8 3.70001C34.9 3.90001 35 4.10001 35.2 4.10001Z" fill="white"/>
<path d="M36.1 4.30001C36.3 4.30001 36.5 4.10001 36.5 4.00001C36.5 3.80001 36.3 3.60001 36.1 3.60001C35.9 3.60001 35.7 3.80001 35.7 4.00001C35.7 4.20001 35.9 4.30001 36.1 4.30001Z" fill="white"/>
<path d="M36.8 4.90001C37 4.90001 37.2 4.70001 37.2 4.60001C37.2 4.40001 37 4.20001 36.8 4.20001C36.6 4.20001 36.4 4.40001 36.4 4.60001C36.4 4.80001 36.6 4.90001 36.8 4.90001Z" fill="white"/>
<path d="M34.3 4.10001C34.5 4.10001 34.7 3.90001 34.7 3.70001C34.7 3.50001 34.5 3.40001 34.3 3.40001C34.1 3.40001 33.9 3.60001 33.9 3.70001C34 4.00001 34.1 4.10001 34.3 4.10001Z" fill="white"/>
<path d="M33.4 4.40001C33.6 4.40001 33.8 4.20001 33.8 4.00001C33.8 3.80001 33.6 3.70001 33.4 3.70001C33.2 3.70001 33.1 3.90001 33.1 4.00001C33.1 4.20001 33.3 4.40001 33.4 4.40001Z" fill="white"/>
<path d="M32.3 4.4C32.3 4.6 32.5 4.8 32.6 4.8C32.8 4.8 33 4.6 33 4.4C33 4.2 32.8 4 32.6 4C32.4 4.1 32.3 4.2 32.3 4.4Z" fill="white"/>
<path d="M31 6.30001H31.4V4.80001C31.3 4.80001 31.1 4.70001 31 4.70001V6.30001Z" fill="white"/>
<path d="M32.2 4.70001C32.1 4.80001 31.9 4.80001 31.8 4.80001V6.30001H32.2V4.70001Z" fill="white"/>
<path d="M31.4 3.00001V2.10001C31 2.20001 30.6 2.50001 30.5 3.00001H31.4Z" fill="white"/>
<path d="M31.8 3.00001H32.7C32.6 2.60001 32.3 2.20001 31.8 2.10001V3.00001V3.00001Z" fill="white"/>
<path d="M30.5 3.5C30.6 4 31 4.4 31.6 4.4C32.1 4.4 32.6 4 32.7 3.5H30.5V3.5Z" fill="white"/>
<path d="M32.2 2.00001C31.9 1.80001 31.8 1.50001 31.7 1.20001C32 1.30001 32.3 1.50001 32.5 1.70001V0.500006C32.3 0.800006 32 1.00001 31.7 1.00001C31.7 0.700006 31.9 0.400006 32.2 0.100006H31C31.2 0.400006 31.4 0.700006 31.5 1.00001C31.2 0.900006 30.9 0.700006 30.7 0.500006V1.70001C30.9 1.50001 31.2 1.20001 31.5 1.20001C31.5 1.50001 31.3 1.80001 31 2.00001H32.2Z" fill="white"/>
<path d="M32.2 27.2C32 27.2 31.8 27 31.8 26.8C31.8 26.6 32 26.4 32.2 26.4C32.4 26.4 32.6 26.6 32.6 26.8C32.7 27 32.5 27.2 32.2 27.2ZM30.2 26.5C29.9 26.5 29.7 26.3 29.7 26C29.7 25.7 29.9 25.5 30.2 25.5C30.5 25.5 30.7 25.7 30.7 26C30.7 26.3 30.4 26.5 30.2 26.5ZM29.5 24.4L29.4 24.3C29.2 24.1 29 24.1 28.8 24.3C28.7 24.4 28.6 24.5 28.5 24.6L28.4 24.7L28.5 24.8C28.7 25 28.8 25.2 28.7 25.3L28.6 25.4C28.5 25.4 28.3 25.4 28.2 25.3L28 25.2V25.3C28 25.3 28 25.3 28 25.4C28 25.4 28 25.5 27.9 25.5C27.8 25.7 27.8 25.8 27.8 25.9V26C27.8 26.1 27.9 26.2 28 26.2H28.1C28.2 26.3 28.3 26.3 28.5 26.4C28.3 26.5 28.1 26.5 27.9 26.4C27.6 26.3 27.4 25.9 27.4 25.7C27.4 25.4 27.5 25.1 27.7 24.8V24.7V24.6C27.6 24.5 27.6 24.4 27.5 24.3C27.6 24.3 27.7 24.3 27.8 24.4H27.9C28 24.3 28.5 23.8 28.9 23.8C29.1 23.8 29.3 23.9 29.4 24.1C29.5 24.2 29.6 24.4 29.6 24.5C29.6 24.5 29.5 24.5 29.5 24.4ZM33.5 26.1C32.4 25.8 31.1 25.4 29.9 24.8C29.9 24.6 29.8 24.3 29.7 24.1C29.5 23.9 29.3 23.8 29 23.8C28.9 23.8 28.8 23.8 28.7 23.9C28.5 23.7 28.4 23.6 28.2 23.4C27.7 22.9 27.4 22.2 27.1 21.5C27 21.1 26.8 20.7 26.8 20.3C26.7 20.7 26.3 21.1 25.7 21.1C25.7 21 25.7 20.8 25.6 20.8C25.4 21 25.1 21.2 24.5 21C24.6 21.5 24.7 22 24.9 22.4C25.3 23.4 25.8 24.3 26.5 25.1C26.7 25.4 27 25.6 27.2 25.8V25.9C27.2 26.2 27.4 26.6 27.8 26.7C28.1 26.8 28.4 26.8 28.7 26.6C29.2 26.9 29.9 27.2 30.7 27.4C31.5 27.6 32.3 27.8 32.9 27.8C33.4 27.8 34.1 27.5 34.8 27.1C35.1 26.9 35.3 26.7 35.5 26.5C35.5 26.5 35.6 26.5 35.6 26.4C35 26.4 34.2 26.2 33.5 26.1Z" fill="white"/>
<path d="M33.2 30.6C33.1 30.5 33 30.4 32.9 30.4C32.4 30.4 32.6 31.6 32.1 31.6C31.9 31.6 31.7 31.5 31.7 31.3C31.7 31.1 31.8 31.1 31.8 30.9C31.8 30.8 31.7 30.7 31.6 30.7C31.5 30.7 31.4 30.7 31.4 30.9C31.4 31 31.5 31.1 31.5 31.3C31.5 31.5 31.4 31.6 31.1 31.6C30.6 31.6 30.7 30.4 30.3 30.4C30.2 30.4 30.1 30.5 30 30.6C29.9 30.4 29.9 30.3 29.9 30.1C29.9 29.9 30.1 29.6 30.4 29.6C31 29.6 30.9 30.4 31.1 30.4C31.2 30.4 31.3 30.3 31.3 30.2C31.3 30 30.9 29.7 30.9 29.4C30.9 29.1 31.2 28.8 31.5 28.5C31.8 28.8 32.1 29 32.1 29.4C32.1 29.7 31.7 30 31.7 30.2C31.7 30.3 31.8 30.4 31.9 30.4C32.2 30.4 32 29.6 32.6 29.6C33 29.6 33.1 29.9 33.1 30.1C33.3 30.2 33.3 30.4 33.2 30.6ZM31.6 32.2C31.4 32.2 31.3 32.1 31.3 31.9C31.3 31.7 31.4 31.6 31.6 31.6C31.8 31.6 31.9 31.7 31.9 31.9C31.9 32.1 31.8 32.2 31.6 32.2ZM32.8 29.3C32.7 29.3 32.6 29.3 32.6 29.3V28C32 28 31.3 27.9 30.7 27.7V29.3C30.6 29.3 30.5 29.3 30.5 29.3C30 29.3 29.7 29.7 29.7 30.1C29.7 30.4 29.9 30.8 30.1 30.9C30.2 30.7 30.3 30.5 30.4 30.5C30.6 30.5 30.5 31.6 31.2 31.7C31.2 31.8 31.2 31.8 31.2 31.9C31.2 32.2 31.4 32.4 31.7 32.4C32 32.4 32.2 32.2 32.2 31.9C32.2 31.8 32.2 31.8 32.2 31.7C32.9 31.7 32.8 30.5 33 30.5C33.1 30.5 33.2 30.7 33.3 30.9C33.5 30.7 33.7 30.4 33.7 30.1C33.6 29.7 33.3 29.3 32.8 29.3Z" fill="white"/>
<path d="M48.3 30.9C48.3 30.8 48.2 30.8 48.1 30.8C46.6 31.2 44.6 30 42.8 28.7C41.2 27.7 39.8 26.7 38.5 26.7C38 26.7 37.6 26.8 37.3 27C36.9 27.2 36.5 27.6 36.3 28.1C36.1 28.6 35.9 29 35.7 29.3C35.5 29.6 35.3 29.9 35.3 30.2C35.3 30.4 35.4 30.7 35.6 30.9C35.8 31.1 36 31.3 36.4 31.5C36.5 31.5 36.6 31.6 36.6 31.6C36.9 31.8 37.1 31.9 37.1 32C36.5 32.3 35.7 32.5 34.8 32.7C33.8 32.9 32.7 33 31.5 33C30.3 33 29.2 32.9 28.2 32.7C27.3 32.5 26.5 32.3 25.9 32C25.9 31.7 26.1 31.6 26.4 31.5C26.5 31.5 26.6 31.4 26.6 31.4C26.9 31.2 27.2 31.1 27.4 30.9C27.6 30.7 27.7 30.5 27.7 30.3C27.7 30 27.5 29.8 27.3 29.4C27.1 29.1 26.9 28.8 26.7 28.2C26.5 27.7 26.2 27.3 25.7 27.1C25.3 26.9 24.9 26.8 24.5 26.8C23.2 26.8 21.8 27.8 20.2 28.8C18.3 30 16.4 31.3 14.9 30.9C14.8 30.9 14.8 30.9 14.7 31C14.7 31.1 14.7 31.1 14.8 31.2C15.3 31.4 15.7 31.7 16.1 32C16.7 32.4 17.2 32.8 17.8 32.8C18.3 32.8 18.9 32.6 19.7 32.3C20.3 32 21 31.5 21.6 31.1C22.8 30.3 24.1 29.4 25.3 29.3C25.2 29.4 25.1 29.5 24.9 29.6C24.5 29.9 24.2 30.2 24.2 30.7C24.2 31.1 24.3 31.4 24.6 31.9C24.7 32 24.7 32.2 24.8 32.3C24.9 32.6 25 32.8 25.1 33.2C25.1 33.3 25.2 33.5 25.2 33.7C25.3 34 25.4 34.5 26.3 35C27.3 35.5 29.1 35.8 31.5 35.8C33.9 35.8 35.7 35.5 36.7 35C37.6 34.6 37.7 34 37.8 33.7C37.9 33.5 37.9 33.4 37.9 33.2C38 32.9 38 32.6 38.2 32.3C38.3 32.1 38.4 31.9 38.5 31.8C38.7 31.5 38.8 31.2 38.8 30.8C38.8 30.2 38.5 30 38.1 29.6C38 29.5 37.9 29.4 37.7 29.2C38.9 29.3 40.2 30.2 41.4 31C42 31.4 42.7 31.9 43.3 32.2C44 32.6 44.6 32.7 45.2 32.7C45.8 32.7 46.3 32.3 46.9 31.9C47.3 31.6 47.7 31.3 48.2 31.1C48.3 31.1 48.3 31 48.3 30.9Z" fill="white"/>
<path d="M31.8 18.9V13.1C32.4 13.1 33 13.3 33.5 13.5C34.1 13.8 34.6 14.2 35.1 14.8C35.6 15.3 35.9 16 36.2 16.7C36.5 17.4 36.6 18.1 36.6 18.9H31.8ZM31.6 10.7C30 10.7 28.8 11.2 28.2 11.6C27.8 11.4 27.7 11.2 27.7 10.9C27.7 10 30.3 9.9 31.7 9.9C33 9.9 35.7 10 35.7 10.9C35.7 11.2 35.5 11.4 35.2 11.6C34.4 11.2 33.3 10.7 31.6 10.7ZM31.5 18.9H26.6C26.6 18.1 26.7 17.4 27 16.7C27.3 16 27.6 15.4 28.1 14.8C28.6 14.3 29.1 13.8 29.7 13.5C30.3 13.2 30.9 13.1 31.6 13V18.9H31.5ZM39 18.6C38.8 18.5 38.5 18.2 38.4 17.9C38.2 17.5 37.5 16 37.3 15.8C37.2 15.6 37.2 15.5 37.2 15.3C37.2 15.1 37.3 15 37.4 14.9C37.5 14.8 37.6 14.7 37.7 14.6C37.7 14.5 37.8 14.5 37.8 14.4C37.5 13.9 37.2 13.6 36.9 13.1C36.4 12.6 35.9 12.2 35.4 11.8C35.7 11.6 36 11.3 36 10.9C36 10.6 35.9 10.4 35.7 10.2C36 9.2 36.6 8 37 7.5L36 7.1C36.3 7.5 36.3 8 36.2 8.2C35.9 8 35.7 7.8 35.6 7.4C35.5 7.7 35.4 8.2 35.2 8.5C35.5 8.4 35.7 8.3 36 8.4C35.8 8.6 35.4 9 34.8 8.8C34.4 8.7 34.1 8.5 34.1 8.3C34.1 8.1 34.2 7.9 34.5 8C34.7 8 34.7 8.3 34.7 8.5C35 8.3 35.3 7.5 34.8 7.4C34.5 7.3 34.1 7.8 34 8.2C33.9 7.8 33.8 7.3 33.4 7.4C32.9 7.4 33.1 8.3 33.3 8.5C33.3 8.2 33.5 8 33.6 8.1C33.7 8.1 33.9 8.2 33.9 8.5C33.9 8.8 33.5 8.9 33 8.9C32.6 8.9 31.8 8.8 31.8 8C32.1 8 32.5 8.3 32.7 8.5C32.6 8 32.6 7.7 32.7 7.2C32.5 7.5 32.1 7.7 31.8 7.7C31.9 7.4 32.2 7 32.5 6.8H30.7C31 7 31.3 7.4 31.4 7.7C31.1 7.7 30.8 7.5 30.5 7.2C30.6 7.7 30.6 8.1 30.5 8.5C30.7 8.2 31.1 8 31.4 8C31.3 8.8 30.6 8.9 30.2 8.9C29.8 8.9 29.4 8.7 29.3 8.5C29.3 8.2 29.4 8.1 29.6 8.1C29.7 8.1 29.9 8.2 29.9 8.5C30.1 8.3 30.2 7.4 29.8 7.4C29.4 7.4 29.3 7.8 29.2 8.2C29.1 7.8 28.8 7.4 28.4 7.4C28 7.5 28.3 8.4 28.5 8.5C28.4 8.4 28.4 8 28.7 8C28.9 8 29 8.2 29 8.4C29 8.7 28.7 8.9 28.3 8.9C27.7 9.1 27.2 8.7 27.1 8.5C27.4 8.4 27.6 8.4 27.9 8.6C27.7 8.3 27.6 7.8 27.5 7.5C27.4 7.8 27.2 8.1 26.9 8.3C26.8 8 26.9 7.6 27.1 7.2L26.1 7.6C26.6 8.1 27.1 9.3 27.4 10.3C27.2 10.5 27.1 10.7 27.1 10.9C27.1 11.4 27.4 11.6 27.7 11.8C27.2 12.2 26.7 12.6 26.2 13.1C25.5 13.9 25 14.8 24.6 15.7C24.7 15.8 25.3 16.5 25.5 16.7C25.7 17 25.9 17.3 25.9 17.6C25.9 18 26 18.2 26.2 18.5C26.3 18.6 26.4 18.9 26.4 19.2H31.3V24.6C31.1 24.6 30.9 24.7 30.7 24.9C31.3 25.1 31.8 25.3 32.4 25.5C32.5 25.1 32.5 24.9 32.7 24.7C32.7 24.7 32 24.6 31.6 24.6V19.2H36.4C36.4 19.9 36.3 20.7 36 21.3C35.7 22 35.4 22.6 34.9 23.2C34.4 23.7 33.9 24.2 33.3 24.5C33.2 24.5 33.2 24.6 33.1 24.7C33 24.8 32.9 25 32.9 25.1C32.8 25.3 32.8 25.4 32.8 25.6C33 25.7 33.1 25.7 33.4 25.8C35.1 26.2 35.5 26.1 35.6 26C36 25.7 36.3 25.4 36.7 25C37.4 24.2 37.9 23.3 38.3 22.3C38.7 21.3 38.9 20.2 38.9 19C39 18.8 39 18.8 39 18.6Z" fill="white"/>
<path d="M34.5 15.5C34.5 15.5 34.4 15.6 34.5 15.6L34.6 15.7C34.5 15.7 34.5 15.8 34.5 15.9C34.6 15.9 34.7 15.9 34.7 15.8C34.7 15.9 34.7 15.9 34.8 16H34.9C35.3 16.6 35.5 17.3 35.6 18C35.6 18 35.5 18 35.4 18C35.4 18.1 35.4 18.2 35.5 18.2H34.3C34.3 18.1 34.3 18.1 34.2 18C34.2 18 34.1 18 34 18.1C34 18 34 18 33.9 17.9C33.8 18 33.8 18 33.8 18.1C33.8 18 33.8 18 33.7 18C33.7 18 33.6 18.1 33.6 18.2H32.6C32.6 18.2 32.7 18.1 32.7 18C32.6 18 32.5 18 32.5 18.1V16.4C32.6 16.4 32.6 16.4 32.7 16.3C32.7 16.3 32.7 16.2 32.6 16.1C32.7 16.1 32.7 16.1 32.8 16C32.7 15.9 32.7 15.9 32.6 15.9C32.7 15.8 32.7 15.8 32.7 15.7C32.7 15.6 32.6 15.6 32.5 15.6V14.2C32.5 14.2 32.6 14.3 32.7 14.3C32.7 14.2 32.7 14.2 32.7 14.1C33 14.2 33.3 14.4 33.6 14.6C33.9 14.8 34.2 15.1 34.5 15.5ZM35.9 18C36 18.1 36 18.2 35.8 18.2C35.7 17.3 35.4 16.5 34.9 15.8C35 15.8 35.1 15.7 35.1 15.5C35 15.5 34.8 15.6 34.8 15.6L34.7 15.5C34.4 15.1 34 14.8 33.7 14.5C33.3 14.3 32.9 14.1 32.5 14C32.5 13.9 32.6 13.9 32.7 14C32.7 13.8 32.6 13.8 32.5 13.8L32.4 13.9C32.4 13.8 32.3 13.8 32.2 13.8C32.2 13.9 32.2 14 32.3 14C32.2 14 32.2 14 32.2 14.1C32.2 14.2 32.2 14.3 32.4 14.3C32.3 14.2 32.4 14.1 32.5 14.1V16C32.4 16 32.3 16 32.2 16.1C32.3 16.2 32.4 16.2 32.5 16.2V18.2C32.4 18.2 32.4 18.1 32.5 18C32.3 18 32.3 18.1 32.3 18.2C32.3 18.2 32.4 18.3 32.5 18.3C32.5 18.4 32.4 18.4 32.4 18.5C32.5 18.5 32.6 18.5 32.6 18.4C32.6 18.5 32.6 18.5 32.7 18.6C32.8 18.6 32.9 18.6 32.9 18.4C32.8 18.5 32.7 18.5 32.7 18.4H34.1C34.1 18.5 34.1 18.6 34.2 18.7C34.3 18.6 34.3 18.5 34.3 18.4H35.9C35.9 18.5 35.8 18.5 35.7 18.4C35.7 18.6 35.8 18.6 35.9 18.6C35.9 18.6 36 18.5 36 18.4C36.1 18.4 36.1 18.5 36.2 18.5C36.2 18.4 36.2 18.3 36.1 18.3C36.2 18.3 36.2 18.3 36.3 18.2C36.1 18.1 36 18 35.9 18Z" fill="white"/>
<path d="M35 17.5C35.1 17.5 35.1 17.4 35.1 17.4C35 17.4 35 17.4 35 17.4C35 17.4 35.1 17.4 35 17.3C34.9 17.2 34.9 17.2 34.8 17.3C34.7 17.4 34.4 17.3 34.4 17C34.4 17.1 34.5 17.1 34.5 17.1H34.6C34.7 17.1 34.7 17 34.7 17C34.7 16.8 34.6 16.8 34.4 16.6C34.3 16.5 34.3 16.5 34.2 16.5C34.1 16.4 34.2 16.3 34 16.1C34 16 34 16 34 15.9C33.9 16 33.9 16.3 34.1 16.5C34.3 16.7 34.6 16.8 34.6 17C34.6 17 34.6 17.1 34.5 17.1C34.5 17.1 34.5 17.1 34.4 17.1C34.4 17.1 34.3 17.1 34.3 17C34.2 16.9 34 16.7 33.9 16.6C33.7 16.4 33.8 16.2 33.8 16C33.9 15.8 33.7 15.5 33.6 15.5C33.6 15.5 33.6 15.4 33.6 15.3H33.5C33.5 15.2 33.5 15.2 33.4 15.2C33.3 15.2 33.3 15.2 33.3 15.1L33.2 15.2C33.1 15.2 33.1 15.2 33.1 15.2H33C32.9 15.2 32.9 15.2 32.9 15.3V15.4L33 15.5V15.4H33.1V15.5C33 15.5 33 15.5 33 15.5C33 15.5 33 15.5 33 15.6C33 15.6 33 15.7 33.1 15.6C33.2 15.6 33.3 15.6 33.3 15.6C33.3 15.8 33.1 15.8 33.1 16L33 15.9C33 15.8 32.9 15.8 32.9 15.7L32.8 15.6C32.7 15.6 32.7 15.5 32.7 15.5C32.7 15.4 32.7 15.4 32.7 15.3C32.7 15.3 32.7 15.3 32.7 15.2L32.6 15.1C32.6 15.1 32.6 15.1 32.6 15.2C32.6 15.2 32.6 15.2 32.6 15.3C32.6 15.3 32.6 15.2 32.5 15.2C32.5 15.2 32.5 15.1 32.4 15.2C32.4 15.2 32.4 15.3 32.5 15.3C32.4 15.3 32.4 15.3 32.4 15.3V15.4C32.4 15.5 32.4 15.5 32.4 15.5C32.4 15.6 32.3 15.5 32.3 15.5C32.2 15.6 32.3 15.7 32.4 15.6V15.7V15.8V15.9C32.4 16 32.5 16.2 32.7 16.3C32.6 16.4 32.5 16.4 32.5 16.5C32.4 16.6 32.4 16.6 32.3 16.6C32.3 16.6 32.3 16.6 32.2 16.5C32.2 16.5 32.2 16.5 32.1 16.5H32C32 16.5 32 16.5 32.1 16.5C32.1 16.5 32.1 16.6 32.2 16.5C32.2 16.5 32.2 16.5 32.1 16.5C32.1 16.5 32 16.4 32 16.5C32 16.5 31.9 16.6 32 16.6C32 16.6 32 16.6 32 16.5C32 16.5 32.1 16.6 32.1 16.5C32.1 16.6 32 16.6 32.1 16.6C32.1 16.7 32.2 16.7 32.2 16.7C32.2 16.7 32.1 16.7 32.1 16.6V16.5C32.1 16.5 32.1 16.6 32.2 16.5C32.2 16.5 32.2 16.5 32.2 16.4C32.3 16.4 32.3 16.3 32.4 16.4C32.4 16.4 32.4 16.3 32.5 16.3C32.6 16.3 32.6 16.3 32.6 16.3C32.6 16.3 32.6 16.2 32.7 16.2C32.7 16.5 33.1 16.5 33.2 16.7C33.1 16.7 32.9 16.6 32.9 16.6C32.8 16.6 32.6 16.7 32.6 16.8C32.6 16.9 32.7 17.1 32.8 17.1C32.7 17.1 32.6 17.1 32.5 17.1C32.4 17.1 32.4 16.9 32.3 17L32.2 17.1C32.2 17.1 32.2 17.1 32.3 17.1C32.3 17.1 32.2 17.1 32.2 17.2C32.2 17.2 32.2 17.3 32.3 17.3C32.3 17.3 32.4 17.4 32.4 17.3H32.3C32.3 17.3 32.3 17.3 32.4 17.3C32.4 17.3 32.4 17.2 32.5 17.3L32.6 17.2H32.7C32.8 17.2 32.7 17.1 32.7 17.1C32.7 17 32.6 17 32.6 16.9C32.6 16.7 32.8 16.7 32.9 16.7C32.9 16.8 33.1 17 33.3 17.1C33.4 17.1 33.5 17 33.5 17C33.5 17.1 33.5 17.1 33.5 17.2H33.4H33.3C33.3 17.2 33.2 17.2 33.2 17.3C33.2 17.3 33.2 17.3 33.3 17.3C33.3 17.4 33.4 17.4 33.4 17.3C33.4 17.3 33.3 17.4 33.4 17.4C33.4 17.4 33.4 17.5 33.5 17.5C33.5 17.5 33.5 17.5 33.5 17.4C33.5 17.4 33.5 17.3 33.6 17.3V17.4C33.6 17.4 33.7 17.5 33.7 17.4C33.7 17.3 33.6 17.3 33.6 17.3C33.6 17.3 33.7 17.3 33.7 17.2L33.8 17.1C35.1 17.5 35 17.5 35 17.5Z" fill="white"/>
<path d="M30.5 20.1C30.4 20.1 30.3 20.1 30.3 20.2C30.3 20.3 30.4 20.4 30.5 20.4C30.5 20.4 30.5 20.4 30.5 20.5C30.5 20.6 30.4 20.9 30.4 21.2L29.7 20.1C30 20 30.3 19.8 30.5 19.8C30.5 19.8 30.6 19.9 30.5 20.1ZM30.3 22L29.1 20.3C29.2 20.3 29.4 20.2 29.5 20.2L30.4 21.4C30.3 21.6 30.3 21.8 30.3 22ZM30.1 22.7L28.5 20.3C28.6 20.3 28.6 20.3 28.7 20.3C28.8 20.3 28.9 20.3 29 20.3L30.3 22.2C30.2 22.4 30.2 22.6 30.1 22.7ZM28.3 20.4L30.1 23C29.1 22.6 28.2 21.7 28.3 20.4ZM31 20.2C30.9 19.8 30.8 19.6 30.4 19.6C30.1 19.6 29.6 20 28.8 20C28.5 20 28.1 19.8 27.9 19.7L27.8 19.9C27.8 19.8 27.7 19.7 27.6 19.7C27.5 19.7 27.4 19.8 27.4 19.9C27.4 20 27.5 20.1 27.6 20.1C27.7 20.1 27.7 20.1 27.7 20L27.6 20.2H27.7C27.6 21.3 28.4 22.8 29.9 23.2C30.1 23.1 30.3 23.2 30.3 23.4C30.3 23.5 30.2 23.6 30.1 23.6C30 23.6 30 23.5 30 23.5C30 23.4 30.2 23.5 30.2 23.4C30.2 23.3 30.2 23.3 30.1 23.3C30 23.3 29.8 23.4 29.8 23.5C29.8 23.7 30 23.8 30.1 23.8C30.3 23.8 30.6 23.7 30.6 23.3C30.7 23.3 30.8 23.3 30.8 23.2V23H30.7L30.8 20.4H30.9C31 20.4 31.1 20.4 31.1 20.3C31.1 20.2 31 20.2 31 20.2Z" fill="white"/>
<path d="M29.6 14.7C29.7 14.7 29.7 14.6 29.6 14.7C29.7 14.6 29.7 14.6 29.6 14.7C29.7 14.6 29.7 14.6 29.6 14.6H29.7C29.8 14.6 29.7 14.6 29.6 14.7C29.7 14.7 29.7 14.6 29.6 14.7C29.7 14.7 29.7 14.7 29.6 14.7C29.7 14.8 29.7 14.7 29.6 14.7ZM29.8 14.4C29.7 14.5 29.7 14.5 29.8 14.4C29.7 14.4 29.7 14.4 29.7 14.3C29.7 14.4 29.7 14.4 29.8 14.4ZM29.8 14.5H29.9C29.9 14.5 29.9 14.6 29.8 14.5C29.8 14.5 29.8 14.6 29.8 14.5ZM30.6 14.9C31 14.9 31.1 14.8 31.1 14.7C31.1 14.3 30.1 14.6 30.1 14.3C30.1 14.3 30.1 14.2 30.2 14.2C30.7 14.2 30.7 13.8 31 13.8C30.6 13.7 30.5 14.1 30.3 14.1C30.4 14.1 30.4 13.9 30.4 13.9C30.3 14 30.1 14 30 14.2C30 14.2 30 14.2 30 14.3C29.9 14.3 29.9 14.4 29.9 14.4C29.9 14.8 30.9 14.5 30.9 14.8C31.1 14.8 30.9 14.9 30.6 14.9C30.4 14.8 30.2 14.7 29.9 14.8C29.9 14.7 30 14.6 30 14.6C30 14.6 30.1 14.6 30.1 14.5C30.1 14.5 30.1 14.5 30 14.5C30 14.5 30 14.5 30 14.4C30 14.4 30 14.4 30 14.3C30 14.3 30 14.3 29.9 14.2H29.8C29.8 14.2 29.8 14.2 29.7 14.2C29.7 14.2 29.7 14.2 29.6 14.2V14.3L29.5 14.4C29.5 14.5 29.5 14.5 29.4 14.5C29.4 14.6 29.4 14.7 29.3 14.7C29.3 14.7 29.3 14.7 29.2 14.6C29.1 14.6 29.1 14.5 29.2 14.5V14.4C29.2 14.4 29.2 14.3 29.1 14.3C29.1 14.3 29.1 14.3 29.1 14.4C29.1 14.4 29.1 14.3 29 14.3C29 14.3 29 14.2 28.9 14.3C28.9 14.3 28.9 14.4 29 14.4C28.9 14.4 28.9 14.4 28.9 14.4C28.9 14.4 28.9 14.4 28.9 14.5C28.8 14.5 28.8 14.6 28.9 14.6C28.9 14.7 28.8 14.7 28.8 14.6C28.7 14.7 28.8 14.8 28.9 14.7C28.9 14.7 28.9 14.7 28.9 14.8C28.9 14.8 28.9 14.9 29 14.9C28.9 14.9 28.8 15 28.8 15C28.8 15 28.7 15 28.6 15C28.5 15 28.4 15.1 28.4 15C28.4 15 28.4 15 28.4 14.9H28.3C28.3 14.9 28.3 14.9 28.4 14.9C28.4 14.9 28.4 14.9 28.5 15C28.5 15 28.5 14.9 28.4 15C28.4 15 28.3 15 28.3 15.1C28.3 15.1 28.3 15.2 28.4 15.1C28.4 15.1 28.3 15.2 28.4 15.2C28.4 15.3 28.4 15.3 28.5 15.3C28.5 15.3 28.5 15.3 28.5 15.2V15.1C28.5 15.1 28.5 15.2 28.6 15.2C28.6 15.2 28.7 15.2 28.7 15.1C28.7 15.1 28.7 15.1 28.7 15.2V15.3C28.7 15.3 28.8 15.3 28.8 15.2H28.9C28.9 15.2 28.9 15.2 28.9 15.3V15.4C28.9 15.3 29 15.3 29.1 15.3C29.1 15.3 29.2 15.3 29.2 15.2C29.2 15.2 29.2 15.2 29.3 15.2H29.4V15.3C29.5 15.3 29.6 15.2 29.6 15.2C29.8 15.2 29.5 15 29.9 15.1H30C30 15.2 30 15.3 30 15.3H30.1H30C29.9 15.4 29.9 15.2 29.8 15.2C29.8 15.2 29.7 15.2 29.7 15.3C29.7 15.3 29.7 15.3 29.8 15.3C29.8 15.3 29.7 15.3 29.7 15.4C29.7 15.4 29.7 15.5 29.8 15.4C29.8 15.4 29.8 15.5 29.9 15.4C29.9 15.4 29.9 15.4 29.8 15.4C29.8 15.4 29.8 15.4 29.9 15.4C30 15.4 29.9 15.3 30 15.3H30.1V15.2V15.1C30.2 15.1 30.2 15.1 30.3 15.1C30.4 15.1 30.3 15.1 30.4 15C30.5 15 30.5 15 30.6 15C30.6 15.1 30.6 15.1 30.6 15.1H30.5C30.5 15.1 30.4 15.1 30.4 15.2C30.4 15.2 30.4 15.2 30.5 15.2C30.5 15.2 30.6 15.3 30.6 15.2C30.6 15.2 30.5 15.3 30.6 15.3V15.4C30.6 15.4 30.6 15.4 30.6 15.3C30.6 15.3 30.6 15.2 30.7 15.2V15.3C30.7 15.3 30.7 15.3 30.8 15.3C30.8 15.2 30.8 15.2 30.8 15.2C30.8 15.2 30.9 15.2 30.9 15.1C30.8 15.1 30.9 15.1 30.9 15C30.9 15 30.9 15 30.9 14.9C30.9 14.9 30.8 15 30.8 14.9C30.8 14.9 30.8 14.9 30.7 14.9C30.9 15 30.8 15 30.6 14.9Z" fill="white"/>
<path d="M28.8 16.2C28.8 16.2 28.8 16.1 28.8 16.2C28.8 16.1 28.8 16.1 28.8 16.2C28.9 16.1 28.9 16.1 28.8 16.1L28.9 16.2H28.8C28.8 16.2 28.8 16.2 28.8 16.3C28.8 16.3 28.8 16.3 28.8 16.4C28.9 16.3 28.8 16.3 28.8 16.2C28.8 16.2 28.8 16.3 28.8 16.2ZM28.9 15.9C28.9 15.9 28.8 16 28.9 15.9C28.8 15.9 28.8 15.9 28.8 15.8C28.8 15.9 28.9 15.9 28.9 15.9ZM29 16C29 16 29.1 16 29.1 16.1C29.1 16 29.1 16 29 16ZM31.1 16.2C31.1 16.1 31 16 30.6 16C30.3 16 29.5 16.1 29.5 15.9C29.5 15.8 29.7 15.8 29.8 15.8C29.8 15.8 29.8 15.8 29.9 15.8C30.3 15.9 30.9 15.7 31.1 15.8C30.8 15.6 30.5 15.8 30.2 15.7C30.4 15.7 30.5 15.6 30.5 15.6C30.3 15.7 30.1 15.5 29.9 15.7C29.7 15.7 29.5 15.7 29.5 15.9C29.5 16.2 30.4 16 30.7 16C31 16 31.1 16 31.1 16.1C31.1 16.2 30.8 16.2 30.6 16.2C30.3 16.2 29.6 16.1 29.1 16.2C29.1 16.1 29.2 16 29.2 16L29.3 15.9H29.2C29.2 15.9 29.2 15.9 29.2 15.8V15.7C29.2 15.7 29.2 15.7 29.1 15.6C29 15.6 29 15.6 29 15.6H28.9H28.8C28.8 15.6 28.8 15.6 28.7 15.6V15.7L28.6 15.8C28.6 15.9 28.6 15.9 28.5 15.9C28.5 15.9 28.5 15.9 28.6 16V16.1H28.5C28.5 16.1 28.4 16 28.3 16C28.2 16 28.2 15.9 28.2 15.9C28.2 15.8 28.2 15.8 28.2 15.7C28.2 15.7 28.2 15.7 28.2 15.6L28.1 15.5C28.1 15.5 28.1 15.5 28.1 15.6C28.1 15.6 28.1 15.6 28.1 15.7C28.1 15.7 28.1 15.6 28 15.6C28 15.6 28 15.5 27.9 15.6C27.9 15.6 27.9 15.7 28 15.7C27.9 15.7 27.9 15.7 27.9 15.7V15.8C27.9 15.8 27.9 15.8 27.9 15.7C27.8 15.8 27.8 15.8 27.9 15.8C27.9 15.9 27.8 15.9 27.8 15.8C27.7 15.9 27.8 16 27.9 15.9V16L28 16.1C28.1 16.1 28.1 16.2 28.2 16.2C28.2 16.3 28.3 16.3 28.2 16.3H28C27.9 16.3 27.8 16.4 27.7 16.3C27.7 16.3 27.7 16.3 27.7 16.2C27.7 16.2 27.7 16.2 27.6 16.2H27.5C27.5 16.2 27.5 16.2 27.6 16.2C27.6 16.2 27.6 16.3 27.7 16.3C27.7 16.3 27.7 16.3 27.6 16.3C27.6 16.3 27.6 16.2 27.5 16.3C27.5 16.3 27.4 16.3 27.4 16.4C27.4 16.4 27.4 16.4 27.5 16.4C27.5 16.5 27.5 16.5 27.6 16.4C27.6 16.4 27.5 16.5 27.6 16.5C27.6 16.6 27.7 16.6 27.7 16.6C27.7 16.6 27.7 16.6 27.7 16.5C27.8 16.5 27.7 16.4 27.8 16.4C27.8 16.4 27.8 16.5 27.9 16.5C28 16.5 28 16.4 28 16.4C28 16.4 28 16.4 28 16.5V16.6C28 16.6 28.1 16.6 28.1 16.5H28.2C28.2 16.5 28.2 16.5 28.2 16.6V16.7C28.2 16.5 28.3 16.6 28.4 16.5C28.4 16.5 28.4 16.5 28.4 16.6C28.5 16.6 28.7 16.5 28.7 16.4H28.8C29.1 16.4 28.9 16.1 29.4 16.2C29.4 16.2 29.5 16.2 29.5 16.1C29.5 16.2 29.5 16.3 29.5 16.3H29.6H29.5C29.4 16.4 29.4 16.1 29.3 16.2L29.2 16.3C29.2 16.3 29.2 16.3 29.3 16.3C29.3 16.3 29.2 16.3 29.2 16.4C29.2 16.4 29.2 16.5 29.3 16.4C29.3 16.4 29.4 16.5 29.4 16.4H29.3C29.3 16.4 29.3 16.5 29.4 16.4C29.5 16.4 29.4 16.3 29.5 16.3C29.6 16.3 29.6 16.3 29.7 16.3C29.7 16.3 29.7 16.2 29.6 16.1V16C29.7 16 29.7 16.1 29.8 16.1C30 16.1 30 16.1 30.1 16C30.2 16 30.3 16 30.3 16C30.3 16.1 30.3 16.1 30.3 16.1H30.2C30.2 16.1 30.1 16.1 30.1 16.2C30.1 16.2 30.1 16.2 30.2 16.2C30.2 16.3 30.3 16.3 30.3 16.2C30.3 16.2 30.2 16.3 30.3 16.3C30.3 16.3 30.3 16.4 30.4 16.4C30.4 16.4 30.4 16.4 30.4 16.3C30.4 16.3 30.4 16.2 30.5 16.2V16.3C30.5 16.3 30.5 16.4 30.6 16.3C30.6 16.2 30.6 16.2 30.6 16.2C30.6 16.2 30.7 16.2 30.7 16.1C30.7 16.1 30.7 16.1 30.7 16C30.7 16 30.7 16 30.8 16C30.7 16 30.8 16 30.7 15.9C30.7 15.9 30.7 15.9 30.7 15.8C30.7 15.8 30.6 15.9 30.6 15.8C30.6 15.8 30.6 15.8 30.5 15.8C30.4 15.8 30.3 15.8 30.1 15.8C30.8 16.4 31.1 16.4 31.1 16.2Z" fill="white"/>
<path d="M28.4 17.7C28.5 17.6 28.5 17.6 28.4 17.6H28.5C28.5 17.6 28.5 17.6 28.4 17.7C28.5 17.7 28.5 17.7 28.5 17.7C28.5 17.7 28.5 17.7 28.4 17.7C28.4 17.8 28.5 17.8 28.4 17.7C28.4 17.7 28.4 17.8 28.4 17.7ZM28.5 17.5C28.5 17.5 28.4 17.5 28.5 17.5C28.4 17.5 28.4 17.5 28.4 17.4L28.5 17.5ZM28.6 17.5C28.6 17.5 28.7 17.5 28.7 17.6C28.7 17.6 28.7 17.6 28.6 17.5C28.6 17.5 28.6 17.6 28.6 17.5ZM31 17.8C31 17.7 30.9 17.6 30.6 17.6C30.3 17.6 29.3 17.7 29.3 17.5C29.3 17.4 29.6 17.4 29.9 17.4C29.9 17.4 29.9 17.4 30 17.4C30.4 17.5 30.9 17.2 31.2 17.3C31 17.1 30.7 17.3 30.3 17.3C30.5 17.3 30.7 17.3 30.7 17.2C30.6 17.3 30.1 17.1 30 17.2C29.7 17.2 29.3 17.2 29.3 17.3C29.3 17.6 30.4 17.4 30.7 17.4C31 17.4 31 17.4 31 17.5C31 17.6 30.7 17.6 30.6 17.6C30.3 17.6 29.3 17.5 28.8 17.6C28.8 17.5 28.9 17.4 28.9 17.4C28.9 17.4 29 17.4 29 17.3H28.9C28.9 17.3 28.9 17.3 28.9 17.2C28.9 17.2 28.9 17.2 28.9 17.1C28.9 17.1 28.9 17.1 28.8 17H28.7H28.6H28.5C28.5 17 28.5 17 28.4 17V17.1L28.3 17.2C28.3 17.3 28.3 17.3 28.2 17.3V17.4C28.2 17.4 28.2 17.4 28.1 17.4C28.1 17.4 28.1 17.4 28 17.4C27.9 17.4 27.9 17.3 27.8 17.3C27.7 17.3 27.7 17.2 27.7 17.2C27.7 17.1 27.7 17.1 27.7 17L27.6 16.9C27.6 16.9 27.6 16.9 27.6 17C27.6 17 27.6 17 27.6 17.1C27.6 17.1 27.6 17 27.5 17C27.5 17 27.5 16.9 27.4 17C27.4 17 27.4 17.1 27.5 17.1C27.4 17.1 27.4 17.1 27.4 17.1V17.2V17.3C27.4 17.4 27.3 17.4 27.3 17.3C27.2 17.4 27.4 17.5 27.4 17.4V17.5C27.4 17.5 27.5 17.6 27.6 17.7H27.7C27.7 17.8 27.7 17.8 27.7 17.8C27.7 17.8 27.5 17.8 27.4 17.8C27.3 17.8 27.2 17.9 27.1 17.8C27.1 17.8 27.1 17.8 27.1 17.7H27C27 17.7 27 17.7 27.1 17.7C27.1 17.7 27.1 17.8 27.2 17.8C27.2 17.8 27.2 17.8 27.1 17.8C27.1 17.8 27.1 17.7 27 17.8C27 17.8 26.9 17.8 26.9 17.9C26.9 17.9 26.9 17.9 27 17.9C27 17.9 27 18 27.1 17.9C27.1 17.9 27 18 27.1 18C27.1 18.1 27.1 18.1 27.2 18.1C27.2 18.1 27.2 18.1 27.2 18C27.2 18 27.2 17.9 27.3 17.9C27.3 17.9 27.3 18 27.4 18C27.5 18 27.5 17.9 27.5 17.9C27.5 17.9 27.5 17.9 27.5 18V18.1C27.5 18.1 27.6 18.1 27.6 18H27.7C27.7 18 27.7 18 27.7 18.1V18.2C27.7 18.1 27.9 18.1 28 18.1H28.1L28.2 18C28.2 18 28.2 18 28.3 18C28.4 18 28.4 17.9 28.4 17.9C28.9 18 28.6 17.7 29.3 17.7C29.3 17.7 29.3 17.7 29.4 17.7C29.4 17.8 29.4 17.9 29.4 17.9H29.5H29.4C29.3 18 29.3 17.8 29.2 17.8C29.2 17.8 29.1 17.8 29.1 17.9C29.1 17.9 29.1 17.9 29.2 17.9C29.2 17.9 29.1 17.9 29.1 18C29.1 18 29.1 18.1 29.2 18C29.2 18 29.3 18.1 29.3 18H29.2C29.2 18 29.2 18 29.3 18C29.4 18 29.3 17.9 29.4 17.9C29.5 17.9 29.5 17.9 29.6 17.9C29.6 17.9 29.6 17.8 29.5 17.7V17.6C29.6 17.6 29.6 17.7 29.7 17.7C29.9 17.7 29.9 17.7 30 17.6C30.1 17.6 30.2 17.6 30.2 17.6C30.2 17.7 30.2 17.7 30.2 17.7H30.1C30.1 17.7 30 17.7 30 17.8C30 17.8 30 17.8 30.1 17.8C30.1 17.9 30.2 17.9 30.2 17.8C30.2 17.8 30.1 17.9 30.2 17.9V18C30.2 18 30.2 18 30.2 17.9C30.2 17.9 30.2 17.8 30.3 17.8V17.9C30.3 17.9 30.3 18 30.4 17.9C30.4 17.8 30.4 17.8 30.4 17.8C30.4 17.8 30.5 17.8 30.5 17.7C30.5 17.7 30.5 17.7 30.6 17.7C30.5 17.7 30.6 17.7 30.6 17.6C30.6 17.6 30.6 17.6 30.6 17.5C30.6 17.5 30.5 17.6 30.5 17.5C30.5 17.5 30.5 17.5 30.4 17.5C30.3 17.5 30.2 17.5 30 17.5C30.6 17.9 31 17.9 31 17.8Z" fill="white"/>
<path d="M33.1 19.9C33.1 19.9 33.2 19.9 33.1 19.9C33.2 19.8 33.2 19.8 33.1 19.8H33.2C33.2 19.8 33.2 19.8 33.1 19.9C33.2 19.9 33.2 19.9 33.2 19.9C33.2 19.9 33.2 19.9 33.1 19.9C33.1 20 33.2 20 33.1 19.9C33.1 19.9 33.1 20 33.1 19.9ZM33.2 19.6C33.2 19.7 33.2 19.7 33.2 19.6C33.1 19.6 33.1 19.6 33.1 19.5C33.1 19.6 33.2 19.6 33.2 19.6ZM33.3 19.7C33.3 19.7 33.4 19.7 33.4 19.8C33.4 19.7 33.4 19.8 33.3 19.7C33.3 19.7 33.3 19.8 33.3 19.7ZM35.6 20.3C35.7 20.3 35.7 20.2 35.6 20.3C35.7 20.2 35.6 20.2 35.6 20.3C35.5 20.2 35.5 20.2 35.5 20.2C35.4 20.2 35.3 20.2 35.1 20.2C35.3 20.2 35.6 20.2 35.6 20C35.6 19.9 35.5 19.8 35.2 19.8C34.9 19.8 33.9 19.9 33.9 19.7C33.9 19.6 34.2 19.6 34.5 19.6C34.5 19.6 34.5 19.6 34.6 19.6C35 19.7 35.5 19.4 35.8 19.5C35.5 19.4 35.3 19.6 34.9 19.5C35.1 19.5 35.3 19.5 35.3 19.4C35.2 19.5 34.7 19.3 34.6 19.4C34.3 19.4 33.9 19.4 33.9 19.5C33.9 19.8 35 19.6 35.3 19.6C35.6 19.6 35.6 19.6 35.6 19.7C35.6 19.8 35.3 19.8 35.2 19.8C34.9 19.8 33.9 19.7 33.4 19.8C33.4 19.7 33.5 19.6 33.5 19.6C33.5 19.6 33.6 19.6 33.6 19.5H33.5C33.5 19.5 33.5 19.5 33.5 19.4C33.5 19.4 33.5 19.4 33.5 19.3C33.5 19.3 33.5 19.3 33.4 19.2H33.3H33.2H33.1C33.1 19.2 33.1 19.2 33 19.2V19.3L32.9 19.4C32.9 19.5 32.9 19.5 32.8 19.5C32.8 19.5 32.8 19.5 32.9 19.5V19.6H32.8C32.8 19.6 32.8 19.6 32.7 19.6C32.7 19.6 32.7 19.6 32.6 19.6C32.5 19.6 32.5 19.5 32.4 19.5C32.3 19.5 32.3 19.4 32.3 19.4C32.3 19.3 32.3 19.3 32.3 19.2C32.3 19.2 32.3 19.2 32.3 19.1L32.2 19C32.2 19 32.2 19 32.2 19.1C32.2 19.1 32.2 19.1 32.2 19.2C32.2 19.2 32.2 19.1 32.1 19.1C32.1 19.1 32.1 19 32 19.1C32 19.1 32 19.2 32.1 19.2C32 19.2 32 19.2 32 19.2V19.3C31.9 19.3 32 19.4 32 19.4C32 19.5 31.9 19.5 31.9 19.4C32.2 20 32.4 20 32.4 20V20.1C32.4 20.1 32.5 20.2 32.6 20.3H32.7V20.4C32.7 20.5 32.8 20.5 32.8 20.5C32.8 20.5 32.7 20.5 32.6 20.5C32.5 20.5 32.4 20.6 32.3 20.5C32.3 20.5 32.3 20.5 32.3 20.4H32.2C32.2 20.4 32.2 20.4 32.3 20.4C32.3 20.4 32.3 20.5 32.4 20.5C32.4 20.5 32.4 20.5 32.3 20.5C32.3 20.5 32.3 20.4 32.2 20.5C32.2 20.5 32.1 20.5 32.1 20.6C32.1 20.6 32.1 20.6 32.2 20.6C32.2 20.7 32.2 20.7 32.3 20.6C32.3 20.6 32.2 20.7 32.3 20.7C32.3 20.8 32.4 20.8 32.4 20.8C32.4 20.8 32.4 20.8 32.4 20.7C32.4 20.7 32.4 20.6 32.5 20.6C32.5 20.6 32.5 20.7 32.6 20.7C32.7 20.7 32.7 20.6 32.7 20.6C32.7 20.6 32.7 20.6 32.7 20.7V20.8C32.7 20.8 32.8 20.8 32.8 20.7H32.9C32.9 20.7 32.9 20.7 32.9 20.8V20.9C32.9 20.8 33 20.8 33.1 20.8L33.3 20.7H33.4C33.5 20.7 33.5 20.6 33.5 20.6C34 20.7 33.7 20.4 34.4 20.4C34.4 20.4 34.4 20.4 34.5 20.3C34.5 20.4 34.5 20.5 34.5 20.5H34.6H34.5C34.4 20.6 34.4 20.4 34.3 20.4C34.3 20.4 34.2 20.4 34.2 20.5C34.2 20.5 34.2 20.5 34.3 20.5C34.3 20.5 34.2 20.5 34.2 20.6C34.2 20.6 34.2 20.7 34.3 20.6C34.3 20.6 34.4 20.7 34.4 20.6H34.3C34.3 20.6 34.3 20.6 34.4 20.6C34.5 20.6 34.4 20.5 34.5 20.5C34.6 20.5 34.6 20.5 34.6 20.5C34.6 20.5 34.6 20.4 34.5 20.3V20.2C34.6 20.2 34.6 20.3 34.7 20.3C34.9 20.3 34.9 20.3 35 20.2C35.1 20.2 35.2 20.2 35.2 20.2C35.2 20.3 35.2 20.3 35.2 20.3H35.1C35.1 20.3 35 20.3 35 20.4C35 20.4 35 20.4 35.1 20.4C35.1 20.5 35.2 20.5 35.2 20.4C35.2 20.4 35.1 20.5 35.2 20.5V20.6C35.2 20.6 35.2 20.6 35.2 20.5C35.2 20.5 35.2 20.4 35.3 20.4V20.5C35.3 20.5 35.3 20.5 35.4 20.5C35.4 20.4 35.4 20.4 35.4 20.4C35.4 20.4 35.5 20.4 35.5 20.3C35.7 20.4 35.7 20.4 35.6 20.3C35.7 20.3 35.6 20.4 35.6 20.3Z" fill="white"/>
<path d="M33.3 21.2C33.2 21.2 33.2 21.2 33.3 21.2C33.2 21.1 33.3 21.2 33.3 21.2ZM33.2 21.3C33.2 21.2 33.2 21.3 33.2 21.3C33.2 21.3 33.1 21.3 33.2 21.3C33.1 21.3 33.1 21.3 33.2 21.3C33.1 21.4 33.1 21.4 33.1 21.4C33.1 21.4 33.1 21.5 33 21.4V21.3C33 21.3 33 21.3 33 21.2L33.2 21.3C33.2 21.2 33.2 21.2 33.2 21.3ZM33.2 21.1C33.1 21.1 33.1 21.1 33.2 21.1C33.1 21.1 33.1 21.1 33.1 21C33.1 21.1 33.1 21.1 33.2 21.1ZM34.2 21.1C34.2 21.1 34.2 21.2 34.2 21.1C34.7 21.3 35.1 21 35.4 21C35.1 20.9 34.9 21.1 34.6 21C34.8 21 35 21 35 20.9C34.8 21.1 34.4 20.9 34.2 21.1C34.2 21 34.2 21 34.2 21.1C34 21 33.8 21 33.8 21.2C33.8 21.5 34.6 21.3 34.9 21.3C35.2 21.3 35.1 21.3 35.1 21.4C35.1 21.5 34.8 21.5 34.7 21.5C34.5 21.5 33.8 21.4 33.4 21.5C33.4 21.4 33.5 21.3 33.5 21.3C33.5 21.3 33.6 21.3 33.6 21.2H33.5C33.5 21.2 33.5 21.2 33.5 21.1C33.5 21.1 33.5 21.1 33.5 21C33.5 21 33.5 21 33.4 20.9H33.3H33.2C33.2 20.9 33.2 20.9 33.1 20.9C33.1 20.9 33.1 20.9 33 20.9V21L32.9 21.1C32.9 21.2 32.9 21.2 32.8 21.2V21.3C32.8 21.3 32.7 21.3 32.6 21.3C32.5 21.3 32.5 21.2 32.5 21.2C32.5 21.1 32.5 21.1 32.5 21L32.4 20.9C32.4 20.9 32.4 20.9 32.4 21C32.4 21 32.4 21 32.4 21.1C32.4 21.1 32.4 21 32.3 21C32.3 21 32.3 20.9 32.2 21C32.2 21 32.2 21.1 32.3 21.1C32.2 21.1 32.2 21.1 32.2 21.1V21.2V21.3C32.2 21.4 32.1 21.4 32.1 21.3C32 21.4 32.2 21.5 32.2 21.4V21.5C32.2 21.5 32.2 21.5 32.3 21.5H32.4C32.4 21.6 32.4 21.7 32.4 21.7C32.4 21.7 32.3 21.7 32.2 21.7C32.1 21.7 32 21.8 32 21.7C32 21.7 32 21.7 32 21.6H31.9C31.9 21.6 31.9 21.6 32 21.6C32 21.6 32 21.7 32.1 21.7C32.1 21.7 32.1 21.7 32 21.7C32 21.7 32 21.6 31.9 21.7C31.9 21.7 31.8 21.7 31.8 21.8C31.8 21.8 31.8 21.9 31.9 21.8C31.9 21.8 31.8 21.9 31.9 21.9C31.9 22 31.9 22 32 22C32 22 32 22 32 21.9V21.8C32 21.8 32 21.9 32.1 21.9C32.2 21.9 32.2 21.9 32.2 21.8C32.2 21.8 32.2 21.8 32.2 21.9V22C32.2 22 32.3 22 32.3 21.9H32.4C32.4 21.9 32.4 21.9 32.4 22V22.1C32.4 22 32.5 22 32.6 21.9C32.7 22 32.8 21.8 32.8 21.8C32.9 21.8 32.9 21.7 32.9 21.7C33.2 21.7 33 21.5 33.4 21.5H33.5C33.5 21.6 33.5 21.7 33.5 21.7H33.6H33.5C34 22 34 21.8 33.9 21.8C33.9 21.8 33.8 21.8 33.8 21.9C33.8 21.9 33.8 21.9 33.9 21.9C33.9 21.9 33.8 21.9 33.8 22C33.8 22 33.8 22.1 33.9 22C33.9 22 33.9 22.1 34 22H33.9C33.9 22 33.9 22 34 22C34.1 22 34 21.9 34.1 21.9C34.2 21.9 34.2 21.9 34.2 21.9C34.2 21.9 34.2 21.8 34.1 21.7V21.6C34.2 21.6 34.2 21.6 34.3 21.6C34.4 21.6 34.5 21.6 34.6 21.5C34.7 21.5 34.8 21.5 34.8 21.5C34.8 21.6 34.8 21.6 34.8 21.6H34.7C34.7 21.6 34.6 21.6 34.6 21.7C34.6 21.7 34.6 21.7 34.7 21.7C34.7 21.8 34.7 21.8 34.8 21.7L34.7 21.8V21.9C34.7 21.9 34.7 21.9 34.7 21.8C34.7 21.8 34.7 21.7 34.8 21.7V21.8C34.8 21.8 34.8 21.8 34.9 21.8C34.9 21.7 34.9 21.7 34.9 21.7C34.9 21.7 35 21.7 35 21.6C35 21.6 35 21.6 35.1 21.6C35 21.6 35.1 21.6 35.1 21.5C35.1 21.5 35.1 21.5 35.1 21.4C35.1 21.4 35 21.5 35 21.4C35 21.4 35 21.4 34.9 21.4C34.8 21.4 34.7 21.4 34.5 21.4C34.7 21.4 35 21.4 35 21.2C35 21.1 35 21 34.7 21C34.4 21 33.7 21.1 33.7 20.9C33.9 21.1 34 21.1 34.2 21.1Z" fill="white"/>
<path d="M32.9 22.8C33 22.8 33 22.8 32.9 22.8C33 22.7 33 22.7 32.9 22.7H33C33 22.7 33 22.7 32.9 22.8C33 22.8 33 22.8 32.9 22.8C33 22.8 33 22.8 32.9 22.8C33 22.9 33 22.9 32.9 22.8C32.9 22.8 32.9 22.9 32.9 22.8ZM33 22.6C32.9 22.6 32.9 22.6 32.9 22.5L33 22.6ZM33.1 22.6H33.2C33.2 22.7 33.2 22.7 33.1 22.6C33.1 22.6 33.1 22.7 33.1 22.6ZM33.8 22.6C33.9 22.6 33.9 22.6 33.8 22.6C34.3 22.8 34.7 22.5 35 22.5C34.7 22.4 34.5 22.6 34.2 22.5C34.4 22.5 34.6 22.5 34.6 22.4C34.4 22.5 34.1 22.4 33.8 22.6C33.9 22.5 33.9 22.5 33.8 22.6C33.7 22.6 33.6 22.6 33.6 22.7C33.6 23 34.6 22.8 34.6 22.8C34.6 22.9 34.4 22.9 34.1 22.9C33.9 22.9 33.5 22.8 33.1 22.9C33.1 22.8 33.2 22.7 33.2 22.7C33.2 22.7 33.3 22.7 33.3 22.6C33.3 22.6 33.3 22.6 33.2 22.6C33.2 22.6 33.2 22.6 33.2 22.5C33.2 22.5 33.2 22.5 33.1 22.4H33C33 22.4 33 22.4 32.9 22.4C32.9 22.4 32.9 22.4 32.8 22.4V22.5L32.7 22.6C32.7 22.7 32.7 22.7 32.6 22.7C32.6 22.8 32.6 22.9 32.6 23C32.5 22.9 32.4 22.8 32.4 22.7C32.3 22.7 32.3 22.6 32.3 22.6C32.3 22.5 32.3 22.5 32.3 22.5L32.2 22.4C32.2 22.4 32.2 22.4 32.2 22.5C32.2 22.5 32.2 22.5 32.2 22.6C32.2 22.6 32.2 22.5 32.1 22.5C32.1 22.5 32.1 22.4 32 22.5C32 22.5 32 22.6 32.1 22.6C32 22.6 32 22.6 32 22.6V22.7V22.8C32 22.9 31.9 22.9 31.9 22.8C31.8 22.9 31.9 23 32 22.9V23C32 23 32 23.1 32.1 23.2C32.1 23.3 32.2 23.3 32.2 23.3C32.2 23.3 32.3 23.4 32.2 23.4H32H31.9H31.8C31.8 23.4 31.8 23.4 31.8 23.3H31.7C31.7 23.3 31.7 23.3 31.8 23.3C31.8 23.3 31.8 23.3 31.9 23.4C31.9 23.4 31.9 23.3 31.8 23.4C31.8 23.4 31.7 23.4 31.7 23.5C31.7 23.5 31.7 23.6 31.8 23.5C31.8 23.5 31.7 23.6 31.8 23.6C31.8 23.7 31.8 23.7 31.9 23.7C31.9 23.7 31.9 23.7 31.9 23.6V23.5C31.9 23.5 31.9 23.6 32 23.6C32 23.6 32.1 23.6 32.1 23.5C32.1 23.5 32.1 23.5 32.1 23.6V23.7C32.1 23.7 32.2 23.7 32.2 23.6H32.3C32.3 23.6 32.3 23.6 32.3 23.7C32.3 23.7 32.3 23.7 32.3 23.8C32.3 23.7 32.4 23.7 32.5 23.7C32.5 23.7 32.6 23.7 32.6 23.6C32.6 23.6 32.7 23.5 32.7 23.4C32.8 23.4 32.9 23.3 33 23.3C33 23.3 33 23.4 33 23.5C33 23.6 33.1 23.6 33.1 23.6H33C32.9 23.7 32.9 23.5 32.8 23.5C32.8 23.5 32.7 23.5 32.7 23.6C32.7 23.6 32.7 23.6 32.8 23.6C32.8 23.6 32.7 23.6 32.7 23.7C32.7 23.7 32.7 23.8 32.8 23.7C32.8 23.7 32.8 23.8 32.9 23.7C32.9 23.7 32.9 23.7 32.8 23.7C32.8 23.7 32.8 23.7 32.9 23.7C33 23.7 32.9 23.6 33 23.6H33.1V23.5C33.1 23.5 33.1 23.3 33 23.2C33.1 23.2 33.3 23.2 33.3 23.2C33.4 23.2 33.4 23.3 33.5 23.3C33.4 23.3 33.4 23.4 33.4 23.4C33.4 23.4 33.4 23.4 33.3 23.3H33.2C33.2 23.3 33.2 23.3 33.3 23.3H33.2V23.4H33.3C33.3 23.4 33.2 23.4 33.2 23.5V23.6C33.3 23.6 33.2 23.5 33.2 23.5H33.3C33.3 23.5 33.3 23.5 33.3 23.4C33.3 23.4 33.3 23.4 33.4 23.4V23.3C33.4 23.3 33.4 23.3 33.5 23.3C33.5 23.3 33.4 23.3 33.4 23.2C33.5 23.2 33.5 23.1 33.5 23.1C33.4 23 33.3 23 33.3 22.9H33.4C33.7 22.9 34 22.8 34 22.7C34 22.5 32.9 22.7 32.9 22.5C33.7 22.6 33.8 22.6 33.8 22.6Z" fill="white"/>
<path d="M17 4.40001C17 4.30001 16.9 4.10001 16.7 4.10001C16.6 4.10001 16.5 4.20001 16.5 4.40001C16.5 4.50001 16.6 4.70001 16.7 4.70001C16.9 4.70001 17 4.60001 17 4.40001Z" fill="white"/>
<path d="M16.9 3.8C16.9 3.7 16.8 3.5 16.6 3.5C16.5 3.5 16.3 3.6 16.3 3.8C16.3 3.9 16.4 4.1 16.6 4.1C16.8 4 16.9 3.9 16.9 3.8Z" fill="white"/>
<path d="M17.1 3.50001C17.2 3.50001 17.4 3.40001 17.4 3.20001C17.4 3.10001 17.3 2.90001 17.1 2.90001C17 2.90001 16.8 3.00001 16.8 3.20001C16.8 3.40001 16.9 3.50001 17.1 3.50001Z" fill="white"/>
<path d="M17.7 3.4C17.8 3.4 18 3.3 18 3.1C18 3 17.9 2.8 17.7 2.8C17.6 2.8 17.5 2.9 17.5 3.1C17.5 3.3 17.6 3.4 17.7 3.4Z" fill="white"/>
<path d="M20.6 3.00001C20.7 3.10001 20.9 3.10001 21 3.00001C21 2.90001 21 2.70001 21 2.60001C20.9 2.50001 20.7 2.50001 20.6 2.60001C20.5 2.70001 20.5 2.90001 20.6 3.00001Z" fill="white"/>
<path d="M20.5 2.4C20.6 2.3 20.6 2.1 20.5 2C20.4 1.9 20.2 1.9 20.1 2C20 2.1 20 2.3 20.1 2.4C20.3 2.5 20.4 2.5 20.5 2.4Z" fill="white"/>
<path d="M19.9 2.3C20 2.2 20 2.1 19.9 2C19.8 1.9 19.6 1.9 19.5 2C19.4 2.1 19.4 2.3 19.5 2.4C19.6 2.4 19.8 2.4 19.9 2.3Z" fill="white"/>
<path d="M19.3 2.70001C19.4 2.60001 19.4 2.40001 19.3 2.30001C19.2 2.20001 19 2.20001 18.9 2.30001C18.8 2.40001 18.8 2.60001 18.9 2.70001C19 2.80001 19.2 2.80001 19.3 2.70001Z" fill="white"/>
<path d="M17.7 2.4L17.9 2.8L18.2 2.5C18.2 2.6 18.2 2.9 18.2 3C18.2 3.2 18.3 3.3 18.5 3.3C18.7 3.3 18.8 3.2 18.8 3C18.8 2.9 18.7 2.8 18.6 2.7C18.5 2.6 18.3 2.5 18.2 2.4H18.6V2L18.3 2.3V1.8L17.8 2L18.1 2.3L17.7 2.4Z" fill="white"/>
<path d="M20.6 3.20001C20.7 3.40001 20.7 3.40001 20.7 3.50001C20.6 3.50001 20.5 3.40001 20.4 3.30001L20.5 3.90001C20.6 3.80001 20.6 3.70001 20.7 3.70001C20.7 4.10001 20.5 4.20001 20.4 4.30001C20.2 4.30001 20.1 4.20001 20.1 4.10001C20.1 3.90001 20.2 3.80001 20.4 4.00001C20.4 3.60001 20.1 3.70001 20 3.80001C20.1 3.50001 20.1 3.20001 19.8 3.10001C19.6 3.40001 19.7 3.60001 19.9 3.90001C19.7 3.80001 19.5 4.00001 19.7 4.20001C19.7 4.00001 19.9 4.00001 20 4.20001C20 4.40001 19.9 4.60001 19.6 4.60001C19.2 4.70001 19.1 4.50001 19 4.30001C19.1 4.20001 19.3 4.30001 19.5 4.40001L19.3 3.80001C19.3 3.90001 19.2 4.00001 19 4.10001C19 3.90001 19.1 3.60001 19.1 3.60001L18.4 3.90001C18.4 3.90001 18.7 4.10001 18.8 4.20001C18.7 4.30001 18.5 4.30001 18.3 4.20001L18.6 4.70001C18.7 4.50001 18.8 4.30001 18.9 4.30001C19 4.50001 19.1 4.80001 18.7 4.90001C18.5 5.00001 18.3 5.00001 18.2 4.80001C18.1 4.60001 18.2 4.50001 18.4 4.60001C18.4 4.30001 18.1 4.30001 18 4.50001C18 4.20001 17.9 4.00001 17.6 3.90001C17.5 4.20001 17.6 4.40001 18 4.60001C17.8 4.60001 17.6 4.80001 17.9 5.00001C17.9 4.80001 18.1 4.80001 18.2 4.90001C18.1 5.00001 18.1 5.10001 18 5.20001C17.9 5.30001 17.7 5.30001 17.4 5.00001C17.5 5.00001 17.6 5.00001 17.7 5.00001L17.3 4.50001C17.3 4.70001 17.3 4.80001 17.3 4.90001C17.2 4.80001 17.2 4.70001 17.2 4.60001L16.9 4.90001C17.2 5.10001 17.5 5.30001 17.9 5.80001C18.3 5.60001 19 5.20001 19.4 5.00001C19.8 4.80001 20.6 4.60001 21 4.50001C20.9 3.90001 20.9 3.50001 21 3.20001H20.6Z" fill="white"/>
<path d="M21.4 6.5C21 6.8 20.6 6.5 20.4 6.2C20.9 6 21.4 5.8 21.8 5.5C21.5 6.1 21.7 6.3 21.4 6.5ZM21.3 10.2C20.8 10.4 20.5 10 20.4 9.7C20.3 9.4 20.2 9.2 20.3 9.1C20.5 8.9 20.6 8.8 20.4 8.5C20.3 8.2 20 8.4 19.7 8.4C19.8 8.1 19.9 7.9 19.7 8C19.5 8 19.5 8.4 19.3 8.4C19.2 8.4 19.2 8.1 19.2 8C19.2 7.8 19.3 7.8 19.5 7.7L20.8 7.2C21 7.1 21.1 7.1 21.2 7.2C21.3 7.3 21.5 7.4 21.4 7.5C21.3 7.6 21.1 7.3 20.9 7.5C20.7 7.6 20.9 7.7 21.2 7.8C21 8 20.7 8.2 20.8 8.5C20.9 8.8 21 8.8 21.3 8.8C21.4 8.8 21.6 9 21.7 9.3C21.8 9.5 21.8 10 21.3 10.2ZM18.8 7.5C18.4 7.5 18.5 7.2 17.8 7C18.2 6.9 18.8 6.7 19.3 6.5C19.4 7 19.3 7.5 18.8 7.5ZM26.1 19.2C26.2 18.9 25.7 18.6 25.6 18.2C25.5 17.8 25.6 17.4 25.1 16.9C24.7 16.4 23.2 14.8 22.7 14.3C22.8 14.3 23.1 14.2 23.4 14.5C23.6 14.7 23.9 15 24.2 15.3C24.6 14.3 25.1 13.5 25.8 12.7C25.9 12.6 26 12.5 26.1 12.4C25.8 12.5 25.4 12.5 25.2 12.7C25.2 12.3 25.2 11.9 24.9 11.6C25 11 24.9 10.2 23.5 9.3C24.2 9.5 24.6 10.1 25.2 9.6C24.7 9.6 24.7 8.5 22.9 7.6C23.6 7.6 24.1 8.7 24.9 8.1C24.2 8 23.9 6.7 22.6 6.3C23.1 6.4 23.5 6.6 23.9 6C23.4 6.1 23.2 5.7 22.7 5.6C22.9 5 22.8 4.7 22.6 4.3C22.3 4.3 21.9 4.4 21.6 4.6C21.6 4.3 21.2 4.3 20.9 4.3C20.9 4.4 21 4.6 20.8 4.7C20.6 4.7 19.8 5 19.2 5.2C18.6 5.4 17.9 5.9 17.7 6C17.6 6.1 17.5 5.9 17.4 5.8C17.2 6 17 6.2 17.1 6.5C16.8 6.5 16.4 6.6 16.1 6.9C16.1 7.3 16.4 7.7 16.9 7.9C16.1 8.7 16.8 9.5 16.1 10.2C17.1 10.2 16.9 8.8 17.4 8.6C17.3 9.6 16.8 9.8 16.8 10.8C16.8 11.4 17.1 12 16.8 12.4C17.6 12.2 17.4 10.3 17.9 9.7C18 10 17.9 10.3 17.8 10.7C17.5 11.6 17.8 12.8 17.4 13.2C18.3 13.1 18.4 11.7 19.1 11.2C18.5 12.4 17.9 15.1 17 16.4C15.5 18.4 14.7 20.8 13.3 20.8C12.7 20.8 12.3 20.4 12.3 19.7C12.3 17.4 16.2 15.9 16.2 13.5C16.2 12.4 15.3 12 14.8 12C14.4 12 14 12.2 13.6 12.5C13.4 12.4 13.3 12.4 13.1 12.4C11.7 12.4 12.1 14.9 10.9 14.8C11.4 15.1 12.2 14.5 12.7 13.9C12.5 15.5 10.2 15.1 10.4 17C10.7 15.5 14.4 15.7 14.4 13.4C14.4 13.1 14.3 12.9 14.1 12.8C14.4 12.6 14.6 12.6 14.9 12.6C15.3 12.6 15.7 12.9 15.7 13.6C15.7 15.6 11.9 17.3 11.9 19.8C11.9 20.2 12 20.6 12.2 20.8C11.9 20.9 11.7 20.9 11.4 20.6C11.4 21.2 12.3 21.6 12.9 21.3C13 21.3 13.2 21.4 13.3 21.4C13.1 21.9 12.5 22 12.2 22C13.1 22.7 14.8 21.8 14.7 20.9C15.4 20.3 15.9 19.3 16.5 18.6C16.5 18.8 16.4 18.9 16.4 19.1C15.8 20.1 15.3 21 15.2 22.3C15.1 23.4 14.5 24.4 13.7 24.4C13.5 24.4 13.2 24.2 13.1 24.3C12.9 24.5 13.1 24.7 13.1 24.9C13.1 25.2 12.5 25.5 12.5 26.5C12.5 26.9 12.8 27.5 12.7 27.8C12.9 27.7 13.3 27.3 13.4 26.7C13.7 28 12.9 27.9 13.4 29.1C13.5 28.7 13.8 28.6 14.1 28.7C14.3 28.9 14.2 29 14.1 29.1C13.9 29.3 13.8 30.1 14.5 30.1C14.4 30 14.3 29.8 14.7 29.7C15.2 29.6 15.4 29.8 16 29.8C16.4 29.8 16.4 29.3 16.7 29.3C17 29.3 17 29.5 16.9 29.7C17.3 29.6 17.4 29.3 17.4 29.1C17.4 28.8 17.2 28.7 17.4 28.6C17.6 28.5 18.1 28.6 17.9 29C18.2 29 18.3 28.8 18.3 28.4C18.3 28.1 17.9 27.9 17.6 27.9C17.5 27.7 17.2 27.6 17 27.6C16.4 27.6 16.5 28.1 16 28.1C15.3 28.1 14.6 27.2 14.6 25.7C14.6 24.9 15.5 24.7 16.1 24.4C16.7 24.1 17.8 23.5 18.5 22.4C19 21.5 19 20.6 19 19.5C19.9 20 20 20.7 20 21.2C20 21.9 19.6 22.2 19.4 22.3C19.2 22.4 19.1 22.4 19.1 22.5C19.1 22.7 19.2 22.8 19.3 22.8C19.6 23 19.5 23.3 19.6 23.6C19.7 23.9 20 24.4 20.5 24.8C20.6 24.6 20.5 24.3 20.5 23.9C21.2 24.2 20.6 25.6 21.9 25.6C21.7 25.5 21.7 25.1 21.9 25.1C22 25 22.2 25.2 22.5 25.5C22.8 25.9 22.7 25.8 23.3 25.8C23.9 25.8 23.6 25.6 24 25.6C24.3 25.6 24.3 26 24.1 26.3C24.6 26.1 24.8 25.7 24.6 25.3C25.1 25 25.3 25.4 25.4 25.7C25.9 25.2 25.4 24.6 25 24.6C25 24.4 24.8 24.2 24.6 24.2C24.4 24.2 24.2 24.2 24 24.2C23.8 24.2 23.6 24.5 23.4 24.5C22.6 24.5 21 23 21 22.4C21 21.8 22.5 21.4 22.5 20.4C22.5 19.1 21.2 18.7 20.2 17.8C20.6 17.4 21.7 17.3 22.3 17.6C22.4 17.2 22.6 17.3 22.7 16.7C22.9 17.2 22.7 17.7 22.9 18C23.1 17.7 23.5 17.8 23.5 17.1C23.6 17.5 23.3 18.2 23.6 18.5C23.7 18.2 23.9 18.1 24 18.1C24.1 18.1 24.2 18.2 24.2 18.4C24.2 18.9 23.6 18.7 23.6 19.3C23.6 19.5 23.9 19.6 23.9 19.8C23.9 20 23.6 20.2 23.3 20C23.4 20.2 23.6 20.4 23.9 20.4C24.2 20.4 24.5 20.2 24.6 19.9C24.7 20.3 24.6 20.7 24.4 20.7C24.7 20.8 25.4 20.7 25.3 19.8C25.7 19.9 25.9 20.1 25.7 20.6C26 20.5 26.3 20.4 26.3 20C26.3 19.6 26 19.5 26.1 19.2Z" fill="white"/>
<path d="M51.1 25.4C51.1 25 51.5 24.6 51.9 24.6C52.3 24.6 52.7 25 52.7 25.4C52.7 25.8 52.3 26.2 51.9 26.2C51.4 26.2 51.1 25.9 51.1 25.4ZM50.8 25.4C50.8 26 51.3 26.5 51.9 26.5C52.5 26.5 53 26 53 25.4C53 24.8 52.5 24.3 51.9 24.3C51.3 24.3 50.8 24.8 50.8 25.4Z" fill="white"/>
<path d="M47.2 27.4C46.9 27.3 46.7 27.1 46.7 26.9C46.7 26.8 46.8 26.7 46.9 26.7C47 26.6 47.2 26.6 47.4 26.6C47.7 26.6 47.9 26.9 47.9 27.1C47.9 27.1 47.9 27.1 47.9 27.2C47.8 27.3 47.5 27.5 47.2 27.4ZM46.7 26.4C46.6 26.5 46.5 26.6 46.4 26.8C46.4 27 46.4 27.2 46.6 27.3C46.7 27.4 46.9 27.6 47.1 27.6C47.3 27.6 47.5 27.6 47.7 27.5C47.9 27.4 48 27.2 48 27C48.1 26.6 47.7 26.2 47.3 26.2C47.2 26.3 46.9 26.3 46.7 26.4Z" fill="white"/>
<path d="M40.7 11.8C40.7 11.7 40.8 11.5 40.9 11.4C41 11.3 41.2 11.3 41.3 11.3C41.4 11.3 41.4 11.3 41.5 11.4C41.6 11.5 41.6 11.6 41.6 11.6C41.6 11.7 41.5 11.9 41.4 12C41.2 12.2 40.9 12.2 40.8 12C40.7 11.9 40.7 11.9 40.7 11.8ZM40.7 11.2C40.4 11.5 40.3 11.9 40.5 12.2C40.7 12.5 41.2 12.5 41.5 12.2C41.7 12.1 41.8 11.9 41.8 11.6C41.8 11.4 41.8 11.3 41.7 11.2C41.6 11.1 41.5 11 41.3 11C41.2 11 40.9 11 40.7 11.2Z" fill="white"/>
<path d="M45.9 25.9C45.8 25.9 45.7 25.8 45.7 25.8C45.6 25.7 45.5 25.5 45.5 25.3C45.5 25.1 45.6 25 45.7 24.8C45.8 24.7 45.8 24.7 46 24.7C46.2 24.7 46.4 25 46.4 25.3C46.4 25.5 46.3 25.6 46.2 25.8C46.1 25.8 46 25.9 45.9 25.9ZM45.5 24.6C45.3 24.8 45.2 25 45.2 25.3C45.2 25.5 45.3 25.8 45.4 25.9C45.5 26 45.7 26.1 45.8 26.1C46 26.1 46.1 26 46.2 25.9C46.4 25.7 46.5 25.5 46.5 25.2C46.5 25 46.4 24.8 46.3 24.6C46.2 24.4 46 24.3 45.8 24.3C45.7 24.4 45.6 24.5 45.5 24.6Z" fill="white"/>
<path d="M40.4 16.9C40.1 16.8 40 16.5 40.1 16.3C40.1 16.2 40.2 16.1 40.3 16.1C40.4 16 40.6 16.1 40.8 16.1C41 16.2 41.1 16.3 41.1 16.5C41.1 16.6 41.1 16.7 41.1 16.8C41.1 16.9 41 16.9 40.9 17C40.7 17 40.5 17 40.4 16.9ZM40.1 15.8C39.9 15.9 39.8 16 39.7 16.1C39.5 16.4 39.7 16.9 40.2 17.1C40.4 17.2 40.7 17.2 40.9 17.2C41.1 17.1 41.2 17 41.3 16.9C41.4 16.8 41.4 16.6 41.3 16.4C41.2 16.2 41 16 40.8 15.9C40.6 15.8 40.4 15.8 40.1 15.8Z" fill="white"/>
<path d="M48 20.8C47.8 21.1 47.5 21.1 47.3 21C47.1 20.9 47.1 20.5 47.3 20.3C47.5 20 47.8 20 48 20.1C48.2 20.2 48.2 20.5 48 20.8ZM46.7 22.8C46.5 23.1 46.2 23.1 46 23C45.8 22.9 45.8 22.5 46 22.3C46.2 22.1 46.5 22 46.7 22.1C46.9 22.2 46.9 22.6 46.7 22.8ZM42.3 11.7C42.5 11.2 42.7 10.3 42.7 10.3L43.2 10.5C43.1 10.6 42.9 10.7 42.7 10.8C42.8 10.8 43 10.9 43.1 10.8L42.9 11.3C42.9 11.2 42.7 11 42.6 11C42.5 11.4 42.7 11.5 42.9 11.6C43.2 11.8 43.4 11.8 43.5 11.6C43.6 11.4 43.4 11.2 43.1 11.3C43.1 11 43.2 10.9 43.4 10.9C43.5 10.9 43.6 11 43.7 11.2C43.7 10.8 43.9 10.5 44.3 10.3C44.4 10.7 44.3 11 44 11.3C44.2 11.2 44.3 11.2 44.4 11.4C44.5 11.5 44.5 11.7 44.2 11.9C44.1 11.6 43.8 11.6 43.7 11.8C43.6 12 43.7 12.1 44 12.3C44.3 12.5 44.6 12.4 44.8 12.1C44.7 12.1 44.5 12.1 44.3 12.2L44.6 11.6C44.6 11.7 44.7 11.8 44.8 12C44.8 11.9 44.9 11.6 44.8 11.4L45.5 11.8C45.3 11.8 45.1 12 45 12.1C45.2 12.2 45.3 12.1 45.4 12.1L45 12.7C45 12.5 44.9 12.3 44.9 12.3C44.7 12.6 44.8 12.9 45.1 13.1C45.4 13.3 45.6 13.3 45.7 13.1C45.8 12.9 45.6 12.7 45.4 12.8C45.4 12.5 45.5 12.4 45.7 12.4C45.8 12.4 45.9 12.6 46 12.7C46.1 12.3 46.3 12 46.7 12C46.8 12.4 46.6 12.7 46.2 12.9C46.4 12.8 46.5 12.9 46.6 13C46.7 13.1 46.6 13.3 46.4 13.4C46.4 13.1 46.1 13.1 46 13.2C45.9 13.3 46 13.5 46.3 13.7C46.5 13.8 46.7 14 47 13.7C46.9 13.6 46.7 13.6 46.6 13.6L46.9 13.2C46.9 13.4 47 13.5 47.1 13.6C47.1 13.4 47.2 13.2 47.2 13L47.6 13.3C47.6 13.3 46.9 14 46.6 14.4L42.3 11.7ZM47.7 17.8C47.7 17.7 47.7 17.6 47.8 17.6C47.9 17.5 48 17.5 48.1 17.5C48.3 17.5 48.4 17.6 48.5 17.7C48.6 17.8 48.7 18 48.7 18.2C48.7 18.3 48.7 18.4 48.6 18.4C48.5 18.5 48.4 18.5 48.3 18.5C48.1 18.5 48 18.4 47.9 18.3C47.7 18.1 47.7 17.9 47.7 17.8ZM49.6 26.7C49.6 26.6 49.7 26.4 49.9 26.3C50.1 26.2 50.2 26.2 50.4 26.2C50.5 26.2 50.6 26.3 50.6 26.3C50.7 26.4 50.7 26.5 50.6 26.6C50.6 26.8 50.5 26.9 50.3 27C50 27.2 49.7 27.2 49.6 27C49.6 26.9 49.6 26.8 49.6 26.7ZM40.3 13.2C40.3 13.4 40.2 13.5 40.1 13.6C40.1 13.6 40 13.7 39.9 13.7C39.7 13.7 39.6 13.5 39.6 13.2C39.6 13 39.7 12.9 39.8 12.8C39.8 12.8 39.9 12.7 40 12.7C40.1 12.7 40.2 12.8 40.2 12.8C40.3 12.9 40.4 13.1 40.3 13.2ZM43.2 7.40001C43.4 7.10001 43.2 6.70001 43.7 6.70001C44 6.70001 44.2 7.00001 44.5 7.10001C44 7.00001 43.6 7.10001 43.2 7.40001ZM51.6 14.7C52 15.7 52.7 16 53.2 15.8C52 15.7 53 13.6 51.4 13.6C51.3 13.6 51.2 13.6 51.2 13.6C50.9 13.3 50.6 13.2 50.2 13.2C49.5 13.2 48.4 13.8 48.4 15.1C48.4 17.9 51.7 18.2 51.7 20.6C51.7 21.3 51.2 21.8 50.5 21.8C50 21.8 49.5 21.2 49.1 20.2C48.9 19.7 48.4 19.1 47.9 18.5C48 18.6 48.2 18.7 48.4 18.7C48.6 18.7 48.7 18.6 48.9 18.5C49 18.4 49.1 18.2 49.1 18.1C49.1 17.9 49 17.6 48.8 17.5C48.6 17.3 48.4 17.2 48.2 17.2C48 17.2 47.9 17.3 47.7 17.4C47.6 17.5 47.5 17.7 47.5 17.8C47.5 17.9 47.5 18 47.6 18.1C46.9 17.2 46.2 16.3 46.2 15.8C46.2 15.4 46.5 15 46.9 14.5L47 14.6L47.1 14.5C47.2 14.4 47.5 14.1 48.1 13.5L48.2 13.4L47.8 13C47.9 12.8 48 12.6 48 12.3C48.1 12.8 48.3 13 48.7 12.9C48.5 12.4 48.9 11.8 48.6 10.7C48.9 11.1 49.2 11.4 49.5 11.3C48.8 10.7 49.7 9.80001 48.8 8.40001C49.1 8.50001 49.3 8.40001 49.4 8.30001C48.5 8.20001 48.9 7.10001 47.4 6.70001C47.8 6.60001 48 6.40001 47.9 6.20001C47.5 6.50001 47.2 5.70001 45.8 5.70001C45.7 5.20001 45.3 4.70001 44.8 4.50001C44.9 4.90001 44.8 5.20001 44.7 5.50001L40.5 1.30001C40.4 1.20001 40.3 1.20001 40.3 1.20001C40.3 1.20001 40.3 1.30001 40.3 1.40001L44 5.90001C43.7 6.00001 43.5 6.10001 43.2 6.20001C43 6.30001 42.9 6.40001 42.9 6.70001C42.2 7.00001 41.6 7.50001 41.3 7.70001C41.1 7.90001 40.9 8.00001 41.1 8.40001C41.2 8.60001 41 9.00001 41.5 8.70001C41.8 8.50001 42.6 8.10001 42.7 8.30001C42.8 8.40001 42.4 8.60001 42.1 8.70001C41.8 8.80001 41.5 9.00001 41.6 9.10001C41.6 9.20001 41.9 9.10001 41.9 9.20001C41.9 9.30001 42 9.40001 42.1 9.40001C42.2 9.40001 42.3 9.20001 42.4 9.30001C42.5 9.40001 42.4 9.90001 42.3 10C42.7 10 43 9.60001 43 9.30001C43 9.00001 43.1 8.90001 43.2 8.90001C43.3 8.90001 43.3 9.20001 43.3 9.50001C43.5 9.50001 43.7 9.20001 43.7 8.60001C43.8 8.50001 43.9 8.40001 44 8.40001C44.1 8.40001 44.4 8.80001 44.8 8.80001C45.5 8.80001 45.9 8.20001 46 7.90001C46 7.70001 46 7.50001 45.9 7.30001C46.2 7.50001 46.2 7.80001 46.2 8.10001C46.2 9.10001 44.4 9.60001 43.6 10.3L43.5 10.4L42.6 10.1L42.5 10.3C42.5 10.3 42.5 10.3 42.4 10.5C42.3 10.8 42.1 11.4 42 11.7V11.8H42.1C41.6 12.5 41.2 13.2 41.1 14C40.9 13.8 40.7 13.6 40.5 13.4C40.5 13.3 40.5 13.2 40.5 13.2C40.5 13 40.4 12.8 40.3 12.6C40.2 12.5 40.1 12.4 39.9 12.4C39.8 12.4 39.6 12.4 39.5 12.6C39.5 12.6 39.4 12.6 39.4 12.7C39.4 12.7 39.3 12.7 39.3 12.6C39 12.4 38.7 12.1 38.5 11.9C38.4 11.8 38.3 11.7 38.1 11.7C38 11.7 37.8 11.7 37.7 11.7C37.6 11.7 37.5 11.8 37.4 11.9C37.3 12 37.1 12.1 36.9 12.3C37 12.4 37.1 12.5 37.2 12.6C37.3 12.7 37.3 12.7 37.4 12.8C37.5 12.8 37.5 12.7 37.5 12.7C37.6 12.6 37.7 12.6 37.8 12.6C37.9 12.6 38.1 12.7 38.2 12.8C38.3 12.9 39 13.8 39.5 14.4C39.4 14.4 39.4 14.4 39.3 14.5C39.1 14.6 38.5 14.6 38.3 14.6C38.1 14.6 38 14.5 37.8 14.8C37.7 14.9 37.7 15 37.6 15.1C37.5 15.2 37.5 15.3 37.6 15.6C37.9 16 38.5 17.1 38.7 17.6C38.9 18.1 39.1 18.2 39.5 18.3C39.9 18.5 40.6 18.9 40.7 18.9V18.5C40.6 18.4 40.2 18.2 40.1 18.2C40 18.1 39.9 18.1 40.1 18.1C40.3 18.1 40.7 18.3 41.1 18.4C41 18 40.6 17.6 40.4 17.4C40.1 17.3 39.8 17.3 39.7 17.4C39.7 17.5 39.7 17.6 39.5 17.6C39.4 17.6 39.3 17.5 39.3 17.4C39.3 17.3 39.5 17.2 39.5 17C39.5 16.8 39.2 16.7 39 16.7C38.8 16.3 38.5 15.8 38.4 15.6C38.3 15.4 38.4 15.3 38.4 15.2C38.6 15 39 15.3 39.9 15.3C40.2 15.3 40.6 15.3 41 15.4C41.1 16.4 41.5 17.4 42.9 17.7C43.6 17.9 44.3 18.4 44.5 19C41.7 19 41.3 20 41.3 21.1C41.3 22.3 42.3 22.2 42.3 23.1C42.3 23.9 40 24.2 39.2 24.3C38.6 24.4 38.3 24.5 38 24.8C37.7 25.1 37.4 25.4 36.9 25.9C36.9 25.9 37.1 26 37.3 25.9L37.7 25.4C37.8 25.2 37.9 25.1 38 25.1C38.1 25.1 38 25.2 37.9 25.4L37.6 25.9C39 26 39.1 25.5 39.1 25.3C39.1 25.1 38.8 24.9 39 24.8C39.2 24.7 39.4 24.8 39.5 24.9C39.7 25.1 39.7 25.2 40.1 25.1C40.1 25.1 43.1 23.9 43.5 23.7C43.8 23.5 43.7 23.4 43.5 23.2C43.3 23 43.2 22.7 43.2 22.4C43.2 21.5 43.7 21.2 44.7 21.2C44.7 21.4 44.7 21.5 44.7 21.6C44.7 23 46.8 24.4 47.4 24.4C47.7 24.4 48 24.2 48 25.1C48 25.7 48.1 26.2 48 26.9C47.9 27.6 47.7 27.7 47.2 28C46.8 28.3 46.4 29.3 46.2 29.5C46.4 29.6 46.6 29.6 46.8 29.2C46.9 28.8 47.1 28.5 47.3 28.4C47.1 28.8 47 29.5 46.9 29.6C47.4 29.7 48.3 29.2 48.3 28.8C48.3 28.4 48 28.4 48 28.2C48 28.1 48.1 28 48.3 28C48.5 28 48.7 28.2 48.7 28.3C48.9 28.2 49.1 27.9 49.1 27.4C49.1 27.2 49.1 26.9 49.1 26.7V26.8C49.2 27 49.4 27.1 49.6 27.1C49.8 27.1 50 27.1 50.2 26.9C50.4 26.8 50.6 26.6 50.6 26.3V26.2C50.6 26.1 50.6 26 50.5 25.9C50.4 25.8 50.3 25.7 50.1 25.6C49.9 25.6 49.6 25.6 49.4 25.7C49.2 25.8 49.1 26 49 26.2C49 25.4 48.9 24.7 48.9 24.4C48.9 24 48.9 23.8 48.8 23.7C48.7 23.6 48.5 23.9 48.3 23.9C48.1 23.9 47.5 23.3 47.5 22.7C47.5 22.1 48.2 21.3 48.1 20.5C48.1 20.2 48.3 20.1 48.4 20.3C48.5 20.6 48.7 21 49 21.3C48.8 22.4 50 23.4 50.9 22.6C50.4 22.7 50.1 22.3 49.9 21.8C50 21.8 50.1 21.8 50.2 21.8H50.3C50.6 22.2 51.7 22.2 52 21.2C51.8 21.4 51.4 21.6 51.2 21.5C51.6 21.2 51.8 20.7 51.8 20.1C51.8 17.4 48.6 17.1 48.6 14.7C48.6 13.8 49.4 13.2 49.9 13.2C50.1 13.2 50.3 13.3 50.4 13.4C50.2 13.6 50.1 13.9 50.1 14.3C50.2 16.2 53.3 16.1 53.4 17C54 16.2 51.7 16.6 51.6 14.7Z" fill="white"/>
<rect width="68.7" height="18.9" fill="black" fill-opacity="0" transform="translate(61.6 9.3)"/>
<path d="M75.2 15.1C74.7 12.5 72.6 11.3 70.1 11.3C65.8 11.3 64 14.8 64 18.6C64 22.7 65.8 26.2 70.1 26.2C73.3 26.2 75.1 24 75.3 21H77.7C77.2 25.5 74.4 28.2 69.9 28.2C64.3 28.2 61.6 24.1 61.6 18.8C61.6 13.6 64.6 9.3 70.1 9.3C73.9 9.3 77 11.3 77.5 15.2H75.2V15.1Z" fill="white"/>
<path d="M79.8 14.6H81.8V17.4H81.9C82.9 15.3 84.4 14.3 86.7 14.3V16.6C83.2 16.6 82 18.6 82 21.9V27.7H79.9V14.6H79.8Z" fill="white"/>
<path d="M93.2 14.3C97.3 14.3 99.5 17.3 99.5 21.1C99.5 24.9 97.3 27.9 93.2 27.9C89.1 27.9 86.9 24.9 86.9 21.1C86.9 17.3 89.1 14.3 93.2 14.3ZM93.2 26.1C95.4 26.1 97.3 24.3 97.3 21.2C97.3 18 95.5 16.2 93.2 16.2C90.9 16.2 89.1 18 89.1 21.2C89.1 24.3 91 26.1 93.2 26.1Z" fill="white"/>
<path d="M114 27.7H111.7L109 17.3L106.4 27.7H104L99.8 14.6H102.2L105.2 25.3H105.3L107.9 14.6H110.2L112.9 25.3H113L115.9 14.6H118.1L114 27.7Z" fill="white"/>
<path d="M119.5 14.6H121.5V16.7H121.6C122.5 15.1 124 14.3 125.8 14.3C129.2 14.3 130.3 16.3 130.3 19.1V27.7H128.2V18.9C128.2 17.3 127.2 16.3 125.5 16.3C122.9 16.3 121.6 18 121.6 20.4V27.8H119.5V14.6V14.6Z" fill="white"/>
<rect width="128.1" height="18.9" fill="black" fill-opacity="0" transform="translate(142.2 9.3)"/>
<path d="M155.8 15.1C155.3 12.5 153.2 11.3 150.7 11.3C146.4 11.3 144.6 14.8 144.6 18.6C144.6 22.7 146.4 26.2 150.7 26.2C153.9 26.2 155.7 24 155.9 21H158.3C157.8 25.5 155 28.2 150.5 28.2C144.9 28.2 142.2 24.1 142.2 18.8C142.2 13.6 145.2 9.3 150.7 9.3C154.5 9.3 157.6 11.3 158.1 15.2H155.8V15.1Z" fill="white"/>
<path d="M166.1 14.3C170.2 14.3 172.4 17.3 172.4 21.1C172.4 24.9 170.2 27.9 166.1 27.9C162 27.9 159.8 24.9 159.8 21.1C159.8 17.4 162 14.3 166.1 14.3ZM166.1 26.1C168.3 26.1 170.2 24.3 170.2 21.2C170.2 18 168.4 16.2 166.1 16.2C163.9 16.2 162 18 162 21.2C162 24.3 163.8 26.1 166.1 26.1Z" fill="white"/>
<path d="M174.4 14.6H176.4V16.5H176.5C177.5 15 178.9 14.3 180.7 14.3C182.3 14.3 183.8 14.9 184.3 16.5C185.2 15.1 186.7 14.3 188.4 14.3C191 14.3 192.7 15.4 192.7 18.1V27.7H190.6V19.1C190.6 17.5 190.2 16.2 188.1 16.2C186 16.2 184.7 17.5 184.7 19.5V27.6H182.6V19C182.6 17.3 182.1 16.1 180.1 16.1C177.5 16.1 176.6 18.4 176.6 19.4V27.5H174.5V14.6H174.4Z" fill="white"/>
<path d="M195.3 14.6H197.3V16.5H197.4C198.4 15 199.8 14.3 201.6 14.3C203.2 14.3 204.7 14.9 205.2 16.5C206.1 15.1 207.6 14.3 209.3 14.3C211.9 14.3 213.6 15.4 213.6 18.1V27.7H211.5V19.1C211.5 17.5 211.1 16.2 209 16.2C206.9 16.2 205.6 17.5 205.6 19.5V27.6H203.5V19C203.5 17.3 203 16.1 201 16.1C198.4 16.1 197.5 18.4 197.5 19.4V27.5H195.4V14.6H195.3Z" fill="white"/>
<path d="M227.4 23.6C226.8 26.5 224.7 28 221.8 28C217.6 28 215.7 25.1 215.5 21.1C215.5 17.2 218.1 14.3 221.6 14.3C226.2 14.3 227.6 18.6 227.5 21.8H217.7C217.6 24.1 218.9 26.1 221.8 26.1C223.6 26.1 224.8 25.2 225.2 23.5H227.4V23.6ZM225.3 19.9C225.2 17.9 223.7 16.2 221.5 16.2C219.3 16.2 217.9 17.9 217.8 19.9H225.3Z" fill="white"/>
<path d="M229.3 14.6H231.3V17.4H231.4C232.4 15.3 233.9 14.3 236.2 14.3V16.6C232.7 16.6 231.5 18.6 231.5 21.9V27.7H229.4V14.6H229.3Z" fill="white"/>
<path d="M246 18.8C245.7 17.2 244.5 16.2 242.8 16.2C239.7 16.2 238.7 18.7 238.7 21.3C238.7 23.7 239.8 26.1 242.5 26.1C244.6 26.1 245.8 24.9 246.1 22.9H248.3C247.8 26.1 245.8 28 242.5 28C238.5 28 236.4 25.2 236.4 21.3C236.4 17.4 238.4 14.3 242.6 14.3C245.6 14.3 247.9 15.7 248.2 18.8H246Z" fill="white"/>
<path d="M252.4 12.3H250.3V9.7H252.4V12.3ZM250.2 14.6H252.3V27.7H250.2V14.6Z" fill="white"/>
<path d="M266.7 27.7C266.3 27.9 265.8 28.1 265.2 28.1C264.1 28.1 263.4 27.5 263.4 26.1C262.2 27.5 260.6 28.1 258.8 28.1C256.4 28.1 254.5 27 254.5 24.4C254.5 21.4 256.7 20.8 258.9 20.4C261.3 19.9 263.3 20.1 263.3 18.5C263.3 16.6 261.8 16.3 260.4 16.3C258.6 16.3 257.2 16.9 257.1 18.8H255C255.1 15.6 257.6 14.4 260.5 14.4C262.8 14.4 265.4 14.9 265.4 18V24.7C265.4 25.7 265.4 26.2 266.1 26.2C266.3 26.2 266.5 26.2 266.8 26.1V27.7H266.7ZM263.2 21C262.4 21.6 260.7 21.6 259.3 21.9C257.9 22.2 256.7 22.7 256.7 24.2C256.7 25.6 257.9 26.1 259.2 26.1C262 26.1 263.2 24.3 263.2 23.1V21Z" fill="white"/>
<path d="M268.2 9.7H270.3V27.7H268.2V9.7Z" fill="white"/>
<rect width="78.1049" height="18.5" fill="black" fill-opacity="0" transform="translate(281.7 9.39999)"/>
<path d="M293 15C292.7 12.5 291 11.4 288.6 11.4C286.6 11.4 284.6 12.1 284.6 14.4C284.6 16.6 287.4 16.9 290.3 17.5C293.1 18.1 295.9 19.1 295.9 22.6C295.9 26.4 292.2 27.9 289 27.9C285 27.9 281.7 26 281.7 21.7H283.9C283.9 24.7 286.4 26 289 26C291.1 26 293.5 25.3 293.5 22.8C293.5 20.4 290.7 20 287.9 19.3C285.1 18.7 282.2 17.9 282.2 14.6C282.2 11 285.4 9.39999 288.6 9.39999C292.2 9.39999 295 11.1 295.1 15H293V15Z" fill="white"/>
<path d="M308.9 23.5C308.3 26.3 306.3 27.9 303.4 27.9C299.3 27.9 297.4 25.1 297.3 21.2C297.3 17.4 299.8 14.5 303.3 14.5C307.8 14.5 309.2 18.7 309.1 21.8H299.5C299.4 24 300.7 26 303.5 26C305.2 26 306.4 25.2 306.8 23.5H308.9ZM306.8 19.9C306.7 17.9 305.2 16.3 303.1 16.3C300.9 16.3 299.6 18 299.4 19.9H306.8Z" fill="white"/>
<path d="M310.8 14.7H312.8V17.4C313.8 15.3 315.2 14.3 317.5 14.4V16.6C314.1 16.6 312.9 18.5 312.9 21.8V27.5H310.8V14.7V14.7Z" fill="white"/>
<path d="M325.1 27.5H322.8L318 14.7H320.4L324 25.4L327.5 14.7H329.7L325.1 27.5Z" fill="white"/>
<path d="M333.2 12.4H331.1V9.89999H333.2V12.4ZM331.1 14.7H333.2V27.5H331.1V14.7Z" fill="white"/>
<path d="M344.6 18.8C344.3 17.2 343.2 16.3 341.4 16.3C338.4 16.3 337.4 18.7 337.4 21.3C337.4 23.7 338.5 26 341.1 26C343.1 26 344.3 24.8 344.6 22.9H346.8C346.3 26 344.4 27.9 341.2 27.9C337.3 27.9 335.2 25.2 335.2 21.4C335.2 17.6 337.2 14.5 341.2 14.5C344.1 14.5 346.4 15.9 346.7 18.9H344.6V18.8Z" fill="white"/>
<path d="M359.6 23.5C359 26.3 357 27.9 354.1 27.9C350 27.9 348.1 25.1 348 21.2C348 17.4 350.5 14.5 354 14.5C358.5 14.5 359.9 18.7 359.8 21.8H350.2C350.1 24 351.4 26 354.2 26C355.9 26 357.1 25.2 357.5 23.5H359.6ZM357.6 19.9C357.5 17.9 356 16.3 353.9 16.3C351.7 16.3 350.4 18 350.2 19.9H357.6Z" fill="white"/>
</svg>
